<?xml version="1.0" encoding="UTF-8"?>
<svg id="_レイヤー_2" data-name="レイヤー 2" xmlns="http://www.w3.org/2000/svg" viewBox="0 0 201.480912 64.4204712">
  <defs>
    <style>
      .cls-1 {
        fill: #fff;
        stroke-width: 0px;
      }
    </style>
  </defs>
  <g id="_レイヤー_1-2" data-name="レイヤー 1">
    <g>
      <g>
        <g>
          <g>
            <path class="cls-1" d="m166.9876409,13.2981242h.7915592c.2559306,0,.5841355.0427811.5841355.3488392v2.7528867s-.8904096.3268156-2.4989159.3268156c-1.607642,0-3.7568544-.885224-3.7568544-3.3370373,0-2.4503009,2.242121-3.4041259,3.8981618-3.4041259.7475897,0,1.6795921.0440775,1.6795921.4635704v.8184595c-.6291853-.5133737-.8845758-.6085663-1.8405616-.6085663-.959875,0-2.6765224.6281203-2.6765224,2.6751332,0,2.0364257,2.3017553,3.2524473,4.2181562,2.4828189v-1.5626073c0-.3277575-.025928-.9561866-.3987505-.9561866Z"/>
            <path class="cls-1" d="m179.0086027,16.5598623h2.0283233c-.5587477-.2099085-.7915592-.8843597-.979429-1.3758027-.188842-.4879859-1.6575533-4.0593473-1.8175505-4.5496019-.1668033-.4889582-.3962658-.4889582-.5875926-.4889582h-1.1613569c.5576674.1876537.2504209.5841355.1575124.863494-.0915041.2780927-2.050362,5.1347249-2.050362,5.1347249-.6781244-.1865733-2.385481-2.6844088-2.385481-2.6844088,2.2636196-.6513321,1.9182374-3.3138102-.3004403-3.3138102h-2.5439657c.5146701.1160277.4682159.6548972.4682159,1.0743901v4.4091587c0,.605202-.1874376.7708017-.4902546.930814h1.8649771c-.5122934-.2319473-.3757395-.7696285-.3757395-1.0256671v-4.7570256h1.0063292c.5391937,0,.9329747.6538169.9329747,1.0975092,0,.7187448-.5620967,1.0004954-1.1183596,1.2092155-.5622048.2095844-.2573351.676828,0,1.0488943.2558226.374443,1.0014677,1.4265632,1.4486171,1.9402762.4417477.5134818.8389858.4867976,1.047922.4867976h1.6794841c-.6501438-.2074237-.3014126-.7184207-.2098005-.9757558.0953933-.2586315.5136978-1.3551684.5136978-1.3551684h2.5199823s.3047616.7915592.5841355,1.4950714c.2828309.696598.0669806.7905869-.2318392.8358528Zm-2.6150516-3.0775416l.9559858-2.4965391,1.028368,2.4965391h-1.9843538Z"/>
            <path class="cls-1" d="m199.4466469,16.5598623h2.0342651c-.5636092-.2099085-.7950163-.8843597-.9804013-1.3758027-.185493-.4879859-1.6579855-4.0593473-1.8199272-4.5496019-.1649667-.4889582-.3943212-.4889582-.585648-.4889582h-1.1643818c.5631771.1876537.2559306.5841355.1609695.863494-.0929085.2780927-2.0538191,5.1347249-2.0538191,5.1347249-.130072.3048697-.3213988.3094071-.4417477.4161439h1.6805644c-.6537089-.2074237-.3038974-.7184207-.2108808-.9757558.0924764-.2586315.5156424-1.3551684.5156424-1.3551684h2.51901s.3072464.7915592.5860801,1.4950714c.2784015.696598.0675207.7905869-.2397257.8358528Zm-2.609974-3.0775416l.9559858-2.4965391,1.0258832,2.4965391h-1.981869Z"/>
            <path class="cls-1" d="m192.2687053,16.679239c.2328115-.2108808.4436923-.3755385.4436923-1.1198873v-4.4102239c0-.3487311-.0269003-.7487781-.4436923-.8876007h1.793027c-.185385.1655069-.4070691.3729306-.4070691.8424428v4.4553818c0,.3977934-.081241.9821449.4334292,1.1198873h-1.8193871Z"/>
            <path class="cls-1" d="m182.6004905,11.6372218s-.0230111,3.5224071-.0230111,3.9221299c0,.3977934.0474266.9821449.5606923,1.1198873h-1.7049799c.2377811-.2108808.419709-.3755385.419709-1.1198873,0-.7450898.0499113-4.0635454.0499113-4.4102239,0-.3487311-.0499113-.7487781-.4696203-.8876007h1.3110909l3.9178239,4.9225325v-4.0104082c0-.2585234.0474266-.7466174-.4892823-.9331907h1.7490574c-.2074237.1598891-.5161826.2318392-.5161826.9086672v5.7896069s-.4867976.0893435-1.2783568-.86567c-.7959886-.9550134-3.5268517-4.4358429-3.5268517-4.4358429Z"/>
            <path class="cls-1" d="m193.7520011,21.6471454c-5.1314688-4.3257722-7.0957284-9.4164973-.0762714-16.3629236.2201717-.2200636.4285677-.0892354.2558226.1077091-3.0762453,3.5179776-6.5082439,9.1439295-.0704376,16.0408766.0998227.104252.0626593.3337145-.1091135.2143379Z"/>
          </g>
          <g>
            <path class="cls-1" d="m176.4941301,7.9188273c.2782935-.1389461.4221937-.370878.4955483-.5841355l.2661938.0325026c-.0245235.0567328-.0415928.1054558-.0831856.1807549h.3718503c.0023767.0104638.0083186.0579985.0102632.0671966l.2792658-.0429972c-.0239834.1936882-.0797285.3838266-.1746897.55776-.234216.4206966-.5542103.5307824-.9446423.5980871l-.100795-.234324c.3929167-.0496953.7685482-.1702603.91785-.7137907h-.5063516c-.1624819.2049543-.3087589.2860873-.3722824.324331l-.1590249-.185385Zm1.0958887-.3594264c-.0073463-.0439695-.0431052-.1865733-.061687-.2362686l.1354736-.0210665c.0313296.0777839.0533684.1553517.0719501.2331356l-.1457368.0241994Zm.2152021-.0300332c-.0137202-.0673047-.0298172-.1321246-.065036-.2226718l.1379584-.020727c.029385.0731385.0572576.1646426.068493.2191993l-.1414155.0241994Z"/>
            <path class="cls-1" d="m180.1442477,7.7798813c-.0523961.5180345-.253878.8784333-1.0488943.9353668l-.0752991-.2306509c.5425427-.0220388.7548279-.1739334.8252656-.4765344h-.9912046v-.2281815h1.2901324Zm-.1031717-.3826382v.2306509h-1.0699608v-.2306509h1.0699608Z"/>
            <path class="cls-1" d="m181.6119867,7.8793952c-.1448725-.0995139-.3224791-.185385-.4907948-.2399571l.113975-.2143225c.2075318.0626593.3718503.1402271.510889.2248171l-.1340692.2294625Zm-.4682159.5562476c.5841355-.0496953.9167697-.2511618,1.1017225-.9062751l.2368088.1193767c-.2470719.8240772-.7338695.9794289-1.2554538,1.0535397l-.0830775-.2666413Z"/>
            <path class="cls-1" d="m183.8707448,8.1435364c-.1354736-.0741261-.2944985-.136662-.4598973-.1817118l.0866426-.2089516c.1217534.0270083.318914.0883865.468648.1683311l-.0953933.2223323Zm-.3767118.2967672c.4891743-.0427811.8336922-.1343006,1.0454372-.8449276l.2334597.1135429c-.2520414.7489941-.6355593.9285453-1.2119164,1.0004954l-.0669806-.2691107Zm.5121854-.6709942c-.1515706-.0789723-.3130802-.1308282-.4759943-.1714487l.0890194-.2064514c.149734.0278726.335119.0824293.4858253.1565401l-.0988504.22136Z"/>
            <path class="cls-1" d="m185.7390709,8.5345085c.1276952-.0524114.3968059-.1555678.4628142-.501058.0245235-.1168919.0216066-.2132575.0216066-.2954708l.2597118.0012964c-.0019446.0669806-.0044294.1168919-.0137202.2027783.117-.0556371.234432-.1357977.3072464-.306058h-1.0498666v-.2387534h1.3674842c-.0475346.3826382-.2040747.5831632-.4638945.7338695l-.1644265-.169288c-.0420249.3163212-.1437922.563177-.5644735.7704927l-.1624819-.1978088Z"/>
          </g>
        </g>
        <g>
          <path class="cls-1" d="m48.3729248,54.9087524c.7191162.0871582,1.1821289.1652832,1.3891602.2342529.1270752.0327148.1906738.0925903.1906738.1797485,0,.036377-.0163574.0926514-.0490723.1688843-.0799561.1707764-.119873.5230103-.119873,1.0568848v2.2553711c0,.1380615.0090332.6065674.0273438,1.4055176,0,.1489258-.0799561.2233276-.2397461.2233276h-.8989258c-.1380615,0-.2070312-.0544434-.2070312-.1634521v-.0272217l.0327148-1.5198975v-2.1845703c0-.6864014-.041748-1.2293091-.1252441-1.6288452Zm.5665283,8.3458862c1.2529297-.3848877,2.1590576-.9278564,2.7183838-1.6288452.5012207-.6173706.7518311-1.6106567.7518311-2.9799194v-2.1082764c0-.8025513-.041748-1.4090576-.1252441-1.819519.6209717.0545044,1.105835.1361694,1.4544678.2451782.1016846.0326538.1525879.0962524.1525879.1906738,0,.0690308-.0146484.1289062-.0435791.1797485-.0654297.156189-.0981445.5610962-.0981445,1.2148438v2.0755615c0,.8970947-.079834,1.6397705-.239624,2.2281494-.1417236.5338745-.3649902,1.0042114-.6700439,1.4109497-.2869873.3850098-.6755371.7445679-1.1658936,1.0786743-.4176025.2868042-.8461914.512085-1.2856445.6754761-.0980225.0362549-.1761475.0545044-.2342529.0545044-.0908203,0-.1798096-.0454712-.2669678-.1362305-.2651367-.2651367-.5810547-.4920654-.947876-.6809692Z"/>
          <path class="cls-1" d="m59.7260742,56.2053223c.7191162.0871582,1.1911621.1688843,1.4163818.2451172.119873.0327148.1798096.0999756.1798096.2015991,0,.039978-.0109863.0871582-.0327148.1416016-.0908203.1780396-.1362305.4304199-.1362305.7572632-.0217285,1.3365479-.2232666,2.4296875-.6046143,3.279541-.3269043.7735596-.8553467,1.4727173-1.5853271,2.0973511-.119873.0980835-.2161865.1470947-.2886963.1470947-.0582275,0-.1290283-.0290527-.2125244-.0871582-.2614746-.1815796-.5773926-.3377686-.947876-.4685059.871582-.6609497,1.4890137-1.4018555,1.8521729-2.2226562.1779785-.4358521.2978516-.8662109.3596191-1.2911377.0689697-.4502563.1052246-1.0712891.1088867-1.8630981,0-.3486938-.0362549-.6609497-.1088867-.9370117Zm3.8951416,4.9628906c.4974365-.2650757,1.0258789-.6119385,1.5852051-1.0405273.7698975-.5883789,1.4200439-1.2202759,1.9503174-1.895813.0435791.3922119.15979.7681274.3486328,1.1276855.0435791.1053467.0654297.1688843.0654297.1906738,0,.0762329-.0563965.1688843-.1689453.277832-.5483398.5629883-1.0986328,1.0513916-1.6506348,1.4653931-.6392822.4902954-1.3001709.9370117-1.9829102,1.3401489-.1054688.0690308-.2125244.1470947-.3214111.2342529-.0727539.0581665-.1490479.0871582-.2288818.0871582-.0581055,0-.1361084-.0289917-.2342529-.0871582-.2143555-.1488647-.4376221-.3758545-.6700439-.6809692-.0654297-.1016235-.0980225-.1797485-.0980225-.2342529,0-.0544434.0144043-.1107178.0435791-.1688843.0435791-.0834961.0653076-.3667603.0653076-.8497925v-3.4920044c0-.9514771-.0380859-1.5997925-.1143799-1.9448242.7045898.0908203,1.1712646.1688843,1.4000244.2342529.1343994.0326538.2016602.0962524.2016602.1906738,0,.0690308-.0291748.1633911-.0871582.2832642-.0690918.1380615-.1035156.5502319-.1035156,1.2366333v3.7262573Z"/>
          <path class="cls-1" d="m75.0177002,56.7936401v1.7650757h2.0755615c.8353271,0,1.6524658-.0181274,2.4515381-.0544434.079834,0,.1252441.0671997.1361084.2015381.0109863.1380615.0163574.277832.0163574.4194946,0,.1416016-.0053711.2814941-.0163574.4194336-.0073242.1344604-.0581055.2015991-.1524658.2015991h-.0599365c-1.0097656-.0181274-1.8013916-.0272217-2.3752441-.0272217h-2.0864258v1.6833496c0,.315918.0998535.513916.2995605.59375.2469482.0799561.6518555.119873,1.2148438.119873.8099365,0,1.4654541-.0435791,1.9666748-.1307373.0906982,0,.1362305.0544434.1362305.1634521.0217285.1997681.0325928.4939575.0325928.8825073,0,.0944824-.0181885.157959-.0544434.1906738-.0290527.0217896-.0853271.0363159-.1688232.0435791-.4831543.0653687-1.1749268.0980835-2.0756836.0980835-.8497314,0-1.4945068-.0998535-1.9338379-.2996216-.4903564-.2251587-.7354736-.6791382-.7354736-1.3619385v-1.9829712h-.713623c-.6864014,0-1.460083.0181885-2.3208008.0544434-.1162109.0073242-.1796875-.0634766-.1906738-.2124634-.0108643-.0689087-.0362549-.4212646-.0762939-1.0568237.5447998.0435791,1.4110107.0653687,2.5986328.0653687h.7027588v-1.7650757c-1.0350342,0-1.6815186.0073242-1.9394531.0217896-.1270752,0-.1906738-.0671387-.1906738-.2015381-.0290527-.2977905-.0435791-.6428833-.0435791-1.0350952.4467773.0363159,1.2058105.0545044,2.2772217.0545044h2.2498779c.6646729,0,1.3981934-.0145264,2.2009277-.0436401.1125488,0,.1688232.0635986.1688232.1906738.0145264.3560181.0218506.630188.0218506.8226318,0,.1271973-.0618896.1906738-.1853027.1906738h-.0489502l-2.1573486-.0109253h-1.0241699Z"/>
          <path class="cls-1" d="m82.475708,61.0211182c.6428223.0435791,1.4127197.0653687,2.3098145.0653687h4.0585938c.8134766,0,1.6506348-.0181274,2.5113525-.0545044.119873,0,.1798096.0672607.1798096.2015991.0108643.1598511.0163574.3214111.0163574.4848022,0,.1634521-.0054932.3250732-.0163574.4848633,0,.156189-.0563965.2342529-.1688232.2342529-.5303955-.0217896-1.3438721-.0326538-2.4406738-.0326538h-4.1729736c-.8897705,0-1.5598145.0181885-2.0101318.0544434-.0908203,0-.1470947-.0708008-.1689453-.2124634-.0290527-.1743164-.0617676-.5828857-.0980225-1.225708Zm1.3728027-4.7286377c.5629883.0435791,1.1948242.0653687,1.895874.0653687h2.211792c.5483398,0,1.2165527-.0181274,2.0047607-.0545044.0834961,0,.1252441.0635986.1252441.1906738.0108643.1634521.0163574.3287354.0163574.4957886,0,.1633911-.0054932.3287354-.0163574.4957275-.0108643.1416626-.0599365.2124634-.1470947.2124634-.5302734-.0217896-1.1804199-.0327148-1.9503174-.0327148h-2.211792c-.4394531,0-1.0078125.0145874-1.7050781.0435791-.0944824,0-.1470947-.078064-.157959-.2342529-.0435791-.2759399-.0654297-.6700439-.0654297-1.1821289Z"/>
          <path class="cls-1" d="m94.3409424,58.6240845c.5810547.0908203,1.383667.1362305,2.4078369.1362305h3.5955811c.3521729,0,.8062744-.0054932,1.3619385-.0163574.7081299-.0109253,1.109375-.0181274,1.2038574-.0217896h.0545654c.0980225,0,.1470947.0526733.1470947.157959.0108643.1707764.0163574.3468628.0163574.5284424,0,.1779785-.0054932.3522949-.0163574.5230103,0,.1126099-.0527344.1688843-.1580811.1688843h-.0435791c-1.1149902-.0145264-1.9448242-.0217896-2.489502-.0217896h-4.0150146l-1.6397705.1361694c-.1416016,0-.2270508-.078064-.2561035-.2342529-.0653076-.2941895-.1217041-.7463379-.1688232-1.3565063Z"/>
          <path class="cls-1" d="m107.4973145,58.2536621l-1.4163818.0217896c-.0617676,0-.0980225-.0090332-.1088867-.0272217-.0109863-.0144653-.0163574-.0508423-.0163574-.1089478v-.9152222c0-.0581055.0072021-.0926514.0217285-.1035156.0145264-.0109253.0490723-.0163574.1035156-.0163574l1.4163818.0217896h2.5550537c.0217285-.3086548.039917-.8117065.0544434-1.5090332v-.2614746c0-.3740234-.0181885-.7172241-.0544434-1.0296021.5883789.0181885,1.0150146.0472412,1.2801514.0871582.1343994.0291138.2016602.0817261.2016602.157959,0,.0653687-.0218506.1434937-.0654297.2342529-.0581055.1017456-.0926514.3614502-.1035156.7790527-.0145264.7009277-.036377,1.2148438-.0653076,1.541687h2.8763428l1.421875-.0217896c.0579834,0,.0926514.0073242.1035156.0217896.0108643.0145264.0163574.0472412.0163574.0980835v.9152222c0,.0653687-.0073242.1053467-.0218506.119812-.0145264.0109253-.0472412.0163574-.0980225.0163574l-1.421875-.0217896h-2.6639404c.3813477,1.2058105.9787598,2.2372437,1.7923584,3.0942993.751709.788147,1.6414795,1.3782959,2.6693115,1.7705078-.2579346.2470093-.473877.5265503-.6483154.8389282-.0980225.1852417-.1761475.277832-.2342529.277832-.0325928,0-.118042-.0380859-.2559814-.1143799-1.8704834-.9987183-3.1942139-2.5004883-3.9714355-4.505249-.1053467.3595581-.2469482.7172852-.4249268,1.0731812-.7373047,1.5144653-1.9266357,2.6748657-3.5682373,3.4810791-.1416016.0581055-.2307129.0871582-.2669678.0871582-.0617676,0-.1470947-.0853271-.2559814-.2560425-.1599121-.2396851-.3723145-.473938-.6374512-.7026978,1.7033691-.6573486,2.9091797-1.6815186,3.6173096-3.0725708.2796631-.5628662.4794922-1.2202759.5992432-1.9720459h-2.4296875Z"/>
          <path class="cls-1" d="m118.2183838,63.0748901c1.3656006-.515686,2.3026123-1.2220459,2.8110352-2.1191406h-1.1166992l-1.1386719.0217896c-.0617676,0-.0998535-.0072632-.1143799-.0217896-.0108643-.0109253-.0163574-.039917-.0163574-.0871582v-.7736206c0-.0580444.0073242-.0925903.0218506-.1035156.0144043-.0108643.0507812-.0162964.1088867-.0162964l1.1386719.0217896h1.3183594c.1488037,0,.2614746-.0181274.3377686-.0545044.0725098-.0471191.1234131-.0708008.1524658-.0708008.0762939,0,.2215576.1071777.435791.3214111.2469482.2470093.3704834.4122314.3704834.4957275,0,.0690308-.0380859.1271973-.1143799.1743164-.0944824.0653687-.197998.1925659-.3105469.3813477-.6573486,1.0859985-1.6016846,1.9557495-2.8327637,2.6094971-.1271973.0762329-.2178955.1143799-.2724609.1143799-.0544434,0-.1397705-.0890503-.2559814-.2669678-.1816406-.2904663-.355957-.4992676-.5230713-.6264648Zm10.4106445-.157959c-.1743164.156189-.3486328.4104004-.5229492.7626343-.0980225.1852417-.1762695.277832-.2342529.277832-.0509033,0-.1362305-.0326538-.2561035-.0980225-.9370117-.4685059-1.6833496-.9514771-2.2390137-1.4490967-.5847168-.5230103-1.065918-1.1421509-1.4436035-1.857666.0507812,1.3220215.0762939,2.2027588.0762939,2.6421509,0,.4284668-.1343994.7263184-.4031982.8934326-.2579346.1560669-.751709.2342529-1.4816895.2342529-.0727539.00354-.1181641.0054321-.1362305.0054321-.1016846,0-.1671143-.0217896-.196167-.0653687-.0181885-.0254517-.0489502-.1126099-.0925293-.2615356-.0908203-.3195801-.2143555-.5992432-.3704834-.8389282.2686768.0327148.59375.0490112.9750977.0490112.3776855,0,.5666504-.1124878.5666504-.3377075v-3.4811401h-1.3837891l-1.5471191.0217896c-.0654297,0-.1053467-.0072021-.119873-.0217896-.0108643-.0144653-.0163574-.0471191-.0163574-.0980225l.0218506-1.0405273v-1.8250122l-.0218506-1.0459595c0-.0544434.0072021-.0871582.0218506-.0980225.0180664-.0109253.0562744-.0163574.1143799-.0163574l1.5471191.0217896h.947876c.0726318-.1887817.1362305-.3776855.1906738-.5665894.0654297-.2432251.1016846-.4521484.1090088-.6264648.4321289.039978.829834.0925903,1.1929932.157959.0981445.0217896.1470947.0653687.1470947.1307373,0,.0509033-.0325928.1108398-.0980225.1798096-.0727539.0835571-.1217041.157959-.1470947.2233276-.0145264.0435791-.078125.2106934-.1906738.5012207h1.699707l1.5471191-.0217896c.0834961,0,.1253662.038147.1253662.1143799l-.0218506,1.0459595v1.8250122l.0108643.9370117c.2180176.1343994.4486084.2941895.6918945.4793701.1125488.0836182.1689453.1653442.1689453.2451782,0,.0690308-.0490723.1217041-.1470947.157959-.1126709.036377-.2941895.15802-.5447998.3649902-.355957.2978516-.8027344.6265259-1.34021.986084.7227783.5883179,1.6561279,1.0859375,2.8001709,1.4926758Zm-7.6757812-6.7225342v.6973267h4.8974609v-.6973267h-4.8974609Zm4.8974609,2.2935181v-.7136841h-4.8974609v.7136841h4.8974609Zm-.512085.9042969h-1.1712646c.2723389.5048828.5847168.9552612.9370117,1.3510742.4393311-.3269043.8625488-.6990967,1.2692871-1.1168213.0981445-.0980225.1652832-.1724243.2015381-.2233276l-1.2365723-.0109253Z"/>
          <path class="cls-1" d="m132.4969482,61.4460449l-1.3945312.0217896c-.0582275,0-.0926514-.0072632-.1035156-.0217896-.0108643-.0144653-.0163574-.0471802-.0163574-.0980835v-.8607178c0-.0617065.0072021-.0980835.0217285-.1089478.0145264-.0109253.0472412-.0163574.0981445-.0163574l1.3945312.0217896h2.9364014c-.0145264-.4176025-.036377-.7335815-.0654297-.947937l.6483154.0653687c.3377686-.2178955.6755371-.4848022,1.0133057-.8007812h-2.407959l-1.4436035.0217896c-.0799561,0-.119873-.0362549-.119873-.1089478v-.7844849c0-.0580444.0072021-.0925903.0218506-.1035156.0144043-.0108643.0471191-.0163574.0980225-.0163574l1.4436035.0217896h3.0235596c.1451416,0,.2342529-.0072021.2668457-.0217896.0762939-.0289917.1235352-.0435791.1417236-.0435791.0726318,0,.2342529.118103.4848633.354126.2070312.2178955.3104248.3777466.3104248.4793701,0,.0871582-.0454102.1470947-.1361084.1798096-.15625.079895-.3342285.2034302-.5339355.3704224-.5266113.4467163-1.0478516.8317261-1.5634766,1.1549072v.1798096h2.7891846l1.3946533-.0217896c.0581055,0,.0943604.0073242.1090088.0217896.0108643.0145264.0163574.0490112.0163574.1035156v.8607178c0,.0545044-.0064697.0880737-.019165.100769-.0126953.0127563-.0480957.019104-.1062012.019104l-1.3946533-.0217896h-2.7891846v.7245483l.0218506.9696655c0,.4430542-.1181641.7481079-.354126.9152222-.1599121.0980835-.3649902.1634521-.6156006.196106-.2397461.0327148-.6047363.0490723-1.0949707.0490723-.1816406,0-.2888184-.0145874-.3214111-.0436401-.0327148-.0290527-.0709229-.1217041-.114502-.277832-.0834961-.3123779-.1943359-.5846558-.3322754-.8171387.4431152.0435791.8406982.0653687,1.1931152.0653687.1706543,0,.2868652-.0289917.3486328-.0871582.0579834-.0580444.0871582-.157959.0871582-.2996216v-1.3945923h-2.9364014Zm.0273438-6.8914185l.6700439-.2451172c.0507812-.0217896.0906982-.0327148.119873-.0327148.039917,0,.081665.0291138.1252441.0871582.2868652.3704834.5356445.7572632.7463379,1.1604004.0218506.0472412.0327148.078125.0327148.0925903,0,.0254517-.0455322.0545044-.1362305.0871582l-.7354736.2669678h2.3208008c-.1634521-.4829712-.3759766-.947937-.6374512-1.3946533-.0217285-.0362549-.0325928-.0634766-.0325928-.081665,0-.0253906.0452881-.0545044.1361084-.0871582l.7354736-.2233887c.0471191-.0144653.081665-.0217896.1035156-.0217896.0435791,0,.0834961.0291138.119873.0871582.239624.395874.4448242.828064.6156006,1.2965698.0108643.0363159.0163574.0617676.0163574.0762329,0,.0291138-.0472412.0599365-.1417236.0926514l-.7244873.2560425h1.7214355c.1634521-.2796021.3449707-.6555176.5447998-1.1276855.0653076-.1669922.121582-.3630981.1688232-.5883789.392334.0762939.7590332.1871338,1.1004639.3323364.1053467.0472412.157959.1035156.157959.1688843,0,.0617676-.0362549.118042-.1088867.1688843-.0762939.0472412-.1470947.1326294-.2125244.2560425-.1561279.2905884-.3087158.553894-.4575195.789917h.2886963l1.4708252-.0217896c.0654297,0,.1053467.0073242.119873.0217896.0108643.0145264.0163574.0472412.0163574.0980225l-.0217285.6047363v.512085l.0217285,1.2474976c0,.0653687-.0091553.1054077-.0272217.119873-.0145264.0108643-.0509033.0163574-.1090088.0163574h-.8770752c-.0617676,0-.0980225-.0090332-.1088867-.0272827-.0108643-.0144653-.0163574-.0507812-.0163574-.1089478v-1.4708862h-7.1419678v1.4708862c0,.0618286-.0073242.0980835-.0218506.1089478-.0145264.0109253-.0472412.0163574-.0980225.0163574h-.8825684c-.0653076,0-.1053467-.0072021-.119751-.0217896-.0109863-.0144653-.0163574-.0490112-.0163574-.1035156l.0217285-1.2584229v-.4140015l-.0217285-.6918945c0-.0580444.0090332-.0925903.0272217-.1034546.0144043-.0109253.0507812-.0163574.1088867-.0163574l1.4709473.0217896h.2995605c-.1779785-.4321899-.4158936-.8479614-.713623-1.2475586-.0253906-.039917-.0380859-.0689087-.0380859-.0871582,0-.0289917.039917-.0562744.119873-.0817261Z"/>
          <path class="cls-1" d="m144.8034668,64.4204712h-.9042969c-.0544434,0-.0881348-.0063477-.1008301-.019043-.0126953-.0127563-.019043-.0463257-.019043-.100769l.0218506-4.3255005v-2.211792l-.0218506-3.0725098c0-.0653687.0072021-.1052856.0218506-.119873.0144043-.0108643.0489502-.0163574.1035156-.0163574l1.4708252.0217896h6.2321777l1.460083-.0217896c.0653076,0,.1052246.0073242.119751.0217896.0109863.0182495.0163574.0563965.0163574.1144409l-.0217285,2.68573v2.5985718l.0217285,4.3145752c0,.0580444-.0090332.0925903-.0272217.1035156-.0145264.0108643-.0509033.0163574-.1088867.0163574h-.8880615c-.0617676,0-.0980225-.0073242-.1088867-.0217896-.0109863-.0145874-.0163574-.0472412-.0163574-.0980835v-.4467163h-7.1256104v.4576416c0,.0580444-.0073242.0925903-.0218506.1034546-.0145264.0109253-.0490723.0163574-.1035156.0163574Zm.1253662-8.8307495v7.2618408h7.1256104v-7.2618408h-7.1256104Zm4.5269775,3.1705933l1.3292236-.0217896c.0617676,0,.0981445.0073242.1090088.0217896.0108643.0145264.0163574.0472412.0163574.0980225l-.0218506.5720215v.4303589c0,.2434082.0036621.3959351.0109863.4576416.0180664-.0253906.0579834-.0926514.119751-.2015991.1925049.1126099.4086914.2579346.6483154.4358521.0581055.0472412.0871582.0944824.0871582.1416016,0,.0690308-.0400391.1144409-.119873.1362305-.0472412.0181885-.1361084.0817261-.2668457.1906738-.1707764.1307373-.3796387.2832642-.6265869.4575806.3704834.1598511.7354736.2887573,1.0950928.3867798-.1343994.1271973-.2687988.3105469-.4031982.5502319-.0980225.1707764-.1761475.2560425-.2342529.2560425-.0400391,0-.1252441-.0289917-.2559814-.0871582-.8753662-.3922119-1.5744629-.8806763-2.0974121-1.4654541.00354.2797241.0108643.6083984.0218506.986084.0072021.2723389.0108643.4194336.0108643.4412231,0,.0581665-.0073242.0935669-.0218506.1062622-.0145264.0127563-.0526123.019043-.1143799.019043h-.7354736c-.0581055,0-.0925293-.0072021-.1035156-.0217896-.0108643-.0144653-.0162354-.0490112-.0162354-.1035156,0-.0144653.0072021-.4521484.0217285-1.3128662-.5556641.5447388-1.2148438.9805908-1.9775391,1.3074341-.1307373.0509033-.2088623.0762939-.2342529.0762939-.0544434,0-.1252441-.0744019-.2124023-.2233887-.1271973-.2323608-.2634277-.4230347-.4085693-.5720215,1.0640869-.3268433,1.9121094-.7572021,2.5440674-1.2910767h-.1035156l-1.34021.0217896c-.0581055,0-.0925293-.0072632-.1035156-.0217896-.0108643-.0144653-.0162354-.0490723-.0162354-.1035156l.0217285-.5665894v-.4303589l-.0217285-.5720215c0-.0580444.0072021-.0925903.0217285-.1035156.0145264-.0108643.0471191-.0162964.0980225-.0162964l1.34021.0217896h1.9393311Zm-2.5767822-.4140625l-1.4926758.0217896c-.0581055,0-.0944824-.0090332-.1088867-.0272217-.0108643-.0144653-.0163574-.0490112-.0163574-.1035156v-.5175171c0-.0580444.0090332-.0925903.0272217-.1035156.0108643-.0109253.0435791-.0163574.0980225-.0163574l1.4926758.0217896h1.0187988v-.4575806h-.512085l-1.3728027.0217896c-.0654297,0-.1054688-.0072632-.119873-.0217896-.0108643-.0144653-.0163574-.0490112-.0163574-.1035156v-.5338745c0-.0580444.0090332-.0925903.0272217-.1035156.0145264-.0108643.0507812-.0163574.1090088-.0163574l1.3728027.0217896h.512085c-.0181885-.319519-.038208-.5393066-.0599365-.6591797.3449707.0109253.6845703.036377,1.0186768.0762939.1270752.0217896.1906738.0599365.1906738.1143799,0,.0217896-.0217285.0762939-.0653076.1634521-.0327148.0690308-.0490723.1707764-.0490723.3050537h.6810303l1.383667-.0217896c.0581055,0,.0943604.0073242.1090088.0217896.0108643.0145874.0162354.0472412.0162354.0980835v.5338745c0,.0617676-.0090332.0980835-.0272217.1089478-.0108643.0109253-.0435791.0163574-.0980225.0163574l-1.383667-.0217896h-.6810303v.4575806h1.1712646l1.4871826-.0217896c.0581055,0,.0926514.0073242.1035156.0217896.0109863.0145874.0163574.0472412.0163574.0980835v.5175171c0,.0618286-.0073242.0999146-.0217285.1144409-.0146484.0108643-.0472412.0162964-.0981445.0162964l-1.4871826-.0217896h-3.2250977Zm3.001709,1.5580444v-.4957275h-2.8110352v.4957275h2.8110352Zm-.4249268.6265259h-.1960449c.2178955.2069702.4665527.3995361.7463379.5774536.2432861-.1779175.4702148-.3631592.6809082-.5556641-.2106934-.0144653-.6209717-.0217896-1.2312012-.0217896Z"/>
        </g>
      </g>
      <g>
        <path class="cls-1" d="m0,50.8510132c.1524658-.2202148.3640137-.4317627.6350098-.6349487.2369385-.1694946.6350098-.482605,1.1938477-.9398193-.0341797-.1524048-.0507812-.2965088-.0507812-.4318237,0-.0848999.0507812-.1777954.1523438-.2794189.5588379-.7619629,1.1342773-1.5239868,1.7271729-2.2860107.1524658-.2539673.5080566-.6349487,1.0668945-1.1430054l-2.133667-.5079956,2.1844482-1.3969727-2.133667-2.0828247.0761719-.8635864.0509033-.7366333c.2539062-.6262817.3809814-1.0667725.3809814-1.3208008v-.8128052c0-.2706909.1607666-.482605.4825439-.6350098l.2540283-.1524048.4317627.0762329.0762939-.0253906c.0507812-.1016235.0761719-.1861572.0761719-.2540283,0-.1353149-.2032471-.3809814-.6096191-.7366333v-.685791l-.7365723.1777954-.2032471-.203186c.1182861-.4063721.1778564-.6604004.1778564-.7620239l-.0762939-1.168396.1270752-2.2351685c0-.0845337-.0761719-.4993286-.2286377-1.2446289.1182861-.4064331.1861572-.7703247.2032471-1.0922241h.3555908c0-.4230347.1015625-.8635864.3048096-1.3208008-.5588379-.0845337-.8382568-.2452393-.8382568-.482605,0-.1015625.0338135-.2794189.1015625-.5333862.0338135-.1861572.0509033-.541748.0509033-1.0668335v-.7873535c.0166016-.2706909.0253906-.473877.0253906-.6096191,0-.1861572-.0170898-.3468628-.0507812-.482605-.0678711-.1861572-.1016846-.3131714-.1016846-.3810425,0-.0674438.0507812-.1860962.1524658-.3555908h.4571533l.1015625-.4063721-.4063721-.1016235v-.1777954c.0167236-.2198486.0845947-.4230957.2032471-.6096191l.3302002-.4571533c0-.0337524.1015625-.0762329.3048096-.1270142l.0761719-.3302002-.5842285-.2540283.2032471-.7111816c-.2373047.1524048-.4488525.2285767-.6350098.2285767-.2373047,0-.3555908-.1777954-.3555908-.5333862,0-.0337524.0336914-.3893433.1015625-1.0668335v-.0253906l-.1269531-2.0319824v-1.0668335c0-.203186-.0087891-.4484253-.0253906-.7365723v-.3555908c0-.3723145.0761719-.8549194.2285156-1.4478149l-.3048096-.3302002v-2.2098389c.1016846-.0337524.1563721-.0634766.1651611-.0888672.0083008-.0254517.0209961-.232605.0380859-.6223145-.2373047-.4230957-.3555908-.7195435-.3555908-.8890381v-.3048096c-.2373047-.2877197-.3555908-.473877-.3555908-.5587769l-.0253906-.9906006c-.0507812-.4909668-.0849609-.8128052-.1016846-.96521-.0169678-.2198486-.1523438-.4909058-.4063721-.8128052l-.4571533-.1016235-.2540283-.7619629c.3723145-.1861572.6179199-.3131714.7365723-.3810425.4064941-.203186.8128662-.3214722,1.2192383-.3555908l.4317627-.203186.482666-.2285767.4063721-.4064331.3048096-.1270142c.8636475-.3722534,1.5152588-.5587769,1.9558105-.5587769.3723145,0,.5588379.1611328.5588379.482605v.7619629l.1523438.6350098c-.2202148.3048096-.3302002.5675659-.3302002.7874146,0,.1865234.0167236.4318237.0507812.7366333.0167236.3048096.0421143.7536621.0762939,1.3461914h.0761719v.1777954c-.2373047.0678711-.4151611.1016235-.5334473.1016235-.1015625,0-.2456055-.0166626-.4317627-.0508423l-.1015625.1016235c-.0341797.3048096-.2286377.5504761-.5842285.7366333l.5587158.8635864.6350098-.1016235.3811035.6604004h.2539062l.0762939.0508423c-.2374268.4063721-.6350098.8806152-1.1938477,1.4223633l-.3048096,1.6764526-1.1938477,1.3208008.3555908.9906006.2286377,3.3527832c.0507812.1187134.338501.288147.8636475.5079956.4909668.2032471.7365723.4151611.7365723.6350098l-.0253906.0508423c-.0170898.0848999-.0595703.2202148-.1269531.4063721l-.3811035.0762329c.3894043.3555908.5842285.9822388.5842285,1.8795776,0,.3389282-.2626953.6604004-.7873535.96521.1861572.3726807.3214111.6183472.4063721.7366333.2540283.4742432.3809814.8552246.3809814,1.1430054,0,.0170288-.0761719.2964478-.2286377.8381958l.0255127.203186v.0253906c-.0170898.0507812-.0255127.1948853-.0255127.4318237.0167236,1.4394531.0084229,2.3963013-.0253906,2.8701782v.6096191c0,.4572144.0084229.9060669.0253906,1.3461914.0167236.1524048.0255127.288147.0255127.4064331,0,.0848999-.0255127.1865234-.0762939.3048096l-.0253906-.1016235-.5333252.3809814c.0673828.5250854.2877197.96521.6604004,1.3208618l-.0762939.2793579.1016846,3.6068115.0253906.4064331v.4572144c0,.203186-.1270752.8723145-.3809814,2.0065918l-.0762939,1.3461914-.2539062.3810425c-.0170898.0341187-.0341797.1948242-.0509033.4825439-.0848389.4743042-.144043.8636475-.1777344,1.168457l.5842285-.0762329c.1690674.4909668.2539062.7703247.2539062.8381958l-.0507812,3.987854c0,.3555908.1861572.5841675.5588379.685791.2877197.0674438.541748.194458.7619629.3809814.1690674-.0170288.3132324-.0253906.4318848-.0253906.1182861,0,.3892822.0591431.8127441.1777954l.9906006.1016235,1.7017822.3809814h1.4986572l.8128662,1.1430054,2.1081543-1.0159912.8890381.1524048.685791.0761719.685791.2286377c.0166016,0,.3302002-.0508423.9398193-.1524048.1015625-.0170898.194458-.0253906.2794189-.0253906.1352539,0,.5162354.0761719,1.1429443.2285767.8128662-.1357422,1.2446289-.203186,1.2954102-.203186.2369385,0,.6604004.0337524,1.2700195.1015625.2198486.0167236.4230957.0254517.6096191.0254517.2198486,0,.6008301-.0595703,1.1429443-.1777954l1.2446289-.1016235c.7957764-.1524048,1.642334-.2627563,2.5400391-.3302002.3723145-.0170898.6262207-.0595093.7619629-.1270142.2369385-.0848999.4147949-.1270142.5334473-.1270142.0507812,0,.2877197.3977051.7111816,1.1938477.0167236.0166626.0421143.0253906.0761719.0253906.2369385,0,.473877-.2202759.7113037-.6604004.1181641-.2202759.1777344-.6012573.1777344-1.1430054.5754395-.1524048.956543-.2710571,1.1430664-.3555908,1.0496826-.4743042,1.7017822-.7112427,1.9558105-.7112427l.1269531.0253906c-.0170898.5080566-.0761719.8294678-.1778564.96521l-.4063721.5334473-.8890381,1.2954102c-.3555908.338501-.6436768.6516724-.8635254.9397583h-.6096191l-.2794189.5079956-1.6002197-1.2191772-3.4035645,1.2446289-.2032471-.0762329c-.2880859-.0848999-.8636475-.1270142-1.7271729-.1270142h-.0761719c-.1357422,0-1.5157471.0928955-4.1402588.2794189l-1.6763916-.2285767c-.6096191.1015625-.9232178.1524048-.9398193.1524048-.3726807,0-.7199707-.1524048-1.0413818-.4572144-.5588379-.5079956-.8469238-.7620239-.8636475-.7620239l-2.6416016,1.0159912-.6350098-.1269531-.6096191-.0508423-.6350098-.0761719c-1.1175537-.0341187-1.8033447-.0678711-2.057373-.1016235l.2794189-.1777954h-1.0668945l-.1523438.5333862c-.3218994-.1694336-.5334473-.2964478-.6350098-.3809814-.2540283-.1524048-.550415-.2540283-.8890381-.3048096-.5421143.4572144-1.1517334.685791-1.8287354.685791-.3897705,0-.8636475-.0507812-1.4224854-.1524048-.4234619.2877808-.8723145.4318237-1.3461914.4318237-.1357422,0-.4234619-.0595093-.8635254-.1777954-.6945801-.1186523-1.2871094-.2540283-1.7780762-.4064331Z"/>
        <path class="cls-1" d="m38.6917725,25.4509277c0-.2369385.2540283-.5588379.7619629-.96521,1.1176758-.8636475,2.0828857-1.4307251,2.8956299-1.7018433l.762085.7874146c-.1695557.4234619-.3048096,1.0159912-.4064941,1.7780151-.1015625.6266479-.1523438,1.0076904-.1523438,1.1430054v.9398193l-.4318848.6096191c0,.4234619.1861572.829834.5588379,1.2191772-.1015625.1865234-.1523438.2964478-.1523438.3302002l.0507812,1.2446289-.0253906.2793579c-.0170898.1187134-.0253906.3135376-.0253906.5842285l-.1270752,4.8514404c.0167236.2539673.1270752.8381958.3302002,1.7525635l.0509033,1.0668335c.1015625.5079956.1523438.8044434.1523438.8889771,0,.3556519-.1523438.6774902-.4571533.96521-.0849609.0849609-.4064941.3048096-.96521.6604004-.8469238.6604614-1.3295898,1.0160522-1.447876,1.0668335-.1694336.0674438-.3218994.1016235-.4571533.1016235-.2032471,0-.4063721-.1016235-.6096191-.3048096.0675049-.4230957.1098633-.7025146.1269531-.8381958.0167236-.2032471.1099854-.5755005.2794189-1.1176147l.0253906-1.2446289.1778564-2.4891968-.0253906-.4572144c.0166016-.2706909.1523438-.4063721.4063721-.4063721.0675049,0,.1523438.008728.2540283.0253906.0844727-.2706909.1269531-.4572144.1269531-.5588379,0-.1353149-.0507812-.397644-.1523438-.7874146-.0509033-.1690674-.1016846-.4063721-.1524658-.7111816l-.4317627-.3302002c.0507812-.3722534.0761719-.6516724.0761719-.8381958,0-.0845337-.008667-.2115479-.0253906-.3809814v-.3556519c0-.2198486.0845947-.4655151.2540283-.7365723-.1694336-.203186-.2540283-.4147339-.2540283-.6350098v-.3809814l-.0507812-.5842285c1.1004639-.203186,1.651001-.3809814,1.651001-.5333862,0-.0166626-.0170898-.0420532-.0507812-.0762329-.2540283-.2198486-.5675049-.3302002-.9398193-.3302002-.2711182,0-.6013184.0170898-.9906006.0508423.0507812-.2540283.0761719-.4230957.0761719-.5079956,0-.0337524-.0678711-.8719482-.2032471-2.5146484-.0169678-.203186-.1777344-.3893433-.4825439-.5587769Zm.4571533-10.2362671v-.0253906c-.0340576-.5925293.3977051-1.2359009,1.2954102-1.9304199.2032471-.1524048.4230957-.3722534.6604004-.6604004.0167236-.0166626.1861572-.1524048.5080566-.4064331.6262207-.9310303,1.0159912-1.4478149,1.168457-1.5493774.2539062-.1861572.4654541-.2794189.6348877-.2794189.0675049,0,.2624512.1270142.5842285.3809814.3215332.2373657.482666.5250854.482666.8636475,0,.2710571-.1524658.5079956-.4572754.7111816-.7790527.5588379-1.5239258,1.168396-2.2352295,1.8287964l-.7111816.4572144-.888916.6096191c-.4743652.2539673-.7453613.3809814-.8128662.3809814-.1523438,0-.2286377-.1270142-.2286377-.3809814Z"/>
        <path class="cls-1" d="m50.0782471,1.8034058c.2540283-.0675049.4655762-.1607666.6350098-.2794189.4063721-.2706909.7194824-.4484863.9398193-.5333862.4571533-.2032471.880249-.5334473,1.2700195-.9906006h.2285156c.3894043,0,.5842285.2285767.5842285.685791v.0507812c0,.1016235-.008667.2119141-.0253906.3302002-.0170898.0849609-.0253906.1357422-.0253906.1524048l.2540283.8890381-.1015625,2.133606c-.0170898,1.371582-.0341797,2.0914917-.0509033,2.1589966-.0340576.1694336-.1777344.3980713-.4317627.685791l-.1523438.8128052.5333252.0762329c.1016846.4234619.1524658.7282715.1524658.9143677,0,.3218994-.1778564.6604004-.5334473,1.0159912-.0341797.4743042-.0507812.7791138-.0507812.9144287,0,.1865234.1099854.3726807.3302002.5587769.0167236.3218994.0253906.5588379.0253906.7112427l-.1269531,3.1749878v3.2258301c0,.1694946-.1524658.4996948-.4572754.9906006-.1015625.1865234-.1523438.3555908-.1523438.5079956,0,.0341187.1182861.4572144.3555908,1.2700195v.1270142c0,.2539673-.1778564.5421143-.5334473.8635864l.5588379,1.2192383.2794189.203186v1.5747681l.0761719,5.7150269-.4571533.2794189c.0507812.3726807.0761719.6774902.0761719.9144287,0,.0678711-.0507812.4742432-.1524658,1.2191772v.685791l.7874756.1016235-.0761719.1777954.4571533,4.1402588-.0507812,1.0667725.1523438.7620239c-.3388672.5421143-.5079346.8381958-.5079346.8889771,0,.0849609.0419922.1948853.1269531.3302002-.3388672.1357422-.8127441.3897705-1.4223633.7620239-.3555908.203186-.5548096.3135376-.5969238.3302002-.0424805.0170898-.2075195.0253906-.4953613.0253906-.4063721.3214722-.7365723.482605-.9906006.482605-.0678711,0-.1865234-.0341187-.3555908-.1016235.0167236-.2539673.0253906-.4655151.0253906-.6349487,0-.1690674-.0340576-.4318237-.1015625-.7874146-.0341797-.1524048-.0507812-.2877808-.0507812-.4064331,0-.0507812.0675049-.3131104.2032471-.7874146l.0507812-.5587769.1015625-.7620239-.0761719-.482605,2.1335449-1.371582-2.057373-1.4224243.0507812-.3302002.1778564-.9143677.2285156-.6350098c0-.0337524-.1523438-.338562-.4571533-.9144287-.0507812-.1016235-.0761719-.194458-.0761719-.2794189,0-.0507812.1269531-.4063721.3809814-1.0667725.1861572-.4909668.2877197-.9481201.3048096-1.3716431l-.5842285-.3047485v-.8636475c-.0341797-.3893433-.0507812-.6433105-.0507812-.7619629,0-.0508423.0928955-.4230957.2794189-1.1176147.0166016-.0675049.0253906-.2032471.0253906-.4064331,0-.5925293-.0341797-1.2529297-.1015625-1.9812012-.0341797-.2706909-.0509033-.5079956-.0509033-.7111816,0-.1690674.135376-.5501099.4064941-1.1430054.0166016-.5246582.0673828-.9398193.1523438-1.2446289l-.5334473-.6350098v-5.5880127c.2199707-.1690674.3640137-.338562.4318848-.5079956.1015625-.2877197.2369385-.6179199.4063721-.9906006-.3555908-.135376-.6436768-.2877808-.8636475-.4572144.1182861-.473877.1778564-.7703247.1778564-.8890381,0-.1690674-.1524658-.338501-.4571533-.5079956-.0509033-.2369385-.0762939-.541687-.0762939-.9143677l-.0253906-1.0414429c0-.1353149.1182861-.397644.3555908-.7873535.0507812-.0675049.0762939-.135376.0762939-.2032471,0-.0336914-.046875-.1987915-.1397705-.4953003-.0932617-.2960815-.1484375-.4528198-.1650391-.4699097l-.0762939-.1524048,1.9050293-1.3461914-1.2954102-1.7526245c-.6604004-.880249-.9906006-1.3969727-.9906006-1.5493774,0-.1353149.0507812-.4147339.1524658-.8381958.0507812-.1861572.0927734-.4655762.1269531-.8381958Z"/>
        <path class="cls-1" d="m75.4603271,24.053894l.8127441-.5079956c.2540283.3048096.4318848.4996948.5334473.5842285.0336914.0341187.2115479.1186523.5334473.2539673.1690674.0849609.8973389.7961426,2.1843262,2.133606.4064941.4234619.6859131.8215332.8382568,1.1938477.135376.3218384.2794189.7111816.4317627,1.168396.1016846.2373047.2199707.5421143.3555908.9143677l-.1777344.1777954c-.1865234-.0336914-.4405518-.1099243-.7619629-.2285767l-.96521.3555908-.8636475-.1524048-.7619629.2032471c-1.0501709-.7449951-1.6002197-1.1176147-1.651001-1.1176147-.1016846,0-.4997559.347229-1.1938477,1.0413818-1.0838623-.203186-1.65979-.3048096-1.7271729-.3048096-.2711182,0-.5930176.0253906-.96521.0762329l-.1270752-.1016235c-.2709961.0341187-1.0076904.0507812-2.2098389.0507812l-.9396973.1016235-1.168457.1016235-1.1938477.203186-1.0667725-.0253906c-.9822998.3048096-1.651001.482605-2.0065918.5333862-.0849609.5758667-.1694336.973938-.2540283,1.1937866-.1015625.2540283-.3048096.5334473-.6096191.8381958.541748.3726807.8294678.6350098.8636475.7874146.1690674,1.0838623.3302002,1.8121338.4825439,2.1844482l.4572754.2539673-.1270752.9398193.7874756.203186c.1690674.694519.3892822,1.1600952.6604004,1.3970337.2540283.2202759.677002.3726807,1.2700195.4572144.0844727.5250244.2198486.8381958.4063721.9397583.135376.1016235.4401855.1694946.9144287.2032471l.4317627.6604004c.1861572-.0337524.3469238-.0508423.482666-.0508423.1015625,0,.6094971.2119751,1.5239258.6350098.2032471.1016235.4230957.1524048.6604004.1524048.2198486,0,.6517334-.1016235,1.2954102-.3048096l1.6256104-.1777954,1.2446289-.3555908c.5925293-.0337524.9906006-.0845337,1.1938477-.1524048.2877197-.1182861.8127441-.4147339,1.5748291-.8889771.744873-.4572144,1.1766357-.7703857,1.2954102-.9398193.3046875-.3555908.5925293-.7620239.8635254-1.2192383.135376-.203186.3723145-.3048096.7111816-.3048096.1524658,0,.3723145.1103516.6604004.3302612-.1186523.6095581-.2285156,1.0076294-.3302002,1.1937866-.7111816,1.2025146-1.1600342,1.998291-1.3461914,2.3875732-.2202148-.1015625-.4063721-.1523438-.5587158-.1523438-.1016846,0-.3811035.1694336-.8382568.5079956-.3048096.203186-.685791.3218384-1.1430664.3555908-1.0500488.288147-1.7779541.4572144-2.1843262.5079956-.6945801.0678711-1.1346436.1270142-1.3208008.1777954-.5251465.1694946-.7961426.2540283-.8128662.2540283l-1.4985352-.2286377-.8890381.1524048-.4317627.0253906c-.4064941.0508423-.7199707.0762329-.9398193.0762329-.2203369,0-.8382568-.0591431-1.854248-.1777954l-.4825439-.0508423-.5334473-.3302002c-1.2700195-.3893433-1.9729004-.6179199-2.1082764-.685791-.0848389-.0507812-.3725586-.3048096-.8635254-.7620239-.0341797-.0336914-.3302002-.2198486-.8890381-.5587769-.4742432-.2877197-.7282715-.5079956-.7619629-.6604004l-.4572754-.8128052c-.0678711-.1353149-.3555908-.4572144-.8635254-.96521.1690674-.2706909.2539062-.473877.2539062-.6096191,0-.0507812-.2202148-.5246582-.6604004-1.4223633-.1186523-.2369385-.1777344-.9564819-.1777344-2.1590576,0-.3722534.1182861-.9818726.3555908-1.8287964.2032471-.6604004.3469238-1.0413818.4317627-1.1430054l.8636475-1.0159912.5588379-1.1937866c.5754395-.541748,1.2358398-1.1513672,1.9812012-1.8288574l1.854126-1.1430054,1.8796387-1.2954102.685791-.1269531,1.9304199-.6096191,1.2446289-.1016235c.9989014-.3722534,1.5494385-.5587769,1.651001-.5587769.9481201,0,1.5914307.4488525,1.9304199,1.3461914Zm-2.9464111,3.8099976l.4317627.5334473c.338623-.0675049.5671387-.1099243.685791-.1270142.4572754-.0674438.9144287-.1861572,1.3717041-.3555908l1.4477539.1270142c.0167236,0,.059082-.0845337.1269531-.2540283.0167236-.1016235.0253906-.1861572.0253906-.2540283,0-.1523438-.1015625-.338501-.3046875-.5587769-.0341797-.0337524-.1187744-.1353149-.2540283-.3048096-.4063721-.541748-.6604004-.7957153-.762085-.7620239l-.8381348-.4063721c-.1015625-.0507812-.2626953-.2453003-.482666-.5842285-.491333-.0674438-1.3294678-.1015625-2.5145264-.1015625l-.5080566-.0253906-.8636475.5079956c-.0340576.0341187-.4996338.1524048-1.3969727.3555908-.7111816.2539673-1.3378906.4996338-1.8796387.7365723-.1186523.0849609-.4488525.3726807-.9906006.8636475-.1015625.0848999-.2963867.2373047-.5841064.4572144v.1523438l.0507812.0508423,1.854126.7365723.5588379.5588379.9906006-1.1938477c.0845947-.0674438.1778564-.1015625.2794189-.1015625.0507812,0,.4655762.1102905,1.2446289.3302002h.0507812c.2198486,0,.7025146-.0845337,1.4477539-.2540283.1690674-.0507812.4401855-.0928345.8128662-.1270142Z"/>
        <path class="cls-1" d="m87.7359619,25.5778809c.1015625-.3722534.2706299-.6604004.5079346-.8635864.4063721-.3722534,1.0581055-.8128052,1.9558105-1.3208008.3048096-.1690674.473877-.2540283.5080566-.2540283.0673828,0,.194458.0933228.3809814.2794189.0844727.1016235.2198486.203186.4063721.3048096.0675049.4064331.1099854.6691284.1269531.7874146.0845947.4405518.1270752.7028809.1270752.7874146,0,.3218384-.0341797.7028809-.1015625,1.1430054l.0761719.0761719c.5079346-.1015625.8127441-.194458.9144287-.2793579.1352539-.0508423.3638916-.3048096.685791-.7620239.3555908-.0337524.5925293-.1099243.7111816-.2286377.0336914-.0336914.1607666-.1860962.3809814-.4571533.7111816-.3893433,1.2954102-.6350098,1.7525635-.7366333.7113037-.1861572,1.2700195-.3809814,1.6765137-.5841675.0166016-.0167236.059082-.0254517.1269531-.0254517.3555908,0,.5334473.3302002.5334473.9906006h.7365723v-.7111816c.3721924-.203186.7619629-.3131104,1.168335-.3302002.4064941-.0845337.6263428-.1270142.6604004-.1270142.473877,0,.9057617.2710571,1.2954102.8128052.0845947.1186523.2878418.6691284.6096191,1.651001.0507812.1865845.1778564.2794189.3809814.2794189.0845947,0,.3048096-.2285767.6605225-.685791.1860352-.2198486.541626-.4318237,1.0667725-.6350098,1.1342773-.677063,1.7946777-1.0159912,1.9812012-1.0159912.0166016,0,.2960205.0424805.8381348.1270142l.8128662-.2286377,1.3461914-.0507812.7873535-.0762329.9398193.3302002.8382568.2540283c.6096191.3218384.9818115.5675049,1.1175537.7365723l.0762939.6096191c-.2540283.0508423-.3811035.1777954-.3811035.3810425,0,.1015625.0421143.2373047.1270752.4063721h.5333252c.0845947.3218384.135376.829895.1524658,1.5239868l.2032471.7620239v3.0480347c0,.1694336-.1524658.5167236-.4572754,1.0413818-.0678711.1016235-.1015625.2456665-.1015625.4318237,0,.1524048.1098633.5928955.3302002,1.3208008.0336914.1186523.0507812.2539673.0507812.4063721,0,.0849609-.0253906.3048096-.0761719.6604004v.0762329c0,.1357422.059082.7620239.1777344,1.8795776l-.5079346.4064331v.5333862c.0844727-.0166626.1606445-.0253906.2285156-.0253906.1016846,0,.1945801.0678711.2794189.203186-.0170898.4405518-.0340576.7282715-.0507812.8636475-.0170898.2202148-.0253906.3980713-.0253906.5333862,0,.3389282.1269531.7790527.3809814,1.3208008-.3726807.3218384-.9144287.6266479-1.6256104.9144287-.8806152.6266479-1.3886719.9397583-1.5239258.9397583-.1866455,0-.4064941-.0253906-.6604004-.0761719-.0341797-.3893433-.0509033-.7449341-.0509033-1.0668335,0-.2539673.0845947-.7532349.2540283-1.4985962.0338135-.1524048.0507812-.2960815.0507812-.4318237,0-.0674438-.0507812-.4655151-.1523438-1.1937866-.0170898-.0674438-.0253906-.1353149-.0253906-.203186,0-.0675049.0761719-.6687622.2285156-1.8034058l.0509033-.9906006c.3214111-.6096191.4825439-.9989624.4825439-1.168396,0-.1182861-.1694336-.3977051-.5079346-.8382568-.0341797-.0336914-.0509033-.059082-.0509033-.0761719l.9398193-.5333862.4572754-.2794189-1.3970947-1.0922241c.270752-.4230347.4572754-.96521.5588379-1.6256104-.3555908-.3048096-.5421143-.4992676-.5588379-.5841675-.203125-1.3545532-.3726807-2.2098389-.5079346-2.5654297-.3218994-.338562-.7874756-.9398193-1.3969727-1.8034058-.1866455-.2540283-.6604004-.3809814-1.4224854-.3809814-.4234619,0-.770752.0595093-1.0413818.1777954l-.9398193.482605-.4317627.1269531-.4572754.4572144c-.4742432.2373657-.8127441.491333-1.0159912.7620239-.3048096.4572144-.550415.8215332-.7365723,1.0922241v1.7780151c-.4405518.1694336-.6604004.3643188-.6604004.5841675,0,.1865234.194458.3809814.5842285.5842285.0507812.7453003.0844727,1.2362671.1015625,1.4732056.0675049.8128052.1015625,1.4819336.1015625,2.0065918,0,.203186-.0253906.491333-.0761719.8635864l-.685791-.1015625-.1523438.1269531c.0336914.1524048.2198486.4659424.5587158.9398193.1016846.1524048.1524658.3048096.1524658.4572144v.5079956c-.0170898.4234619-.0341797.685791-.0507812.7874146h.0507812c.2706299.9822998.4063721,2.0153198.4063721,3.0988159,0,.2373047-.1523438.4659424-.4571533.685791-.1016846.0678711-.4318848.2794189-.9906006.6350098-1.0330811.3897095-1.5836182.5842285-1.651001.5842285-.0170898,0-.0595703-.0083618-.1270752-.0253906-.1357422-.2540283-.203125-.482605-.203125-.6858521v-.0253906c-.0170898-.2369385,0-.5841675.0507812-1.0413818.0336914-.473877.0507812-1.2105103.0507812-2.2098389,0-.6433105.0419922-1.1513062.1269531-1.5239868h.0761719l.4318848-.4318237c0-.2877197-.0424805-.5162964-.1270752-.685791l-.3302002-.9144287-.2792969-.6349487.0253906-.4064331c.0336914-.7278442.0673828-1.168396.1015625-1.3208008.5246582-.3722534.7873535-.7111816.7873535-1.0159912,0-.3214722-.2709961-.5163574-.8127441-.5842285-.0678711-.3893433-.1015625-1.3120728-.1015625-2.7686157-.2032471-.9481201-.3643799-1.5323486-.482666-1.7526245-.2032471-.3047485-.5167236-.4484253-.9398193-.4317627h-.0761719l-.7111816.1777954v-.1270142l-.5080566-.6096191c-.3218994.2373657-.5250244.3643799-.6096191.3810425l-1.2191162.2793579c-.8636475.3218994-1.3463135.491333-1.447876.5079956-.1694336.0170898-.4659424.0508423-.8890381.1016235-.4063721.5929565-.7452393,1.2192383-1.0159912,1.8796387-.1357422.3555908-.203125.5758667-.203125.6604004v1.1176147l-.1524658.8889771.1524658.9144287v.0253906c-.0507812.491333-.0849609.9568481-.1016846,1.3969727l-.6604004.3810425c.4401855.5250244.6688232.8552246.685791.9906006.0338135.1524048.0509033.6183472.0509033,1.3969727l-.0509033.8381958c0,.0341797.0084229.1270142.0255127.2794189.0507812.6604004.0844727,1.2616577.1015625,1.8034058.0166016.8469238.0761719,1.5327759.1777344,2.0574341-.3726807.1357422-1.0667725.5079956-2.0827637,1.1176147-.1694336.1015625-.3726807.1524048-.6096191.1524048-.1694336,0-.3897705-.0341797-.6604004-.1016235-.0170898-.1182861-.0253906-.1861572-.0253906-.203186l.0507812-.9398193-.0253906-1.371582v-1.3208618l-.0507812-.5333862c0-.0845337.1690674-.3555908.5079346-.8128052.0167236-.0166626.0255127-.0420532.0255127-.0761719,0-.135376-.1778564-.2794189-.5334473-.4318237-.0341797-.2706909-.0507812-.5163574-.0507812-.7365723,0-.1861572.2198486-.6262817.6604004-1.3208618.0336914-.0336914.0507812-.2623291.0507812-.685791h-.4317627c-.1524658-.4909058-.2286377-.880249-.2286377-1.168396,0-.3214722.0507812-1.0159912.1523438-2.0828247h.2032471l.1269531-.1269531c-.0169678-.3723145-.0340576-.6262817-.0507812-.7620239-.0170898-.5755005-.144043-1.0581055-.3809814-1.4478149-.0507812-.1016235-.1103516-.6350098-.1777344-1.6002197-.0341797-.3893433-.1524658-.9056396-.3557129-1.5493774-.2202148-.0166626-.4234619-.0845337-.6094971-.2032471Z"/>
        <path class="cls-1" d="m120.7634277,35.7379761c0-1.1176147.0675049-1.9304199.203125-2.4384155.135376-.4401245.3723145-1.1088867.7113037-2.0066528.6940918-1.2866211,1.0921631-2.0148926,1.1937256-2.1843872.1016846-.1524048.4909668-.4484863,1.168457-.8889771.0166016-.0166626.1436768-.2706909.3809814-.7620239.1524658-.2706909.2794189-.4318237.3809814-.482605.1861572-.1524048.8382568-.4992676,1.9558105-1.0413818.3555908-.1690674.762085-.4909668,1.2192383-.96521.0675049-.0675049,1.0834961-.4655762,3.0479736-1.1938477,1.0159912-.3892822,2.4975586-.5841675,4.4450684-.5841675.3892822,0,.8973389.0678711,1.5240479.203186l.1015625.5333862c.2369385.1016235.4401855.2202759.6096191.3556519.2540283-.0845947.4571533-.3048096.6096191-.6604614.9310303.2032471,1.7438965.5421753,2.4383545,1.0160522.5246582.3218384.821167.5250244.8890381.6095581.0336914.0508423.203125.34729.5079346.8890381.338623.5250854.9144287.7961426,1.7272949.8128052.4063721.6774902.6643066,1.177124.7746582,1.4985962.1099854.3218994.2159424.8635864.3175049,1.6256104.1015625.7790527.1778564,1.3886719.2286377,1.8287964h-.4063721v.3048096l-.5080566.5842285c.0675049.2880859.3048096.5587769.7111816.8128052-.0507812.7453003-.1015625,1.2532959-.1523438,1.5239868-.0341797.1186523-.1611328.4151611-.3809814.8889771-.626709,1.4732666-1.0668945,2.4130249-1.3209229,2.819458-.8977051,1.0838623-1.7188721,1.7442627-2.4637451,1.9812012l-1.371582.685791-1.2954102.6096191c-.6774902.3726807-1.0755615.5714722-1.1938477.5969238-.1186523.0253906-.9398193.0805664-2.4637451.1651001l-1.7780762.3809814h-1.8033447l-.8128662.1015625c-1.4902344-.2539673-2.4217529-.3897095-2.7940674-.4063721-.2373047-.2706909-.4150391-.4318237-.5333252-.482605-.0341797-.0166626-.3643799-.0761719-.9906006-.1777954-.3389893-.0674438-1.0076904-.4318237-2.0065918-1.0922241-.1524658-.0845337-.4572754-.2539673-.9144287-.5079956-.1015625-.3048096-.1694336-.5163574-.2032471-.6350098-.0678711-.1860962-.1357422-.3131104-.203125-.3809814-.0170898,0-.1949463-.1182861-.5334473-.3555908-.0170898,0-.0761719-.0762329-.1778564-.2286377-.3725586-.5925293-.5587158-1.1850586-.5587158-1.7780151,0-.2877197.1777344-.5587769.5333252-.8128052-.1523438-.2706299-.4150391-.4909058-.7873535-.6604004l-.0253906-.1015625Zm2.7939453-.5079956v.2539673l.2286377.2286377c.1690674-.1524048.338501-.2369385.5080566-.2540283.1352539.5758667.2539062,1.0159912.3555908,1.3208008.0844727.1865234.5246582.9231567,1.3208008,2.2098389.0166016.0341187.0253906.0848999.0253906.1524048,0,.1524048-.0849609.3980713-.2540283.7365723.0675049.2373657.2961426.3643188.685791.3809814.1690674-.1690674.3131104-.2539673.4318848-.2539673.1015625,0,.8464355.3555908,2.2351074,1.0667725.5925293.288147,1.1938477.4318237,1.8034668.4318237h1.4986572l.7619629.1777954c.3214111.0849609.6008301.1270142.8381348.1270142.3894043,0,.8294678-.0591431,1.3208008-.1777954.3215332-.0845337.7874756-.1861572,1.3970947-.3048096.1690674-.0507812.744873-.4147339,1.7271729-1.0922241.6604004-.2198486,1.0327148-.3722534,1.1176758-.4571533.1181641-.135376.4400635-.6350098.9650879-1.4986572l.6350098-1.2699585c.4230957-.4064331.6688232-.6604004.7366943-.7620239.0673828-.1182861.1015625-.2794189.1015625-.482605-.2711182-.4064331-.3980713-.677063-.3809814-.8128052v-.0253906l.1015625-.5079956c.0336914-.7786865.135376-1.4136963.3048096-1.9050293-.1357422-.3214722-.2965088-.8294678-.4825439-1.5239868l-.4064941-1.3208008c-.0340576-.1691284-.0594482-.5163574-.0761719-1.0414429l-.1015625-.1015625h-.6096191c-.1865234-.3556519-.5675049-.8890381-1.1430664-1.6002197-.3388672-.4230957-.5294189-.6560669-.5714111-.6985474-.0424805-.0420532-.2076416-.1226196-.4953613-.241272-.2373047-.1016235-.6604004-.2706909-1.2700195-.5079956-.1694336-.5925293-.4405518-.8890381-.8127441-.8890381-.1016846,0-.3643799.0849609-.7874756.2540283-.5250244-.1353149-.8215332-.203186-.888916-.203186-.8807373,0-1.456543.0170288-1.7272949.0507812-.2880859.0170898-.7282715.2119141-1.3208008.5842285l-.5333252-.3810425c-.2540283.3389282-.4488525.5421753-.5842285.6096191l-1.0922852.5587769-.1777344.2032471-3.0479736,2.5653687-.2286377.1777954c-.0341797.4743042-.0849609.770752-.1524658.8890381l-.5079346.8889771c-.1694336.4743042-.3809814.8723755-.6350098,1.1938477.0166016.1357422.0253906.2539673.0253906.3555908,0,.3897095-.2965088.7028809-.8890381.9398193,0,.0507812.0675049.2456665.2032471.5841675.4571533.3218994.685791.5334473.685791.6350098,0,.1865234-.2794189.4318237-.8382568.7366333Z"/>
        <path class="cls-1" d="m151.4033203,25.704895c.1352539-.5925293.5671387-1.0497437,1.2952881-1.371582.7786865-.6262817,1.3546143-.9398193,1.7272949-.9398193.3892822,0,.6350098.1016235.7365723.3048096.0336914.0507812.059082.5421143.0761719,1.4732056,0,.2373047.194458.694519.5842285,1.371582.677124-.8635864,1.0751953-1.2866821,1.1938477-1.2699585l.888916-.5588379c.677124-.5587769,1.1088867-.8381958,1.2954102-.8381958.2199707,0,.4401855.1865234.6604004.5587769.9311523-.677063,1.854248-1.0159912,2.7686768-1.0159912.1861572,0,.3468018.0253906.4825439.0762329l.5080566.1524048c.6604004-.2369385,1.0581055-.3556519,1.1938477-.3556519.1860352,0,.6604004.0933228,1.4223633.2794189.4571533.1016235.880249.1694946,1.2700195.203186.2369385.288147.4063721.4405518.5079346.4572144l.5842285.1016235c.4401855.0678711.956543.5421143,1.5494385,1.4224243.3555908.5587769.541748,1.7950439.5588379,3.708374-.4064941,0-.8215332.0762329-1.2446289.2286377-.4234619.1524048-.6350098.2964478-.6350098.4317627,0,.0170898.5671387.3302002,1.7017822.9398193.135376.0678711.2032471.2373657.2032471.5079956,0,.288147-.1611328.8045044-.482666,1.5494385-.0170898.0341187-.0253906.0848999-.0253906.1524048,0,.203186.1778564.4742432.5334473.8128052-.0507812.3555908-.0761719.6604004-.0761719.9143677,0,.1694946.1269531.6012573.3809814,1.2954102l.0507812,1.3970337.0761719,1.2191772-.0761719,1.0668335c0,.1694336.0844727.482605.2540283.9398193-.4572754.3389282-.7790527.5587769-.96521.6604004-.0849609.0507812-.4659424.2119141-1.1430664.482605-.1357422.0678101-.5079346.3047485-1.1175537.7111816-.4742432-.4909668-.7111816-.9057007-.7111816-1.2446289,0-.1182251.1523438-.7786255.4571533-1.9812012.0167236-.0845337.0336914-.2794189.0507812-.5841675.0167236-.1524048.0253906-.2794189.0253906-.3810425l.5080566-.1777954c.8465576-.1182861,1.2783203-.2198486,1.2954102-.3048096l-.2794189-.1777954c-.4063721-.2539673-1.0413818-.473877-1.9050293-.6604004.1015625-.7278442.2286377-1.168396.3809814-1.3208008l.762085-.7111816c.4063721-.3893433.6096191-.7449341.6096191-1.0668335,0-.0674438-.5588379-.3131104-1.6765137-.7365723l.0762939-.9144287-.1270752-1.3461914c0-.0166626.0253906-.0845337.0761719-.2032471.0675049-.1690674.135376-.4147339.2032471-.7365723-.2711182-.3048096-.4063721-.5079956-.4063721-.6096191l.0253906-1.2700195c0-.1690674-.1357422-.397644-.4063721-.685791-.2711182-.2877197-.4064941-.5754395-.4064941-.8635864l-.1269531-.1524048c-.4063721-.1182861-.6350098-.2115479-.685791-.2794189l-.7111816-1.2191772c-.1357422-.2199097-.288208-.3302002-.4572754-.3302002-.2880859,0-.6350098.1694336-1.0413818.5079956-.626709.5421143-1.1854248.8128052-1.6763916.8128052-.0849609,0-.4317627-.0675049-1.0413818-.203186l-.482666.482605v.1269531c-.3555908-.8464966-.7111816-1.2699585-1.0667725-1.2699585-.0170898,0-.1103516.0341187-.2794189.1015625-.2373047.1186523-.4996338.2119141-.7873535.2794189-.3555908.1016235-.8128662.3302002-1.371582.685791-.8299561.4572144-1.3125.8045044-1.447876,1.0414429-.2709961.4063721-.4063721.8044434-.4063721,1.1937866,0,.0170288.0166016.5587769.0507812,1.6256104v.1015625c0,.3048096-.0678711.4996948-.2032471.5842285l-1.1429443.8381958c-.1186523.0849609-.1778564.1694946-.1778564.2540283,0,.1694336.1524658.3389282.4572754.5079956.677002.3555908,1.0667725.5841675,1.168335.685791.0845947.1016235.1270752.2627563.1270752.482605,0,.0507812-.0170898.2202759-.0507812.5079956l.0507812,1.8796387c0,.1015625-.1524658.3555908-.4572754.7619629-.0340576.0508423-.0507812.144104-.0507812.2794189,0,.3048096.1778564.6266479.5334473.96521l-.0761719.0761719c.0336914.4064331.0507812.6774902.0507812.8128052.0673828.9993896.203125,1.7697144.4063721,2.3114624-.1694336.3555908-.3389893.5675049-.5080566.6349487-.0678711.0341797-.347168.0849609-.8381348.1524048-.0849609,0-.2032471.0424805-.3555908.1270142-.2032471.0849609-.3389893.1357422-.4063721.1524048-.1187744.0170898-.2457275.1357422-.3811035.3555908-.1357422.2032471-.3302002.3048096-.5841064.3048096-.1016846,0-.2540283-.1182861-.4572754-.3555908-.1357422-.1353149-.203125-.2794189-.203125-.4318237,0-.1353149.0166016-.2877197.0507812-.4571533.1182861-.5080566.1777344-.8040771.1777344-.8890381l.0253906-1.9304199c.1524658-.4909058.2286377-.7786865.2286377-.8635864,0-.1690674-.0341797-.3722534-.1015625-.6096191-.0849609-.338501-.1270752-.5671387-.1270752-.685791,0-.0674438.0167236-.2369385.0507812-.5079956.0167236-.1690674.0255127-.3131714.0255127-.4318237,0-.2198486-.0087891-.541748-.0255127-.96521-.0169678-.203186-.0253906-.4063721-.0253906-.6095581,0-.2199097.0592041-.4992676.1778564-.8382568l.7111816-.3302002c-.0340576-.1524048-.0932617-.2706299-.1777344-.3555908-.1016846-.0507812-.3726807-.0928345-.8128662-.1270142-.0170898-.3214722-.0253906-.5841675-.0253906-.7873535,0-.1524048.0336914-.4064331.1015625-.7620239.0167236-.0845337.0253906-.1861572.0253906-.3048096,0-.3893433-.0932617-1.1088867-.2792969-2.1589966l.5841064-.3302002c-.3217773-.473877-.4996338-.7532959-.5333252-.8381958-.0341797-.0508423-.0678711-.2453003-.1016846-.5842285-.0169678-.2706909-.2202148-.6433105-.6094971-1.1176147Z"/>
        <path class="cls-1" d="m175.845459,54.5594482c.1690674.3214722.4063721.8381958.7111816,1.5494385l.7111816.96521c.6096191.96521.9906006,1.5239868,1.1430664,1.6764526.4571533.0507812.744873.1015625.8635254.1523438l1.8288574.685791c.1015625.0336914.3131104.0507812.6350098.0507812.2198486,0,.4655762-.008667.7365723-.0253906.270752.2032471.473877.3048096.6096191.3048096.135376,0,.338501-.1103516.6096191-.3302002.2540283.0507812.473877.0761719.6604004.0761719.1182861,0,.8128662-.1948242,2.0827637-.5842285l.9398193-.5842285c.9481201-.5420532,1.4898682-.8722534,1.6256104-.9905396.0845947-.0848999.4064941-.4572144.96521-1.1176147.1524658-.1694336.4909668-.3897095,1.0159912-.6604004.5588379-.3555908.9819336-.9993286,1.2700195-1.9303589.3894043-1.1854858.6179199-1.8288574.685791-1.9304199.0845947-.1524048.3132324-.4064331.685791-.7620239-.0848389-.6266479-.1269531-.9906006-.1269531-1.0922241,0-.0678711.1690674-.9143677.5080566-2.539978.0336914-.1524048.0507812-.3048096.0507812-.4572144,0-.0341187-.0424805-.3302002-.1270752-.8890381.0845947-.3897095.2032471-.9314575.3557129-1.6255493.2198486-.6604614.3302002-1.0584717.3302002-1.1938477,0-.1186523-.0762939-.4992676-.2286377-1.1430054-.0170898-.1015625-.0849609-.9735107-.2032471-2.6162109-.0170898-.2539673-.0253906-.5079956-.0253906-.7620239,0-.3214722.0507812-.5925293.1524658-.8128052.1181641-.2539673.1777344-.4147339.1777344-.4825439,0-.1016235-.0170898-.2286377-.0507812-.3810425-.1015625-.0507812-.1694336-.0761719-.2032471-.0761719-.1015625,0-.5333252.2285767-1.2954102.685791l-.6094971.6350098-.6859131.482605-.7873535.5587769-.7873535.4318237-1.0922852,1.0413818-.4825439.3048096c-1.2871094.8806763-1.9899902,1.3505859-2.1082764,1.409729-.1186523.0595093-.5928955.1484375-1.4223633.2666626-.5588379.1690674-1.1938477.2960815-1.9050293.3810425-.3726807,0-1.1263428-.2032471-2.2606201-.6096191-.7619629-.2877197-1.3969727-.8040771-1.9050293-1.5494385-.0169678-.0166626-.1694336-.3722534-.4571533-1.0667725-.1357422-.3214722-.2032471-.5671387-.2032471-.7366333,0-.2198486.2115479-.482605.6350098-.7873535-.3726807-.4230957-.5587158-.9398193-.5587158-1.5494385,0-.4230957.3302002-1.1342773.9906006-2.133606l-.2032471-.7366333v-.0507812l.0761719-.7111816c.0675049-.677063.2961426-1.7526245.685791-3.2258301v-.9398193c.3215332-1.2866821.482666-1.9812012.482666-2.0828247,0-.1182251-.0678711-.2877197-.2032471-.5079956h-.6096191l-.203125-.2285767v-.2540283c.2706299-.2369385.5246582-.5246582.7619629-.8635864l1.4731445-.5079956c1.3209229-.8128052,2.0321045-1.2191772,2.133667-1.2191772.2032471,0,.3809814.0932617.5334473.2793579.1860352.2032471.2794189.4151611.2794189.6350098,0,.0678711-.1524658.4151611-.4572754,1.0414429-.1694336.3555908-.3134766.9906006-.4317627,1.9049683l-.7111816,2.6162109c-.0678711.829895-.1524658,1.3295288-.2540283,1.4985962-.1357422.2032471-.4405518.3135376-.9144287.3302002-.2202148.3048096-.3302002.5334473-.3302002.6858521,0,.203186.3048096.3555908.9144287.4571533-.0849609.3218994-.1357422.7453613-.1524658,1.2700195l-.3302002,1.6256104c-.0169678.4234619-.0761719.9822998-.1777344,1.6764526-.1016846.4404907-.1524658.6774292-.1524658.7111816,0,.1524048.135376.4488525.4064941.8889771.2877197.5079956.4654541.7961426.5333252.8636475.0507812.0507812.5334473.2880859,1.447876.7111816.338501.4572144.6096191.685791.8127441.685791.2540283,0,.541748-.1777954.8636475-.5333862.8635254-.1016235,1.4644775-.2540283,1.8033447-.4572144.2540283-.1524048,1.1767578-.8040771,2.7686768-1.9558105l1.4477539-1.371582,1.2954102-.8381958,1.1176758-2.1844482c.0507812-.0845337.1860352-.2539673.4063721-.5079956-.0341797-.3893433-.0678711-.6433105-.1015625-.7620239-.0509033-.1690674-.0762939-.3047485-.0762939-.4063721,0-.0337524.0592041-.1690674.1778564-.4064331l-.1015625-.7365723.0507812-.6096191-.3048096-.8381958.1015625-1.8034058-.1523438-.6096191-.2032471-.9398193c-.4234619-.7619629-.6350098-1.168396-.6350098-1.2191772,0-.3555908.3302002-.5500488.9906006-.5842285l.7111816-.685791h.2032471c.3048096-.0166626.5754395-.0507812.8127441-.1015625.2540283-.0508423.5588379-.1016235.9144287-.1524048.3048096.491333.4572754.7453003.4572754.7619629l-2.2352295.96521,1.7271729.5588379c.3048096.1524048.4571533.3555908.4571533.6095581,0,.2202759-.1865234.5421753-.5587158.96521-.3389893.3726807-.7111816.6858521-1.1176758.9398193l-.1269531.1016235c.0166016.1357422.4825439.3897095,1.3969727.7619629.3723145.3556519.5842285.6691284.6350098.9398193v.5079956l.1524658,1.4985962c-.2374268.5929565-.3555908.9569092-.3555908,1.0922241,0,.5421143.2285156,1.0414429.685791,1.4985962-.1016846.5929565-.1524658,1.0584717-.1524658,1.3970337l.1270752,1.2954102v.0253906c0,.0341187-.1187744.4742432-.3557129,1.3208008-.2373047.4572144-.3642578.7790527-.3809814.96521v.3809814l.5334473.4318237c-.1357422.6604004-.2032471,1.1430054-.2032471,1.4478149,0,.1186523.0084229.2373047.0253906.3555908.0675049.5246582.1016846.8294678.1016846.9144287,0,.0336914-.0932617.2960205-.2794189.7873535v.5588379l-.0761719.7365723.1269531,1.0160522-.3302002.8635864-.1778564.96521c-.2709961.4572144-.4063721.7532349-.4063721.8889771,0,.0845337.0083008.1777954.0253906.2794189.0507812.2877197.0762939.4992676.0762939.6350098,0,.1016235-.144165.397644-.4318848.8889771-.1015625.1861572-.2709961.6262817-.5079346,1.3208008-.0509033.135376-.2965088.3469238-.7366943.6350098-.0507812.0508423-.2880859.3639526-.7111816.9398193l-.4317627.6096191-.4063721.4572144c-.7961426,1.168396-1.3463135,1.9133301-1.651001,2.2351685-.1866455.1690674-.5422363.4064331-1.0668945.7112427l-.5333252.6094971-.7113037.4572754-.3809814.3048096-.888916.2540283-.6350098.3555908-.6096191.2032471-1.651001.6350098-.8128662.203125c-.8806152.2540283-1.4057617.3809814-1.5748291.3809814-.1357422,0-.6690674-.1015625-1.6002197-.3048096-1.5239258,0-2.8618164-.5079346-4.0131836-1.5239258l-.7365723-.0507812c-.1357422-.3726807-.2711182-.6350098-.4063721-.7874756-.0341797-.0169678-.3555908-.1694336-.96521-.4572144-.1357422-.0678101-.2623291-.203186-.3809814-.4063721-.1861572-.3555908-.2794189-.6774902-.2794189-.96521,0-.3726807.1186523-.8806763.3555908-1.5239868.1690674-.491333.4484863-.7366333.8381348-.7366333h.2032471Z"/>
      </g>
    </g>
  </g>
</svg>