<?xml version="1.0" encoding="UTF-8"?>
<svg id="_レイヤー_2" data-name="レイヤー 2" xmlns="http://www.w3.org/2000/svg" viewBox="0 0 114.0504938 18.8152174">
  <defs>
    <style>
      .cls-1 {
        opacity: .2;
      }

      .cls-1, .cls-2, .cls-3 {
        fill: none;
      }

      .cls-1, .cls-4 {
        stroke-width: 0px;
      }

      .cls-2 {
        stroke-linecap: round;
        stroke-linejoin: round;
      }

      .cls-2, .cls-3 {
        stroke: #fff;
        stroke-width: .9858183px;
      }

      .cls-4 {
        fill: #fff;
      }

      .cls-3 {
        stroke-miterlimit: 10;
      }
    </style>
  </defs>
  <g id="_レイヤー_1-2" data-name="レイヤー 1">
    <g>
      <g>
        <path class="cls-4" d="m31.320022,17.235589c.7478461-.7977025,1.333529-1.7044658,1.7574383-2.7202901.1121769-.230456.1963096-.5172602.252398-.860023.5421884.1558013,1.0376364.3427628,1.4863441.5608846.1807295.0686824.2710942.1495692.2710942.24305,0,.1060747-.0499862.2025416-.1495692.2897904-.0810167.0810167-.1776134.2617461-.2897904.5421884-.4175474.9660977-.8880672,1.8072947-1.4115595,2.5239805-.1869615.2555141-.3210804.3832711-.4019673.3832711-.0747846,0-.2025416-.0841327-.3832711-.252398-.3365307-.2930362-.7136996-.5297243-1.1311172-.7104538Zm4.7862149-15.7515079l1.7480902-.0373923c.099583,0,.1589173.0125939.1776134.0373923.0186962.0249282.0280442.0810167.0280442.1682654l-.0373923,2.5613728v6.4221281l.0373923,2.5520247c0,.0997128-.0125939.1589173-.0373923.1776134-.0249282.0186962-.0810167.0280442-.1682654.0280442l-1.7480902-.0373923h-1.8322229l-1.7574383.0373923c-.1060747,0-.1682654-.0124641-.1869615-.0373923-.0186962-.0247984-.0280442-.0808868-.0280442-.1682654l.0373923-2.5520247v-6.4221281l-.0373923-2.5613728c0-.099583.0124641-.1589173.0373923-.1776134.0247984-.0186962.0841327-.0280442.1776134-.0280442l1.7574383.0373923h1.8322229Zm.2150057,1.6078691h-2.2622344v1.850919h2.2622344v-1.850919Zm-2.2622344,5.169486h2.2622344v-1.8041787h-2.2622344v1.8041787Zm2.2622344,3.5055285v-1.9911402h-2.2622344v1.9911402h2.2622344Zm1.8322229,3.8420592c-.3801551.2556439-.738498.5515365-1.0750287.8880672-.1121769.1121769-.1995555.1682654-.2617461.1682654-.0873785,0-.2025416-.1339891-.3458788-.4019673-.2617461-.4860999-.5421884-1.0937249-.8413268-1.8228748-.0249282-.0621907-.0373923-.1089311-.0373923-.1402211,0-.0685526.0621907-.1369753.1869615-.2056577l1.0189403-.4767519c.099583-.0434945.1650195-.0654365.1963096-.0654365.0498564,0,.099583.0499862.1495692.1495692.2555141.5858128.5920448,1.2214819,1.0095922,1.9070075Zm3.3092189-12.2459794v2.7670305h4.6553418c.2678483,0,.4454618-.0247984.5328403-.0747846.1059449-.0621907.2024118-.0934808.2897904-.0934808.1308731,0,.3770391.1995555.738498.5982769.4113153.4175474.616973.6950035.616973.8319788,0,.1060747-.0499862.2089035-.1495692.3084865-.1621632.1558013-.2773263.386517-.3458788.6917576-.4736358,1.9817921-1.1498133,3.7267663-2.0285325,5.2349225.8787191,1.0408823,2.0346347,1.9412838,3.4681362,2.7015939-.3614589.4300115-.6512493.8787191-.8693711,1.3461229-.1495692.3052406-.249282.4580557-.2991384.4580557-.0747846,0-.2150057-.0780305-.4206634-.2337019-1.1840896-.860023-2.1749857-1.7541924-2.9726881-2.6828978-.8039345,1.0408823-1.7232918,1.966212-2.7576824,2.7763785-.1995555.1682654-.3334147.252398-.4019673.252398-.0686824,0-.1963096-.1402211-.3832711-.4206634-.24305-.373923-.5360862-.7136996-.8787191-1.0189403,1.333529-.8848214,2.436602-1.9163556,3.3092189-3.0942131-1.0595784-1.6700597-1.7356261-3.6177054-2.0285325-5.8425474h-.0934808c-.0312901,1.6265652-.1341189,3.2470282-.3084865,4.8609995-.24305,2.0691706-.7791362,3.7548105-1.6078691,5.0573091-.143467.24305-.252398.364575-.3271827.364575-.0934808,0-.2212378-.0903647-.3832711-.2710942-.3614589-.3801551-.7634262-.7043516-1.2059018-.9721999.959606-1.1529294,1.5391867-2.7824808,1.7387421-4.8890437.1556714-1.3896175.2337019-3.2282022.2337019-5.5153648l-.0373923-4.7862149c0-.1059449.0154503-.1682654.0467404-.1869615.0247984-.0186962.0872487-.0280442.1869615-.0280442l2.4304997.0373923h4.0757611l2.3931074-.0373923c.1308731,0,.1963096.0716686.1963096.2150057v1.4676479c0,.143467-.0654365.2150057-.1963096.2150057l-2.3931074-.0373923h-4.8236072Zm3.1783458,8.6002298c.5982769-1.1903217,1.0563326-2.5551407,1.3741672-4.0944572h-2.8137708c.3365307,1.595405.8163986,2.960224,1.4396037,4.0944572Z"/>
        <path class="cls-4" d="m53.1571274,16.4503506c2.0065905-.3489948,3.4026996-.8941694,4.187938-1.6359133.6230752-.5920448.9783021-1.4240236,1.0656807-2.4959363.0247984-.2991384.0373923-.5702326.0373923-.8132826,0-.2929064-.021942-.5826967-.0654365-.8693711.6978598.0373923,1.3615732.0934808,1.9911402.1682654.2181218.0373923.3271827.121525.3271827.252398,0,.0499862-.0373923.1776134-.1121769.3832711-.0686824.1558013-.1341189.5267381-.1963096,1.112421-.1371051,1.5019242-.6356692,2.6797818-1.4956921,3.5335727-.8475589.8350948-2.1469414,1.4956921-3.8981477,1.9817921-.2369478.0621907-.3832711.0934808-.4393596.0934808-.1121769,0-.2556439-.1528151-.4300115-.4580557-.2991384-.5547823-.6232051-.9721999-.9721999-1.2526422Zm4.6179495-9.1891586l-2.6455055.0373923c-.1308731,0-.1963096-.0685526-.1963096-.2056577v-1.2713383c0-.1369753.0654365-.2056577.1963096-.2056577l2.6455055.0373923h2.7483343v-1.2806864h-4.2066342l-2.467892.0373923c-.1121769,0-.1808593-.0154503-.2056577-.0467404-.0186962-.0247984-.0280442-.0841327-.0280442-.1776134v-1.3087306c0-.0872487.0154503-.1402211.0467404-.1589173.0247984-.0186962.0872487-.0280442.1869615-.0280442l2.467892.0373923h4.2066342v-.0373923c0-.8911832-.0499862-1.5611287-.1495692-2.0098363.8287329.0186962,1.5298386.0623205,2.1033171.1308731.1930637.0249282.2897904.0903647.2897904.1963096,0,.0810167-.0312901.2089035-.0934808.3832711-.0747846.1869615-.1121769.6202189-.1121769,1.2993826v.0373923h4.6646899l2.4959363-.0373923c.1369753,0,.2056577.0623205.2056577.1869615v1.3087306c0,.1060747-.0125939.1715112-.0373923.1963096-.0249282.0186962-.0810167.0280442-.1682654.0280442l-2.4959363-.0373923h-4.6646899v1.2806864h3.0942131l2.6268093-.0373923c.1121769,0,.1776134.0125939.1963096.0373923.0186962.0249282.0280442.0810167.0280442.1682654v1.2713383c0,.0997128-.0125939.1589173-.0373923.1776134-.0249282.0186962-.0873785.0280442-.1869615.0280442l-2.6268093-.0373923h-7.880428Zm9.1891586,1.1311172l2.5613728-.0373923c.1433372,0,.2150057.0654365.2150057.1963096l-.0373923.8319788v.6917576l.0373923,1.841571c0,.0934808-.0109061.1511272-.0327183.1729394-.021942.021942-.0827045.0327183-.1822875.0327183h-1.5424325c-.1060747,0-.1682654-.0124641-.1869615-.0373923-.0186962-.0247984-.0280442-.0808868-.0280442-.1682654v-1.9163556h-12.0496698v1.9163556c0,.0997128-.0125939.1589173-.0373923.1776134-.0249282.0186962-.0841327.0280442-.1776134.0280442h-1.5237364c-.1121769,0-.1808593-.0124641-.2056577-.0373923-.0186962-.0247984-.0280442-.0808868-.0280442-.1682654l.0373923-1.841571v-.5702326l-.0373923-.9535037c0-.0934808.0124641-.1495692.0373923-.1682654.0311603-.0186962.0965968-.0280442.1963096-.0280442l2.5426766.0373923h10.4418008Zm1.0656807,5.5901494c.3863871.1931936.8444429.3584727,1.3741672.495448.2243538.0623205.3583429.1090609.4019673.1402211.0560885.0436244.0841327.118409.0841327.2243538,0,.0560885-.0093481.1464532-.0280442.2710942-.0686824.6543653-.1838455,1.1530592-.3458788,1.4956921-.1247708.2804423-.3147186.5234923-.5702326.7291499-.4736358.3800253-1.4925761.5702326-3.0568208.5702326-1.3026284,0-2.2030299-.1028288-2.7015939-.3084865-.4736358-.1995555-.7104538-.6512493-.7104538-1.355471v-3.6550977c0-.7229179-.0373923-1.3802694-.1121769-1.972444.7603102.0373923,1.3959793.0810167,1.9070075.1308731.24305.0373923.364575.1154228.364575.2337019,0,.1247708-.0373923.252398-.1121769.3832711-.0499862.1308731-.0747846.4426054-.0747846.9348076v3.0661689c0,.3365307.0902349.5390724.2710942.6076249.230456.0747846.6824095.1121769,1.355471.1121769.8100367,0,1.3274268-.0965968,1.5517806-.2897904.2491522-.1994256.3832711-.8039345.4019673-1.8135267Z"/>
        <path class="cls-4" d="m74.1435578,8.1866515c1.3522251-1.5829409,2.4429638-3.6395176,3.2718266-6.1697301.1620333-.5482906.2648622-1.0063463.3084865-1.3741672.7726444.2305859,1.358587.4455916,1.7574383.6450172.2056577.0810167.3084865.1963096.3084865.3458788,0,.0934808-.0716686.2089035-.2150057.3458788-.0997128.0873785-.2243538.3427628-.373923.7665422-.386517,1.0843768-.7510919,1.9973722-1.0937249,2.7389862v9.6846066l.0373923,2.8885555c0,.099583-.0125939.1620333-.0373923.1869615-.0249282.0186962-.0810167.0280442-.1682654.0280442h-1.5611287c-.0997128,0-.1589173-.0125939-.1776134-.0373923-.0186962-.0249282-.0280442-.0841327-.0280442-.1776134l.0373923-2.8885555v-4.0570649c0-1.0343906.0061022-1.8259908.0186962-2.3744113-.2056577.3053705-.5234923.7198018-.9535037,1.2432941-.1621632.1808593-.2773263.2710942-.3458788.2710942-.0997128,0-.1715112-.1089311-.2150057-.3271827-.1247708-.7104538-.3147186-1.2900345-.5702326-1.7387421Zm8.3478318-4.309463l-2.6268093.0373923c-.0997128,0-.1589173-.0124641-.1776134-.0373923-.0186962-.0247984-.0280442-.0841327-.0280442-.1776134v-1.4115595c0-.1121769.0124641-.1807295.0373923-.2056577.0247984-.0186962.0808868-.0280442.1682654-.0280442l2.6268093.0373923h6.768007l2.6268093-.0373923c.099583,0,.1620333.0155801.1869615.0467404.0186962.0249282.0280442.0873785.0280442.1869615v1.4115595c0,.1060747-.0155801.1682654-.0467404.1869615-.0186962.0186962-.0747846.0280442-.1682654.0280442l-2.6268093-.0373923h-1.2152499v2.9446439h.5889288l2.6548536-.0373923c.1059449,0,.1682654.0125939.1869615.0373923.0186962.0249282.0280442.0810167.0280442.1682654l-.0373923,3.1409535v3.3372631l.0373923,4.187938c0,.099583-.0125939.1620333-.0373923.1869615-.0249282.0186962-.0810167.0280442-.1682654.0280442h-1.4956921c-.1060747,0-.1682654-.0155801-.1869615-.0467404-.0186962-.0186962-.0280442-.0747846-.0280442-.1682654v-.8039345h-8.0113011v.8787191c0,.099583-.0125939.1620333-.0373923.1869615-.0249282.0186962-.0841327.0280442-.1776134.0280442h-1.476996c-.0997128,0-.1589173-.0125939-.1776134-.0373923-.0186962-.0249282-.0280442-.0841327-.0280442-.1776134l.0373923-4.2066342v-3.0287766l-.0373923-3.5055285c0-.099583.0124641-.1589173.0373923-.1776134.0247984-.0186962.0841327-.0280442.1776134-.0280442l2.6174613.0373923h.495448v-2.9446439h-.5141442Zm-.9161114,11.2737795h1.4302556v-6.646482h-1.4302556v6.646482Zm3.20639-8.3291356h1.4863441v-2.9446439h-1.4863441v2.9446439Zm0,8.3291356h1.4863441v-6.646482h-1.4863441v6.646482Zm4.804911-6.646482h-1.5424325v6.646482h1.5424325v-6.646482Z"/>
        <path class="cls-4" d="m114.0504938,9.8132167c-.2804423.4175474-.4767519.856907-.5889288,1.3180787-.0934808.3491247-.1995555.5234923-.3178346.5234923-.0623205,0-.2056577-.0280442-.4300115-.0841327-.4487076-.1495692-.735382-.252398-.860023-.3084865l-.0373923,1.8789633v1.6826537l.0373923,3.1783458c0,.099583-.0125939.1589173-.0373923.1776134-.0249282.0186962-.0841327.0280442-.1776134.0280442h-1.5143883c-.0997128,0-.1589173-.0125939-.1776134-.0373923-.0186962-.0249282-.0280442-.0810167-.0280442-.1682654v-.7478461h-4.4590322v.7665422c0,.099583-.0125939.1589173-.0373923.1776134-.0249282.0186962-.0810167.0280442-.1682654.0280442h-1.476996c-.1060747,0-.1682654-.0125939-.1869615-.0373923-.0186962-.0249282-.0280442-.0810167-.0280442-.1682654l.0373923-3.1783458v-1.4582998c0-.8413268-.0125939-1.4520678-.0373923-1.8322229l-.5702326.2243538c-.24305.0934808-.395865.1402211-.4580557.1402211-.1247708,0-.2586301-.1713814-.4019673-.5141442-.143467-.4113153-.3614589-.7819925-.6543653-1.112421,1.8883113-.5982769,3.5522688-1.4270098,4.9918725-2.4865882-.5858128-.610741-1.0999569-1.2806864-1.5424325-2.0098363-.4052131.4799977-.8352246.9254595-1.2900345,1.3367749-.2182516.2056577-.364575.3084865-.4393596.3084865-.0934808,0-.2337019-.121525-.4206634-.364575-.2930362-.3613291-.5858128-.6356692-.8787191-.8226307l-1.0563326-.0186962c.5108983.8849512,1.1185232,1.6514934,1.8228748,2.2996267-.2804423.386517-.4829839.7852384-.6076249,1.1965537-.0747846.24305-.1464532.364575-.2150057.364575-.0560885,0-.1528151-.0965968-.2897904-.2897904-.373923-.5047961-.6792935-.9940121-.9161114-1.4676479l.1308731,9.6659105c0,.1121769-.0125939.1776134-.0373923.1963096-.0249282.0186962-.0873785.0280442-.1869615.0280442h-1.5517806c-.1060747,0-.1682654-.0125939-.1869615-.0373923-.0186962-.0249282-.0280442-.0873785-.0280442-.1869615,0-.0249282.0093481-.4706497.0280442-1.3367749.0621907-2.5487789.099583-4.929552.1121769-7.14193-.4362435,1.5206203-1.0625646,2.9291936-1.8789633,4.2253303-.1247708.2056577-.2212378.3084865-.2897904.3084865-.0810167,0-.1495692-.1028288-.2056577-.3084865-.1682654-.5359564-.3926192-1.0189403-.6730615-1.4489518,1.3274268-1.7699024,2.2840465-3.792073,2.8698593-6.0669013h-.4019673l-1.8789633.0373923c-.1247708,0-.1869615-.0715387-.1869615-.2150057v-1.355471c0-.1433372.0621907-.2150057.1869615-.2150057l1.8789633.0373923h.5141442v-1.2059018c0-1.1342332-.0499862-2.0098363-.1495692-2.6268093.7352521.0249282,1.3741672.0716686,1.9163556.1402211.2181218.0186962.3271827.0873785.3271827.2056577,0,.0873785-.0373923.2212378-.1121769.4019673-.0934808.1808593-.1402211.7945865-.1402211,1.841571v1.2432941l1.6078691-.0373923c.099583,0,.1620333.0125939.1869615.0373923.0186962.0249282.0280442.0841327.0280442.1776134v.9721999c1.2152499-1.1965537,2.1531735-2.5426766,2.8137708-4.0383688.1682654-.373923.2897904-.738498.364575-1.0937249.6668294.0997128,1.2526422.2150057,1.7574383.3458788.2056577.0560885.3084865.1308731.3084865.2243538,0,.0810167-.0499862.1715112-.1495692.2710942-.1308731.1121769-.2556439.2897904-.373923.5328403l-.2617461.5982769h3.5522688c.1556714,0,.2710942-.0186962.3458788-.0560885.0808868-.0373923.1526852-.0560885.2150057-.0560885.1807295,0,.4300115.1651493.7478461.495448.3052406.3491247.4580557.5982769.4580557.7478461,0,.1247708-.0686824.2399339-.2056577.3458788-.1371051.0934808-.2866743.2836881-.4487076.5702326-.6295669,1.1904515-1.4209075,2.2715824-2.3744113,3.2437823,1.3835152.9287054,2.9787904,1.598521,4.7862149,2.0098363Zm-9.4696009,1.2993826h4.804911l2.0285325-.0186962c-1.3961092-.5982769-2.5707209-1.2744543-3.5242246-2.0285325-.9660977.7727743-2.0691706,1.4551838-3.3092189,2.0472286Zm.8787191,1.7387421v2.7389862h4.4590322v-2.7389862h-4.4590322Zm2.3744113-6.1977743c.8163986-.7977025,1.455054-1.6296812,1.9163556-2.4959363h-3.6831419l-.0747846.1308731c.4611717.8475589,1.0750287,1.6359133,1.841571,2.3650632Z"/>
      </g>
      <g>
        <g>
          <path class="cls-3" d="m17.550842,5.9552751c.4486769,1.0607914.6967853,2.2270714.6967853,3.4513003s-.2481084,2.390509-.6967853,3.4513003-1.0979223,2.016094-1.9001963,2.818368-1.7575767,1.4515194-2.818368,1.9001963-2.2270714.6967853-3.4513003.6967853-2.390509-.2481084-3.4513003-.6967853-2.016094-1.0979223-2.818368-1.9001963-1.4515194-1.7575767-1.9001963-2.818368-.6967853-2.2270714-.6967853-3.4513003.2481084-2.390509.6967853-3.4513003,1.0979223-2.016094,1.9001963-2.818368,1.7575767-1.4515194,2.818368-1.9001963,2.2270714-.6967853,3.4513003-.6967853,2.390509.2481084,3.4513003.6967853"/>
          <path class="cls-3" d="m14.308782,2.05421c.4717088.3186802.911103.6815601,1.31224,1.0826971"/>
        </g>
        <g>
          <line class="cls-2" x1="7.2163469" y1="5.1121322" x2="9.5115842" y2="8.5828274"/>
          <line class="cls-2" x1="11.8179886" y1="5.1121322" x2="9.5227517" y2="8.5828274"/>
          <line class="cls-2" x1="9.5115842" y1="8.5065349" x2="9.5115842" y2="13.8403977"/>
          <line class="cls-2" x1="6.7929373" y1="8.8318323" x2="12.3762526" y2="8.8318323"/>
          <line class="cls-2" x1="6.7929373" y1="10.8181248" x2="12.3762526" y2="10.8181248"/>
        </g>
      </g>
      <rect class="cls-1" y="0" width="114.0504938" height="18.8152174"/>
    </g>
  </g>
</svg>