<?xml version="1.0" encoding="UTF-8"?>
<svg id="_レイヤー_2" data-name="レイヤー 2" xmlns="http://www.w3.org/2000/svg" viewBox="0 0 205.9149507 18.9884053">
  <defs>
    <style>
      .cls-1 {
        fill: #a69a7f;
        stroke-width: 0px;
      }

      .cls-2 {
        fill: none;
        stroke: #a69a7f;
        stroke-miterlimit: 10;
      }
    </style>
  </defs>
  <g id="_レイヤー_1-2" data-name="レイヤー 1">
    <g>
      <g>
        <path class="cls-1" d="m34.047588,2.4922495h2.8613281c1.640625,0,2.7475586.0717773,3.3203125.2148438.8203125.2019043,1.4907227.6169434,2.0117188,1.2451172.5209961.628418.78125,1.4177246.78125,2.3681641,0,.9570312-.2539062,1.746582-.7617188,2.3681641-.5078125.6218262-1.2075195,1.0400391-2.0996094,1.2548828-.6508789.15625-1.8686523.234375-3.6523438.234375h-1.0253906v6.6796875h-1.4355469V2.4922495Zm1.4355469,1.40625v4.8730469l2.4316406.0292969c.9829102,0,1.7026367-.0892334,2.1582031-.2679443s.8139648-.4678955,1.0742188-.8674316.390625-.8463135.390625-1.34021c0-.4807129-.1303711-.9208984-.390625-1.3205566-.2602539-.3995361-.6040039-.6838379-1.0302734-.8527832s-1.1245117-.253418-2.0947266-.253418h-2.5390625Z"/>
        <path class="cls-1" d="m47.6511036,6.2324839h1.3964844v1.5527344c.4165039-.6118164.855957-1.0693359,1.3183594-1.3720703s.9438477-.4541016,1.4453125-.4541016c.3774414,0,.78125.1206055,1.2109375.3613281l-.7128906,1.1523438c-.2866211-.1235352-.5273438-.1855469-.7226562-.1855469-.4555664,0-.8950195.1872559-1.3183594.5615234-.4233398.3745117-.7456055.9555664-.9667969,1.7431641-.1694336.6054688-.2539062,1.8295898-.2539062,3.671875v3.59375h-1.3964844V6.2324839Z"/>
        <path class="cls-1" d="m57.1579395,1.8574839c.3110352,0,.5766602.1108398.7973633.3320312.2202148.2214355.3305664.4882812.3305664.8007812,0,.3061523-.1103516.5698242-.3305664.7910156-.2207031.2214355-.4863281.3320312-.7973633.3320312-.3046875,0-.5673828-.1105957-.7875977-.3320312-.2207031-.2211914-.3305664-.4848633-.3305664-.7910156,0-.3125.1098633-.5793457.3305664-.8007812.2202148-.2211914.4829102-.3320312.7875977-.3320312Zm-.6787109,4.375h1.3671875v10.625h-1.3671875V6.2324839Z"/>
        <path class="cls-1" d="m73.500713,8.4395152l-1.0839844.6738281c-.9365234-1.2434082-2.2143555-1.8652344-3.8334961-1.8652344-1.2939453,0-2.3686523.4162598-3.2236328,1.2486572-.8554688.8323975-1.2827148,1.8435059-1.2827148,3.0335693,0,.7739258.1967773,1.5024414.590332,2.1850586.3930664.6828613.9331055,1.2127686,1.6191406,1.5899658s1.4550781.5657959,2.3066406.5657959c1.5605469,0,2.8349609-.621582,3.8237305-1.8652344l1.0839844.7128906c-.5078125.7647705-1.1899414,1.3580322-2.0458984,1.7796631-.855957.4215088-1.8310547.6324463-2.9248047.6324463-1.6796875,0-3.0727539-.5336914-4.1796875-1.6015625-1.1069336-1.067627-1.6601562-2.3664551-1.6601562-3.8964844,0-1.0285645.2587891-1.9838867.7763672-2.8662109.5175781-.8820801,1.2290039-1.5705566,2.1337891-2.0654297.9047852-.4946289,1.9174805-.7421875,3.0371094-.7421875.703125,0,1.3818359.1074219,2.0361328.3222656s1.2094727.494873,1.6650391.8398438c.4555664.3452148.8432617.784668,1.1621094,1.3183594Z"/>
        <path class="cls-1" d="m87.5729786,13.3320933l1.1523438.6054688c-.3779297.7421875-.8144531,1.3413086-1.3100586,1.796875-.4951172.4558105-1.0522461.8024902-1.6708984,1.0400391-.6196289.2375488-1.3203125.3564453-2.1020508.3564453-1.7333984,0-3.0883789-.5678711-4.065918-1.7041016-.9775391-1.1359863-1.4663086-2.420166-1.4663086-3.8525391,0-1.3476562.4135742-2.5488281,1.2412109-3.6035156,1.0493164-1.3410645,2.4536133-2.0117188,4.2128906-2.0117188,1.8115234,0,3.2583008.6870117,4.3398438,2.0605469.769043.9702148,1.159668,2.1811523,1.1728516,3.6328125h-9.5605469c.0258789,1.2341309.4204102,2.2458496,1.1831055,3.0349121.7626953.7893066,1.7045898,1.1838379,2.8256836,1.1838379.5410156,0,1.0668945-.0939941,1.5791016-.2821045.5112305-.1879883.9467773-.4378662,1.3051758-.7491455s.7460938-.8138428,1.1635742-1.5078125Zm0-2.8613281c-.1826172-.7290039-.4482422-1.3117676-.796875-1.7480469-.3491211-.4360352-.8100586-.7875977-1.3833008-1.0546875-.5742188-.2668457-1.1767578-.4003906-1.809082-.4003906-1.0429688,0-1.9394531.3354492-2.6889648,1.0058594-.5478516.4882812-.9614258,1.2207031-1.2416992,2.1972656h7.9199219Z"/>
      </g>
      <g>
        <path class="cls-2" d="m17.7815963,5.9932531c.4551314,1.0760515.706809,2.2591093.706809,3.5009496s-.2516776,2.424898-.706809,3.5009496-1.1137167,2.0450968-1.9275319,2.8589121-1.7828606,1.4724005-2.8589121,1.9275319-2.2591093.706809-3.5009496.706809-2.424898-.2516776-3.5009496-.706809-2.0450968-1.1137167-2.8589121-1.9275319-1.4724005-1.7828606-1.9275319-2.8589121-.706809-2.2591093-.706809-3.5009496.2516776-2.424898.706809-3.5009496,1.1137167-2.0450968,1.9275319-2.8589121,1.7828606-1.4724005,2.8589121-1.9275319,2.2591093-.706809,3.5009496-.706809,2.424898.2516776,3.5009496.706809"/>
        <path class="cls-2" d="m14.4928971,2.0360686c.4784947.3232646.9242098.6913648,1.3311175,1.0982724"/>
      </g>
      <g>
        <line class="cls-2" x1="7.2984326" y1="5.067289" x2="9.6266884" y2="8.5879124"/>
        <line class="cls-2" x1="11.966272" y1="5.067289" x2="9.6380166" y2="8.5879124"/>
        <line class="cls-2" x1="9.6266884" y1="8.5105224" x2="9.6266884" y2="13.9211164"/>
        <line class="cls-2" x1="6.868932" y1="8.8404994" x2="12.5325671" y2="8.8404994"/>
        <line class="cls-2" x1="6.868932" y1="10.8553661" x2="12.5325671" y2="10.8553661"/>
      </g>
      <polyline class="cls-1" points="205.9149507 8.0339708 200.8033009 13.1456206 195.6916512 8.0339708"/>
    </g>
  </g>
</svg>