<?xml version="1.0" encoding="UTF-8"?>
<svg id="_レイヤー_2" data-name="レイヤー 2" xmlns="http://www.w3.org/2000/svg" viewBox="0 0 207.0577969 16.6113281">
  <defs>
    <style>
      .cls-1 {
        fill: #a69a7f;
        stroke-width: 0px;
      }

      .cls-2 {
        fill: none;
        stroke: #a69a7f;
        stroke-miterlimit: 10;
      }
    </style>
  </defs>
  <g id="_レイヤー_1-2" data-name="レイヤー 1">
    <g>
      <g>
        <path class="cls-1" d="m44.6323296,13.9130859c1.1777344.5976562,2.8154297.9990234,4.9130859,1.2041016-.28125.2636719-.5742188.6357422-.8789062,1.1162109-.1523438.2285156-.2900391.3427734-.4130859.3427734s-.2666016-.0118408-.4306641-.0351562c-.8671875-.1289062-1.78125-.3691406-2.7421875-.7207031-.84375-.3164062-1.5703125-.6650391-2.1796875-1.0458984-.0703125-.046875-.1054688-.0878906-.1054688-.1230469,0-.046875.0673828-.0936279.2021484-.140625l1.3623047-.6503906h-6.046875c.3867188.1524658.8964844.375,1.5292969.6679688.1699219.0469971.2548828.1289062.2548828.2460938,0,.1054688-.0908203.178833-.2724609.2197266-.1289062.0234375-.375.1318359-.7382812.3251953-1.1953125.6033936-2.5634766,1.0224609-4.1044922,1.2568359-.1875.0233154-.3076172.0351562-.3603516.0351562-.1523438,0-.3017578-.1260986-.4482422-.3779297-.2226562-.3985596-.4921875-.7441406-.8085938-1.0371094,1.6347656-.1639404,2.9853516-.4599609,4.0517578-.8876953.328125-.140625.5976562-.2900391.8085938-.4482422l-2.1796875.0351562c-.09375,0-.1494141-.0117188-.1669922-.0351562-.0175781-.0292969-.0263672-.0908203-.0263672-.1845703l.0351562-1.7666016v-3.0761719l-.0351562-1.7841797c0-.0936279.0117188-.1494141.0351562-.1669922s.0761719-.0263672.1582031-.0263672l2.3554688.0351562c-.0585938-.0820312-.1113281-.1787109-.1582031-.2900391-.234375-.3984375-.4453125-.6737061-.6328125-.8261719,1.4238281-.2460938,2.4990234-.6064453,3.2255859-1.0810547.6796875-.4394531,1.1601562-1.0371094,1.4414062-1.7929688h-1.5117188c-.3515625.421875-.7353516.796875-1.1513672,1.125-.2285156.1700439-.3662109.2548828-.4130859.2548828-.0761719,0-.2167969-.1199951-.421875-.3603516-.2402344-.2636719-.5039062-.4599609-.7910156-.5888672,1.0488281-.7558594,1.8369141-1.5965576,2.3642578-2.5224609.1347656-.2402344.2490234-.5097656.3427734-.8085938.5566406.0878906,1.03125.1816406,1.4238281.28125.2050781.0527344.3076172.1201172.3076172.2021484,0,.09375-.0556641.178833-.1669922.2548828-.1171875.0703125-.2373047.2315674-.3603516.4833984l-.2021484.3427734h5.3349609c.2167969,0,.3662109-.0233154.4482422-.0703125.09375-.046875.1757812-.0703125.2460938-.0703125.1054688,0,.328125.1201172.6679688.3603516.3984375.2636719.5976562.4746094.5976562.6328125,0,.09375-.0498047.1700439-.1494141.2285156-.1289062.0761719-.234375.1845703-.3164062.3251953-.1933594.3164062-.4892578.741333-.8876953,1.2744141-.1875.2403564-.3310547.3603516-.4306641.3603516-.0878906,0-.2490234-.0527344-.4833984-.1582031-.4042969-.1815186-.7412109-.3017578-1.0107422-.3603516.4101562-.3924561.7529297-.7879639,1.0283203-1.1865234h-2.6630859c.6621094,1.7460938,2.5576172,2.7597656,5.6865234,3.0410156-.1933594.2579346-.3603516.6474609-.5009766,1.1689453-.0644531.2167969-.1171875.3546143-.1582031.4130859-.0410156.0585938-.1083984.0878906-.2021484.0878906-.0585938,0-.1787109-.0175781-.3603516-.0527344-.4453125-.0820312-.9199219-.2021484-1.4238281-.3603516-.0234375.3106689-.0351562.8555908-.0351562,1.6347656v3.0761719l.0351562,1.7666016c0,.0997314-.0102539.1612549-.0307617.1845703-.0205078.0234375-.0776367.0351562-.1713867.0351562l-2.4082031-.0351562.1230469.0527344Zm-6.5039062-10.265625c.0117188.1992188.0556641.5419922.1318359,1.0283203.046875.2167969.0703125.3603516.0703125.4306641,0,.1289062-.1494141.2755127-.4482422.4394531-.7089844.375-1.6464844.7764893-2.8125,1.2041016-.2519531.0997314-.4130859.1845703-.4833984.2548828-.0996094.09375-.1845703.140625-.2548828.140625-.0996094,0-.1845703-.0672607-.2548828-.2021484-.1875-.3457031-.3955078-.8554688-.6240234-1.5292969.5273438-.1054688.9697266-.2138672,1.3271484-.3251953,1.3476562-.4394531,2.4638672-.9197998,3.3486328-1.4414062Zm-2.8388672-3.1464844c.8027344.3339844,1.6289062.8028564,2.4785156,1.40625.0878906.0645752.1318359.1173096.1318359.1582031,0,.0351562-.0439453.0966797-.1318359.1845703l-.7734375.8789062c-.09375.1113281-.1669922.1669922-.2197266.1669922-.0410156,0-.09375-.0263672-.1582031-.0791016-.8496094-.6796875-1.6640625-1.1834717-2.4433594-1.5117188-.09375-.0584717-.140625-.1054688-.140625-.140625,0-.0527344.0410156-.1199951.1230469-.2021484l.7558594-.7558594c.09375-.0996094.1669922-.1494141.2197266-.1494141.0351562,0,.0878906.0146484.1582031.0439453Zm10.0458984,7.6640625h-7.7255859v.7558594h7.7255859v-.7558594Zm-7.7255859,2.5751953h7.7255859v-.7558594h-7.7255859v.7558594Zm7.7255859,1.8457031v-.7822266h-7.7255859v.7822266h7.7255859Zm-.8964844-5.6953125c.9550781,0,1.5673828-.0057373,1.8369141-.0175781-1.4003906-.5800781-2.4023438-1.4003906-3.0058594-2.4609375-.6269531,1.1601562-1.828125,1.9863281-3.6035156,2.4785156h4.7724609Z"/>
        <path class="cls-1" d="m56.7172906.0703125c.6503906.0175781,1.2597656.0585938,1.828125.1230469.1933594.0175781.2900391.0791016.2900391.1845703,0,.0821533-.0380859.2080078-.1142578.3779297-.0820312.1640625-.1230469.7677002-.1230469,1.8105469v3.3837891h.140625l1.9423828-.0351562c.0996094,0,.1582031.0118408.1757812.0351562.0175781.0234375.0263672.0791016.0263672.1669922v1.2744141c0,.1230469-.0673828.1845703-.2021484.1845703l-1.828125-.0351562c.6796875,1.1192627,1.4882812,2.1563721,2.4257812,3.1113281-.2578125.3106689-.4980469.7061768-.7207031,1.1865234-.1054688.2167969-.1904297.3251953-.2548828.3251953s-.1582031-.0908203-.28125-.2724609c-.609375-.8789062-1.0957031-1.7371826-1.4589844-2.5751953l.1230469,7.0576172c0,.0936279-.0146484.1523438-.0439453.1757812-.0234375.0175781-.0791016.0263672-.1669922.0263672h-1.4853516c-.09375,0-.1494141-.0118408-.1669922-.0351562-.0175781-.0234375-.0263672-.0791016-.0263672-.1669922,0-.0469971.0087891-.4073486.0263672-1.0810547.046875-2.0799561.0791016-3.9199219.0966797-5.5195312-.5625,1.5059814-1.2890625,2.8710938-2.1796875,4.0957031-.1523438.1933594-.2607422.2900391-.3251953.2900391-.0761719,0-.1464844-.102417-.2109375-.3076172-.1933594-.5917969-.4101562-1.0283203-.6503906-1.3095703,1.2714844-1.4707031,2.2382812-3.1376953,2.9003906-5.0009766h-.3251953l-1.9599609.0351562c-.1347656,0-.2021484-.0615234-.2021484-.1845703v-1.2744141c0-.0996094.0117188-.1582031.0351562-.1757812s.0791016-.0263672.1669922-.0263672l1.9599609.0351562h.7382812v-3.3398438c0-.9725342-.0498047-1.8193359-.1494141-2.5400391Zm-1.2568359,1.4238281c.4335938.984375.7558594,1.9921875.9667969,3.0234375.0117188.0410156.0175781.0733643.0175781.0966797,0,.0878906-.0820312.1640625-.2460938.2285156l-.7734375.2900391c-.1113281.0410156-.1845703.0615234-.2197266.0615234-.0527344,0-.0878906-.0584717-.1054688-.1757812-.1875-1.0252686-.4921875-2.0272217-.9140625-3.0058594-.0234375-.0584717-.0351562-.1054688-.0351562-.140625,0-.0644531.0761719-.1259766.2285156-.1845703l.7558594-.3076172c.0820312-.0351562.140625-.0527344.1757812-.0527344.046875,0,.0966797.0557861.1494141.1669922Zm3.4716797,3.1992188c.3574219-.8846436.6328125-1.789917.8261719-2.7158203.0585938-.28125.0966797-.5390625.1142578-.7734375.7148438.2403564,1.1689453.4073486,1.3623047.5009766.1347656.0703125.2021484.1436768.2021484.2197266,0,.0821533-.0351562.140625-.1054688.1757812-.0878906.0585938-.1611328.1933594-.2197266.4042969-.1875.6446533-.4628906,1.40625-.8261719,2.2851562-.1054688.2519531-.1962891.3779297-.2724609.3779297-.0585938,0-.1787109-.0556641-.3603516-.1669922-.2226562-.1171875-.4628906-.2197266-.7207031-.3076172Zm4.6142578,5.9765625l2.7509766-.5361328V2.9267578c0-1.1367188-.0498047-2.0478516-.1494141-2.7333984.703125.0175781,1.3417969.0585938,1.9160156.1230469.1816406.0234375.2724609.0909424.2724609.2021484,0,.0469971-.0380859.1669922-.1142578.3603516-.0703125.1700439-.1054688.8349609-.1054688,1.9951172v6.8994141c.4453125-.0936279.8408203-.1845703,1.1865234-.2724609.0585938-.0117188.1582031-.0380859.2988281-.0791016.0644531-.0117188.1083984-.0205078.1318359-.0263672.046875-.0117188.0791016-.0175781.0966797-.0175781.046875,0,.0820312.0645752.1054688.1933594l.2109375,1.40625c.0058594.0469971.0087891.0761719.0087891.0878906,0,.0645752-.0615234.1054688-.1845703.1230469-.0351562.0118408-.2255859.0498047-.5712891.1142578-.4160156.0761719-.84375.1582031-1.2832031.2460938v1.6787109l.0351562,3.1113281c0,.0936279-.0117188.1523438-.0351562.1757812-.0234375.0175781-.0791016.0263672-.1669922.0263672h-1.4941406c-.09375,0-.1494141-.0146484-.1669922-.0439453-.0175781-.0175781-.0263672-.0703125-.0263672-.1582031l.0351562-3.09375v-1.3359375l-2.4697266.4921875c-.6738281.1289062-1.2568359.2460938-1.7490234.3515625-.1054688.0175781-.2431641.0439453-.4130859.0791016-.0761719.0175781-.1289062.0294189-.1582031.0351562-.0527344.0118408-.0908203.0175781-.1142578.0175781-.0703125,0-.1113281-.0527344-.1230469-.1582031l-.2285156-1.4238281c-.0117188-.0584717-.0175781-.0996094-.0175781-.1230469,0-.0527344.0585938-.0908203.1757812-.1142578.0292969-.0057373.1435547-.0233154.3427734-.0527344.5800781-.0820312,1.2480469-.1962891,2.0039062-.3427734Zm-.8701172-5.1416016c.9316406.6446533,1.7607422,1.4121094,2.4873047,2.3027344.0585938.0761719.0878906.1318359.0878906.1669922,0,.0410156-.046875.1113281-.140625.2109375l-.8876953.8789062c-.0996094.09375-.1699219.140625-.2109375.140625-.0351562,0-.0849609-.0351562-.1494141-.1054688-.7734375-.984375-1.5644531-1.7987061-2.3730469-2.4433594-.0820312-.0878906-.1230469-.1375732-.1230469-.1494141,0-.0351562.046875-.0996094.140625-.1933594l.8261719-.7910156c.0820312-.0878906.1376953-.1318359.1669922-.1318359s.0878906.038208.1757812.1142578Zm.4833984-4.1660156c1.0488281.7325439,1.8955078,1.4971924,2.5400391,2.2939453.0527344.0527344.0791016.1025391.0791016.1494141,0,.0469971-.0439453.1113281-.1318359.1933594l-.8613281.84375c-.1113281.1054688-.1845703.1582031-.2197266.1582031s-.0761719-.0351562-.1230469-.1054688c-.7089844-.9022217-1.5263672-1.6904297-2.4521484-2.3642578-.0644531-.0408936-.0966797-.0848389-.0966797-.1318359,0-.0584717.0439453-.1259766.1318359-.2021484l.7910156-.7558594c.1054688-.0936279.1728516-.140625.2021484-.140625.0351562,0,.0820312.0206299.140625.0615234Z"/>
        <path class="cls-1" d="m76.03565,3.2519531h2.1533203l1.9335938-.0351562c.09375,0,.1494141.0118408.1669922.0351562.0175781.0234375.0263672.0761719.0263672.1582031v1.2832031c0,.0997314-.0117188.1612549-.0351562.1845703-.0234375.0175781-.0761719.0263672-.1582031.0263672l-1.9335938-.0351562h-2.1533203l-1.9335938.0351562c-.0820312,0-.1318359-.0145264-.1494141-.0439453-.0175781-.0233154-.0263672-.0791016-.0263672-.1669922v-1.2832031c0-.1287842.0585938-.1933594.1757812-.1933594l1.9335938.0351562Zm3.8232422,12.8144531c0,.0936279-.0117188.1523438-.0351562.1757812-.0234375.0175781-.0761719.0263672-.1582031.0263672h-1.2832031c-.09375,0-.1494141-.0118408-.1669922-.0351562-.0175781-.0234375-.0263672-.0791016-.0263672-.1669922v-.4833984h-1.8720703v.8085938c0,.0936279-.0117188.1523438-.0351562.1757812-.0234375.0175781-.0791016.0263672-.1669922.0263672h-1.2744141c-.1054688,0-.1699219-.0146484-.1933594-.0439453-.0175781-.0175781-.0263672-.0703125-.0263672-.1582031l.0439453-2.6982422v-1.1513672l-.0439453-1.6875c0-.0996094.0146484-.1582031.0439453-.1757812.0234375-.0175781.0820312-.0263672.1757812-.0263672l1.6347656.0351562h1.5292969l1.6523438-.0351562c.0996094,0,.1582031.0118408.1757812.0351562.0175781.0234375.0263672.0791016.0263672.1669922l-.0351562,1.3798828v1.2392578l.0351562,2.5927734Zm-3.3398438-15.2753906h1.5117188l1.6171875-.0351562c.1054688,0,.1699219.0118408.1933594.0351562.0175781.0234375.0263672.0761719.0263672.1582031v1.1865234c0,.0997314-.0146484.1582031-.0439453.1757812-.0234375.0175781-.0820312.0263672-.1757812.0263672l-1.6171875-.0351562h-1.5117188l-1.6347656.0351562c-.0996094,0-.1582031-.0117188-.1757812-.0351562-.0175781-.0233154-.0263672-.0791016-.0263672-.1669922V.9492188c0-.0936279.0117188-.1494141.0351562-.1669922s.0791016-.0263672.1669922-.0263672l1.6347656.0351562Zm.0703125,5.0185547h1.3710938l1.5117188-.0351562c.0996094,0,.1611328.0118408.1845703.0351562.0175781.0234375.0263672.0791016.0263672.1669922v1.1689453c0,.09375-.0117188.1494141-.0351562.1669922s-.0820312.0263672-.1757812.0263672l-1.5117188-.0351562h-1.3710938l-1.5292969.0351562c-.09375,0-.1523438-.0117188-.1757812-.0351562-.0175781-.0233154-.0263672-.0760498-.0263672-.1582031v-1.1689453c0-.0996094.0146484-.1582031.0439453-.1757812.0175781-.0175781.0703125-.0263672.1582031-.0263672l1.5292969.0351562Zm0,2.4345703h1.3710938l1.5117188-.0439453c.0996094,0,.1611328.0118408.1845703.0351562.0175781.0234375.0263672.0791016.0263672.1669922v1.1513672c0,.0997314-.0117188.1582031-.0351562.1757812s-.0820312.0263672-.1757812.0263672l-1.5117188-.0351562h-1.3710938l-1.5292969.0351562c-.09375,0-.1523438-.0117188-.1757812-.0351562-.0175781-.0233154-.0263672-.0791016-.0263672-.1669922v-1.1513672c0-.0936279.0146484-.1523438.0439453-.1757812.0175781-.0175781.0703125-.0263672.1582031-.0263672l1.5292969.0439453Zm1.5996094,3.9375h-1.8720703v1.9072266h1.8720703v-1.9072266Zm8.6396484-7.0136719h-.9140625v.84375h1.8369141l2.390625-.0351562c.0878906,0,.140625.0146484.1582031.0439453.0175781.0234375.0263672.0821533.0263672.1757812v1.0283203c0,.1173096-.0615234.1757812-.1845703.1757812l-2.390625-.0175781h-4.8427734l-2.4082031.0175781c-.1347656,0-.2021484-.0584717-.2021484-.1757812v-1.0283203c0-.1054688.0117188-.1699219.0351562-.1933594.0234375-.0175781.0791016-.0263672.1669922-.0263672l2.4082031.0351562h1.2568359v-.84375h-.6240234l-2.1621094.0351562c-.1230469,0-.1845703-.0672607-.1845703-.2021484v-.9140625c0-.1347656.0615234-.2021484.1845703-.2021484l2.1621094.0351562h.6240234v-.8261719h-.8789062l-2.2675781.0351562c-.09375,0-.1523438-.0117188-.1757812-.0351562-.0175781-.0233154-.0263672-.0760498-.0263672-.1582031v-.9931641c0-.0936279.0146484-.1523438.0439453-.1757812.0175781-.0175781.0703125-.0263672.1582031-.0263672l2.2675781.0439453h.8789062c-.0175781-.6269531-.0585938-1.2158203-.1230469-1.7666016.609375.0175781,1.2011719.0585938,1.7753906.1230469.1933594.0234375.2900391.0909424.2900391.2021484,0,.0058594-.0351562.1494141-.1054688.4306641-.0585938.2167969-.0878906.5537109-.0878906,1.0107422h1.40625l2.2851562-.0439453c.09375,0,.1494141.0118408.1669922.0351562.0175781.0234375.0263672.0791016.0263672.1669922v.9931641c0,.09375-.0117188.1494141-.0351562.1669922s-.0761719.0263672-.1582031.0263672l-2.2851562-.0351562h-1.40625v.8261719h.8964844l2.1621094-.0351562c.1054688,0,.1669922.0118408.1845703.0351562.0234375.0234375.0351562.0791016.0351562.1669922v.9140625c0,.0997314-.0146484.1582031-.0439453.1757812-.0234375.0175781-.0820312.0263672-.1757812.0263672l-2.1445312-.0351562Zm-1.3974609,9.6240234c.3984375.0351562.8056641.0527344,1.2216797.0527344.2988281,0,.4980469-.0556641.5976562-.1669922.0703125-.0760498.1054688-.2050781.1054688-.3867188v-.6855469h-4.3681641v.6328125l.0351562,2.1357422c0,.0936279-.0117188.1523438-.0351562.1757812-.0234375.0175781-.0791016.0263672-.1669922.0263672h-1.3710938c-.09375,0-.1494141-.0146484-.1669922-.0439453-.0175781-.0175781-.0263672-.0703125-.0263672-.1582031l.0351562-2.1005859v-4.0166016l-.0351562-1.9599609c0-.0996094.0117188-.1582031.0351562-.1757812s.0761719-.0263672.1582031-.0263672l2.1621094.0351562h3.09375l2.1445312-.0351562c.1054688,0,.1699219.0118408.1933594.0351562.0175781.0234375.0263672.0791016.0263672.1669922l-.0351562,2.1005859v1.5908203l.0175781,2.5751953c0,.7264404-.1494141,1.2158203-.4482422,1.4677734-.2988281.2694092-.9726562.4042969-2.0214844.4042969h-.1845703c-.1933594,0-.3193359-.0294189-.3779297-.0878906-.0410156-.0469971-.0820312-.1582031-.1230469-.3339844-.1230469-.5216064-.2783203-.9285889-.4658203-1.2216797Zm1.9248047-5.2910156h-4.3681641v.8261719h4.3681641v-.8261719Zm-4.3681641,2.9179688h4.3681641v-.9052734h-4.3681641v.9052734Z"/>
        <path class="cls-1" d="m96.8745171,5.1152344l-2.3027344.0351562c-.0820312,0-.1318359-.0087891-.1494141-.0263672s-.0263672-.0732422-.0263672-.1669922v-1.4150391c0-.1054688.0087891-.1669922.0263672-.1845703s.0673828-.0263672.1494141-.0263672l2.3027344.0351562h4.3945312v-1.0986328c0-.9785156-.0410156-1.7050781-.1230469-2.1796875.75.0234375,1.4033203.0673828,1.9599609.1318359.1699219.0118408.2548828.0761719.2548828.1933594,0,.1289062-.0292969.2843018-.0878906.4658203-.0644531.1992188-.0966797.6503906-.0966797,1.3535156v1.1337891h4.3242188l2.3027344-.0351562c.09375,0,.1494141.0146484.1669922.0439453.0175781.0234375.0263672.0791016.0263672.1669922v1.4150391c0,.09375-.0117188.1494141-.0351562.1669922s-.0761719.0263672-.1582031.0263672l-2.3027344-.0351562h-4.1572266c.3457031,1.1660156.84375,2.2558594,1.4941406,3.2695312.75-.6561279,1.4033203-1.3153076,1.9599609-1.9775391.2285156-.2636719.4189453-.5506592.5712891-.8613281.5917969.3691406,1.0605469.7089844,1.40625,1.0195312.1464844.1348877.2197266.2548828.2197266.3603516,0,.1113281-.0849609.2080078-.2548828.2900391-.234375.1173096-.5390625.3634033-.9140625.7382812-.5742188.5919189-1.2480469,1.1923828-2.0214844,1.8017578,1.1953125,1.4589844,2.7451172,2.6749268,4.6494141,3.6474609-.3632812.3634033-.6884766.796875-.9755859,1.3007812-.1582031.2755127-.2724609.4130859-.3427734.4130859-.046875,0-.1845703-.0732422-.4130859-.2197266-2.7480469-1.7578125-4.6259766-4.1337891-5.6337891-7.1279297.0820312,3.5742188.1230469,5.7774658.1230469,6.609375,0,.8203125-.2285156,1.368042-.6855469,1.6435547-.3984375.2460938-1.2246094.3779297-2.4785156.3955078h-.1933594c-.1757812,0-.2900391-.038208-.3427734-.1142578-.0292969-.0410156-.0791016-.1845703-.1494141-.4306641-.1933594-.6270752-.4160156-1.0898438-.6679688-1.3886719.6445312.0645752,1.1132812.0966797,1.40625.0966797.5097656,0,.8349609-.0496826.9755859-.1494141.1289062-.0878906.1933594-.2666016.1933594-.5361328V5.1152344h-4.3945312Zm3.4453125,4.3681641c.0175781.3634033.0761719.7880859.1757812,1.2744141.046875.2167969.0703125.3574219.0703125.421875,0,.1173096-.1318359.2783203-.3955078.4833984-1.265625.9375-2.5722656,1.78125-3.9199219,2.53125-.1464844.0821533-.3193359.2021484-.5185547.3603516-.1054688.1230469-.2021484.1845703-.2900391.1845703-.1054688,0-.1962891-.0791016-.2724609-.2373047-.28125-.5039062-.5390625-1.0488281-.7734375-1.6347656.3925781-.1171875.8789062-.3164062,1.4589844-.5976562,1.5585938-.7910156,3.046875-1.7196045,4.4648438-2.7861328Zm-3.2080078-3.7441406c.890625.6035156,1.7197266,1.3417969,2.4873047,2.2148438.0703125.0703125.1054688.1289062.1054688.1757812,0,.0294189-.0351562.0909424-.1054688.1845703l-.9931641,1.0019531c-.1113281.1173096-.1875.1757812-.2285156.1757812-.0351562,0-.0791016-.0321045-.1318359-.0966797-.6796875-.890625-1.4765625-1.6787109-2.390625-2.3642578-.0820312-.0644531-.1230469-.1112061-.1230469-.140625,0-.0351562.0527344-.1083984.1582031-.2197266l.8613281-.8613281c.09375-.0936279.1640625-.140625.2109375-.140625.0351562,0,.0849609.0234375.1494141.0703125ZM106.1645562.2460938c.5800781.375,1.2451172.9522705,1.9951172,1.7314453.0527344.0410156.0791016.0821533.0791016.1230469,0,.0645752-.0615234.1436768-.1845703.2373047l-.8613281.7207031c-.1054688.0821533-.1757812.1230469-.2109375.1230469-.046875,0-.1083984-.046875-.1845703-.140625-.4804688-.6033936-1.1162109-1.2041016-1.9072266-1.8017578-.0703125-.0527344-.1054688-.0936279-.1054688-.1230469,0-.0351562.0527344-.0966797.1582031-.1845703l.8085938-.6855469c.0761719-.0584717.140625-.0878906.1933594-.0878906.0410156,0,.1142578.0294189.2197266.0878906Z"/>
      </g>
      <g>
        <rect class="cls-2" x=".5" y="1.1251715" width="20.2513754" height="14.9435571" rx="1.2304378" ry="1.2304378"/>
        <polyline class="cls-2" points=".5 1.5259088 10.6256877 8.9976874 20.7513754 1.5259088"/>
        <line class="cls-2" x1=".5" y1="12.1918432" x2="9.0127145" y2="7.4067318"/>
        <line class="cls-2" x1="20.7513754" y1="12.1918432" x2="12.238661" y2="7.4067318"/>
      </g>
      <polyline class="cls-1" points="201.9461471 2.6876377 207.0577969 7.7992875 201.9461471 12.9109372"/>
    </g>
  </g>
</svg>