<?xml version="1.0" encoding="UTF-8"?>
<svg id="_レイヤー_2" data-name="レイヤー 2" xmlns="http://www.w3.org/2000/svg" viewBox="0 0 114.0504938 18.8152174">
  <defs>
    <style>
      .cls-1 {
        stroke: #fff;
        stroke-miterlimit: 10;
        stroke-width: .8520443px;
      }

      .cls-1, .cls-2 {
        fill: none;
      }

      .cls-2 {
        opacity: .2;
      }

      .cls-2, .cls-3 {
        stroke-width: 0px;
      }

      .cls-3 {
        fill: #fff;
      }
    </style>
  </defs>
  <g id="_レイヤー_1-2" data-name="レイヤー 1">
    <g>
      <rect class="cls-2" y="0" width="114.0504938" height="18.8152174"/>
      <g>
        <path class="cls-3" d="m39.7954187,15.3937703c1.2572816.6380235,3.0055911,1.0665001,5.2449284,1.2854297-.3002463.281481-.613003.6786819-.9382698,1.1916027-.1626334.2439502-.309629.3659252-.4409868.3659252s-.2846085-.0125103-.4597522-.0375308c-.9257596-.1376129-1.9015602-.3940733-2.9274019-.7693813-.900739-.3377771-1.6763754-.7099575-2.3269092-1.1165411-.0750616-.0500411-.1125924-.093827-.1125924-.1313578,0-.0500411.071934-.0998215.2158021-.1501232l1.4543183-.6943197h-6.4552965c.4128387.1628941.9570352.4003285,1.6325895.7130851.1813988.0503017.2720983.1376129.2720983.2627156,0,.1125924-.0969546.1910422-.2908637.2345675-.1376129.0250205-.4003285.1407405-.7881467.3471598-1.276047.6442786-2.7366204,1.0915206-4.3817202,1.3417259-.2001642.0250205-.3283944.0375308-.3846906.0375308-.1626334,0-.3221393-.1344853-.4785176-.403456-.237695-.425349-.5254311-.7944018-.8632083-1.1071584,1.7451819-.1748831,3.1869899-.4910279,4.325424-.9476525.3502874-.1501232.6380235-.309629.8632083-.4785176l-2.3269092.0375308c-.1000821,0-.1595059-.0125103-.1782713-.0375308-.0187654-.0312757-.0281481-.0969546-.0281481-.1970367l.0375308-1.8859224v-3.2839444l-.0375308-1.9046878c0-.0998215.0125103-.1595059.0375308-.1782713s.0813167-.0281481.1688886-.0281481l2.5145632.0375308c-.0625513-.0875719-.1188475-.1907815-.1688886-.309629-.2502053-.425349-.4753901-.7190796-.6755543-.8819737,1.5199971-.2627156,2.6678139-.6474062,3.4434503-1.1540719.7255953-.4691349,1.2385162-1.1071584,1.5387625-1.9140705h-1.6138241c-.3753079.4503695-.7850191.850698-1.2291335,1.2009854-.2439502.1816595-.3909458.2720983-.4409868.2720983-.0813167,0-.2314399-.1279696-.4503695-.3846906-.2564604-.281481-.5379414-.4910279-.8444429-.6286408,1.1196687-.8069121,1.960984-1.7042629,2.5239459-2.6928344.143868-.2564604.2658431-.5441965.3659252-.8632083.5942376.093827,1.1009033.1939091,1.5199971.3002463.2189296.0562962.3283944.1282302.3283944.2158021,0,.1000821-.0594238.1910422-.1782713.2720983-.1251026.0750616-.2533329.2473384-.3846906.5160484l-.2158021.3659252h5.6952979c.2314399,0,.3909458-.0247599.4785176-.0750616.1000821-.0500411.187654-.0750616.2627156-.0750616.1125924,0,.3502874.1282302.7130851.3846906.425349.281481.6380235.5066657.6380235.6755543,0,.1000821-.0531686.1816595-.1595059.2439502-.1376129.0813167-.2502053.1970367-.3377771.3471598-.2064194.3377771-.5223035.7915349-.9476525,1.3604913-.2001642.2567211-.353415.3846906-.4597522.3846906-.093827,0-.2658431-.0562962-.5160484-.1688886-.4316041-.1936485-.7912742-.3221393-1.0790103-.3846906.4378593-.4188332.8037845-.8410547,1.0977757-1.2666643h-2.8429576c.7068299,1.8640294,2.7303652,2.9461673,6.0706059,3.2464137-.2064194.2754865-.3846906.6911921-.5348138,1.2478989-.0688065.2314399-.1251026.3786961-.1688886.4409868-.0437859.0625513-.1157199.093827-.2158021.093827-.0625513,0-.1907815-.0187654-.3846906-.0562962-.4753901-.0875719-.9820558-.2158021-1.5199971-.3846906-.0250205.3317826-.0375308.9135099-.0375308,1.7451819v3.2839444l.0375308,1.8859224c0,.1065979-.0109465.1722768-.0328394.1970367-.021893.0250205-.0828805.0375308-.1829626.0375308l-2.5708594-.0375308.1313578.0562962Zm-6.9431968-10.9589917c.0125103.2126745.0594238.5785997.1407405,1.0977757.0500411.2314399.0750616.3846906.0750616.4597522,0,.1376129-.1595059.2942518-.4785176.4691349-.756871.4003285-1.7576922.8290657-3.0024635,1.2854297-.2689707.1065979-.4409868.1970367-.5160484.2720983-.1063372.1000821-.1970367.1501232-.2720983.1501232-.1063372,0-.1970367-.0716734-.2720983-.2158021-.2001642-.3690528-.4222214-.9132493-.6661716-1.6325895.5629619-.1125924,1.0352244-.2283123,1.4167875-.3471598,1.4386804-.4691349,2.6302831-.9817951,3.5748081-1.5387625Zm-3.0306116-3.359006c.8569531.3565425,1.7389268.8572138,2.645921,1.5012317.093827.0690671.1407405.1253633.1407405.1688886,0,.0375308-.0469135.1032097-.1407405.1970367l-.8256775.9382698c-.1000821.1188475-.1782713.1782713-.2345675.1782713-.0437859,0-.1000821-.0281481-.1688886-.0844443-.9069942-.7255953-1.7764576-1.2632761-2.6083902-1.6138241-.1000821-.0622907-.1501232-.1125924-.1501232-.1501232,0-.0562962.0437859-.1279696.1313578-.2158021l.8069121-.8069121c.1000821-.1063372.1782713-.1595059.2345675-.1595059.0375308,0,.093827.0156378.1688886.0469135Zm10.7244243,8.181713h-8.2473919v.8069121h8.2473919v-.8069121Zm-8.2473919,2.7491306h8.2473919v-.8069121h-8.2473919v.8069121Zm8.2473919,1.9703667v-.8350602h-8.2473919v.8350602h8.2473919Zm-.9570352-6.0799886c1.0195866,0,1.6732479-.0059945,1.960984-.0187654-1.4949766-.6192581-2.5646042-1.4949766-3.2088829-2.6271556-.6692992,1.2385162-1.9516013,2.1204898-3.8469063,2.645921h5.0948052Z"/>
        <path class="cls-3" d="m52.6966291.6160203c.6943197.0187654,1.3448534.0625513,1.9516013.1313578.2064194.0187654.309629.0844443.309629.1970367,0,.0878325-.0406584.2220572-.1219751.403456-.0875719.1751437-.1313578.819683-.1313578,1.9328359v3.6123389h.1501232l2.0735763-.0375308c.1063372,0,.1688886.0127709.187654.0375308.0187654.0250205.0281481.0844443.0281481.1782713v1.3604913c0,.1313578-.071934.1970367-.2158021.1970367l-1.9516013-.0375308c.7255953,1.1949909,1.5888036,2.3021493,2.5896248,3.3214752-.2752258.3317826-.5316862.7540041-.7693813,1.2666643-.1125924.2314399-.2032918.3471598-.2720983.3471598s-.1688886-.0969546-.3002463-.2908637c-.6505338-.9382698-1.1697097-1.8543861-1.5575279-2.7491306l.1313578,7.5343068c0,.1000821-.0156378.1626334-.0469135.187654-.0250205.0187654-.0844443.0281481-.1782713.0281481h-1.585676c-.1000821,0-.1595059-.0125103-.1782713-.0375308s-.0281481-.0844443-.0281481-.1782713c0-.0500411.0093827-.4347317.0281481-1.1540719.0500411-2.2203113.0844443-4.1846835.1032097-5.8923346-.6004927,1.6078296-1.3761291,3.0650148-2.3269092,4.3723375-.1626334.2064194-.2783534.309629-.3471598.309629-.0813167,0-.1563783-.1092042-.2251848-.3283944-.2064194-.6317684-.4378593-1.0977757-.6943197-1.3980221,1.3573637-1.5700382,2.3894605-3.3496233,3.0962905-5.3387554h-.3471598l-2.0923417.0375308c-.143868,0-.2158021-.0656789-.2158021-.1970367v-1.3604913c0-.1063372.0125103-.1688886.0375308-.187654s.0844443-.0281481.1782713-.0281481l2.0923417.0375308h.7881467v-3.5654254c0-1.0380913-.0531686-1.9422186-.1595059-2.7115998Zm-1.3417259,1.5199971c.4628798,1.0508622.8069121,2.126745,1.0320968,3.2276483.0125103.0437859.0187654.0784498.0187654.1032097,0,.093827-.0875719.1751437-.2627156.2439502l-.8256775.309629c-.1188475.0437859-.1970367.0656789-.2345675.0656789-.0562962,0-.093827-.0622907-.1125924-.187654-.2001642-1.0943875-.5254311-2.1640151-.9758006-3.2088829-.0250205-.0622907-.0375308-.1125924-.0375308-.1501232,0-.0688065.0813167-.1344853.2439502-.1970367l.8069121-.3283944c.0875719-.0375308.1501232-.0562962.187654-.0562962.0500411,0,.1032097.0596844.1595059.1782713Zm3.7061659,3.4153022c.3815631-.9442643.6755543-1.9106823.8819737-2.8992538.0625513-.3002463.1032097-.5754722.1219751-.8256775.7631261.2567211,1.2478989.4349923,1.4543183.5348138.143868.0750616.2158021.1535114.2158021.2345675,0,.0878325-.0375308.1501232-.1125924.187654-.093827.0625513-.1720161.2064194-.2345675.4316041-.2001642.6883252-.4941554,1.5012317-.8819737,2.4395016-.1125924.2689707-.2095469.403456-.2908637.403456-.0625513,0-.1907815-.0594238-.3846906-.1782713-.237695-.1251026-.4941554-.2345675-.7693813-.3283944Zm4.9259167,6.3802349l2.9367846-.5723446V3.6653973c0-1.2134957-.0531686-2.1861687-.1595059-2.9180192.7506159.0187654,1.4324253.0625513,2.0454283.1313578.1939091.0250205.2908637.0972152.2908637.2158021,0,.0503017-.0406584.1782713-.1219751.3846906-.0750616.1816595-.1125924.8913563-.1125924,2.1298725v7.3654183c.4753901-.0998215.8976115-.1970367,1.2666643-.2908637.0625513-.0125103.1688886-.0406584.3190117-.0844443.0688065-.0125103.1157199-.021893.1407405-.0281481.0500411-.0125103.0844443-.0187654.1032097-.0187654.0500411,0,.0875719.0690671.1125924.2064194l.2251848,1.5012317c.0062551.0503017.0093827.0813167.0093827.093827,0,.0690671-.0656789.1125924-.1970367.1313578-.0375308.0127709-.2408226.0531686-.6098754.1219751-.4441144.0813167-.900739.1688886-1.369874.2627156v1.7920954l.0375308,3.3214752c0,.1000821-.0125103.1626334-.0375308.187654-.0250205.0187654-.0844443.0281481-.1782713.0281481h-1.5950587c-.1000821,0-.1595059-.0156378-.1782713-.0469135-.0187654-.0187654-.0281481-.0750616-.0281481-.1688886l.0375308-3.3027098v-1.4261702l-2.6365383.5254311c-.7193402.1376129-1.3417259.2627156-1.867157.3753079-.1125924.0187654-.259588.0469135-.4409868.0844443-.0813167.0187654-.1376129.0315363-.1688886.0375308-.0562962.0127709-.0969546.0187654-.1219751.0187654-.0750616,0-.1188475-.0562962-.1313578-.1688886l-.2439502-1.5199971c-.0125103-.0622907-.0187654-.1063372-.0187654-.1313578,0-.0562962.0625513-.0969546.187654-.1219751.0312757-.0059945.1532507-.0247599.3659252-.0562962.6192581-.0875719,1.3323432-.2095469,2.1392552-.3659252Zm-.9288871-5.4888786c.994566.6883252,1.8796672,1.5074869,2.6553037,2.458267.0625513.0813167.093827.1407405.093827.1782713,0,.0437859-.0500411.1188475-.1501232.2251848l-.9476525.9382698c-.1063372.1000821-.1813988.1501232-.2251848.1501232-.0375308,0-.0906994-.0375308-.1595059-.1125924-.8256775-1.0508622-1.6701203-1.920065-2.5333286-2.6083902-.0875719-.093827-.1313578-.146735-.1313578-.1595059,0-.0375308.0500411-.1063372.1501232-.2064194l.8819737-.8444429c.0875719-.093827.1469956-.1407405.1782713-.1407405s.093827.040919.187654.1219751Zm.5160484-4.447399c1.1196687.7821522,2.0235353,1.5984469,2.7115998,2.4488843.0562962.0562962.0844443.1094648.0844443.1595059,0,.0503017-.0469135.1188475-.1407405.2064194l-.9195044.900739c-.1188475.1125924-.1970367.1688886-.2345675.1688886s-.0813167-.0375308-.1313578-.1125924c-.756871-.9630297-1.629462-1.8046057-2.6177729-2.5239459-.0688065-.0435253-.1032097-.0904388-.1032097-.1407405,0-.0622907.0469135-.1344853.1407405-.2158021l.8444429-.8069121c.1125924-.0998215.1845264-.1501232.2158021-.1501232.0375308,0,.0875719.0221536.1501232.0656789Z"/>
        <path class="cls-3" d="m73.3198002,4.0125571h2.2987611l2.0641937-.0375308c.1000821,0,.1595059.0127709.1782713.0375308.0187654.0250205.0281481.0813167.0281481.1688886v1.369874c0,.1065979-.0125103.1722768-.0375308.1970367-.0250205.0187654-.0813167.0281481-.1688886.0281481l-2.0641937-.0375308h-2.2987611l-2.0641937.0375308c-.0875719,0-.1407405-.0153772-.1595059-.0469135-.0187654-.0247599-.0281481-.0844443-.0281481-.1782713v-1.369874c0-.1373523.0625513-.2064194.187654-.2064194l2.0641937.0375308Zm4.0814738,13.6799743c0,.1000821-.0125103.1626334-.0375308.187654-.0250205.0187654-.0813167.0281481-.1688886.0281481h-1.369874c-.1000821,0-.1595059-.0125103-.1782713-.0375308s-.0281481-.0844443-.0281481-.1782713v-.5160484h-1.9985148v.8632083c0,.1000821-.0125103.1626334-.0375308.187654-.0250205.0187654-.0844443.0281481-.1782713.0281481h-1.3604913c-.1125924,0-.1813988-.0156378-.2064194-.0469135-.0187654-.0187654-.0281481-.0750616-.0281481-.1688886l.0469135-2.8804884v-1.2291335l-.0469135-1.8014781c0-.1063372.0156378-.1688886.0469135-.187654.0250205-.0187654.0875719-.0281481.187654-.0281481l1.7451819.0375308h1.6325895l1.7639473-.0375308c.1063372,0,.1688886.0127709.187654.0375308.0187654.0250205.0281481.0844443.0281481.1782713l-.0375308,1.4730837v1.3229605l.0375308,2.767896Zm-3.5654254-16.3071298h1.6138241l1.7264165-.0375308c.1125924,0,.1813988.0127709.2064194.0375308.0187654.0250205.0281481.0813167.0281481.1688886v1.2666643c0,.1065979-.0156378.1688886-.0469135.187654-.0250205.0187654-.0875719.0281481-.187654.0281481l-1.7264165-.0375308h-1.6138241l-1.7451819.0375308c-.1063372,0-.1688886-.0125103-.187654-.0375308-.0187654-.0247599-.0281481-.0844443-.0281481-.1782713v-1.2666643c0-.0998215.0125103-.1595059.0375308-.1782713s.0844443-.0281481.1782713-.0281481l1.7451819.0375308Zm.0750616,5.3575208h1.463701l1.6138241-.0375308c.1063372,0,.1720161.0127709.1970367.0375308.0187654.0250205.0281481.0844443.0281481.1782713v1.2478989c0,.1000821-.0125103.1595059-.0375308.1782713s-.0875719.0281481-.187654.0281481l-1.6138241-.0375308h-1.463701l-1.6325895.0375308c-.1000821,0-.1626334-.0125103-.187654-.0375308-.0187654-.0247599-.0281481-.0810561-.0281481-.1688886v-1.2478989c0-.1063372.0156378-.1688886.0469135-.187654.0187654-.0187654.0750616-.0281481.1688886-.0281481l1.6325895.0375308Zm0,2.5990075h1.463701l1.6138241-.0469135c.1063372,0,.1720161.0127709.1970367.0375308.0187654.0250205.0281481.0844443.0281481.1782713v1.2291335c0,.1065979-.0125103.1688886-.0375308.187654s-.0875719.0281481-.187654.0281481l-1.6138241-.0375308h-1.463701l-1.6325895.0375308c-.1000821,0-.1626334-.0125103-.187654-.0375308-.0187654-.0247599-.0281481-.0844443-.0281481-.1782713v-1.2291335c0-.0998215.0156378-.1626334.0469135-.187654.0187654-.0187654.0750616-.0281481.1688886-.0281481l1.6325895.0469135Zm1.7076511,4.2034489h-1.9985148v2.0360456h1.9985148v-2.0360456Zm9.2231925-7.4873933h-.9758006v.900739h1.960984l2.552094-.0375308c.093827,0,.1501232.0156378.1688886.0469135.0187654.0250205.0281481.0878325.0281481.187654v1.0977757c0,.1253633-.0656789.187654-.1970367.187654l-2.552094-.0187654h-5.1698668l-2.5708594.0187654c-.143868,0-.2158021-.0622907-.2158021-.187654v-1.0977757c0-.1125924.0125103-.1813988.0375308-.2064194.0250205-.0187654.0844443-.0281481.1782713-.0281481l2.5708594.0375308h1.3417259v-.900739h-.6661716l-2.3081438.0375308c-.1313578,0-.1970367-.0716734-.1970367-.2158021v-.9758006c0-.143868.0656789-.2158021.1970367-.2158021l2.3081438.0375308h.6661716v-.8819737h-.9382698l-2.4207362.0375308c-.1000821,0-.1626334-.0125103-.187654-.0375308-.0187654-.0247599-.0281481-.0810561-.0281481-.1688886v-1.0602449c0-.0998215.0156378-.1626334.0469135-.187654.0187654-.0187654.0750616-.0281481.1688886-.0281481l2.4207362.0469135h.9382698c-.0187654-.6692992-.0625513-1.2979399-.1313578-1.8859224.6505338.0187654,1.2823021.0625513,1.8953051.1313578.2064194.0250205.309629.0972152.309629.2158021,0,.0062551-.0375308.1595059-.1125924.4597522-.0625513.2314399-.093827.59111-.093827,1.0790103h1.5012317l2.4395016-.0469135c.1000821,0,.1595059.0127709.1782713.0375308.0187654.0250205.0281481.0844443.0281481.1782713v1.0602449c0,.1000821-.0125103.1595059-.0375308.1782713s-.0813167.0281481-.1688886.0281481l-2.4395016-.0375308h-1.5012317v.8819737h.9570352l2.3081438-.0375308c.1125924,0,.1782713.0127709.1970367.0375308.0250205.0250205.0375308.0844443.0375308.1782713v.9758006c0,.1065979-.0156378.1688886-.0469135.187654-.0250205.0187654-.0875719.0281481-.187654.0281481l-2.2893784-.0375308Zm-1.491849,10.2740548c.425349.0375308.8600807.0562962,1.3041951.0562962.3190117,0,.5316862-.0594238.6380235-.1782713.0750616-.0810561.1125924-.2189296.1125924-.4128387v-.7318505h-4.6632011v.6755543l.0375308,2.2799957c0,.1000821-.0125103.1626334-.0375308.187654-.0250205.0187654-.0844443.0281481-.1782713.0281481h-1.463701c-.1000821,0-.1595059-.0156378-.1782713-.0469135-.0187654-.0187654-.0281481-.0750616-.0281481-.1688886l.0375308-2.2424649v-4.2878932l-.0375308-2.0923417c0-.1063372.0125103-.1688886.0375308-.187654s.0813167-.0281481.1688886-.0281481l2.3081438.0375308h3.3027098l2.2893784-.0375308c.1125924,0,.1813988.0127709.2064194.0375308.0187654.0250205.0281481.0844443.0281481.1782713l-.0375308,2.2424649v1.6982684l.0187654,2.7491306c0,.7756364-.1595059,1.2979399-.4785176,1.5669106-.3190117.2877361-1.038352.4316041-2.1580206.4316041h-.1970367c-.2064194,0-.3409047-.0312757-.403456-.093827-.0437859-.0500411-.0875719-.1688886-.1313578-.3565425-.1313578-.5567068-.2971188-.9911778-.497283-1.3041951Zm2.054811-5.6483844h-4.6632011v.8819737h4.6632011v-.8819737Zm-4.6632011,3.1150559h4.6632011v-.9664179h-4.6632011v.9664179Z"/>
        <path class="cls-3" d="m95.5661781,6.0016892l-2.458267.0375308c-.0875719,0-.1407405-.0093827-.1595059-.0281481s-.0281481-.0781892-.0281481-.1782713v-1.5106144c0-.1125924.0093827-.1782713.0281481-.1970367s.071934-.0281481.1595059-.0281481l2.458267.0375308h4.6913492v-1.1728373c0-1.0446071-.0437859-1.8202435-.1313578-2.3269092.8006569.0250205,1.4981042.071934,2.0923417.1407405.1813988.0127709.2720983.0813167.2720983.2064194,0,.1376129-.0312757.3036345-.093827.497283-.0688065.2126745-.1032097.6943197-.1032097,1.4449356v1.2103681h4.6162876l2.458267-.0375308c.1000821,0,.1595059.0156378.1782713.0469135.0187654.0250205.0281481.0844443.0281481.1782713v1.5106144c0,.1000821-.0125103.1595059-.0375308.1782713s-.0813167.0281481-.1688886.0281481l-2.458267-.0375308h-4.4380163c.3690528,1.2447713.900739,2.4082259,1.5950587,3.4903638.8006569-.7003142,1.4981042-1.4040166,2.0923417-2.1111071.2439502-.281481.447242-.5877218.6098754-.9195044.6317684.3940733,1.1321789.756871,1.5012317,1.088393.1563783.1441287.2345675.2720983.2345675.3846906,0,.1188475-.0906994.2220572-.2720983.309629-.2502053.1253633-.5754722.3880788-.9758006.7881467-.613003.632029-1.3323432,1.2729194-2.1580206,1.9234532,1.276047,1.5575279,2.9305295,2.8557285,4.9634475,3.8938198-.3878182.3880788-.734978.850698-1.0414795,1.3886394-.1688886.2942518-.2908637.4409868-.3659252.4409868-.0500411,0-.1970367-.0781892-.4409868-.2345675-2.933657-1.8765397-4.9384269-4.4129958-6.0143097-7.6093684.0875719,3.8156307.1313578,6.1678211.1313578,7.0557892,0,.8757185-.2439502,1.4605734-.7318505,1.7545646-.425349.2627156-1.3073226.403456-2.645921.4222214h-.2064194c-.187654,0-.309629-.0406584-.3659252-.1219751-.0312757-.0437859-.0844443-.1970367-.1595059-.4597522-.2064194-.6692992-.4441144-1.1634546-.7130851-1.4824663.6880646.0690671,1.1884751.1032097,1.5012317.1032097.5441965,0,.8913563-.052908,1.0414795-.1595059.1376129-.093827.2064194-.2846085.2064194-.5723446V6.0016892h-4.6913492Zm3.6780178,4.6632011c.0187654.3880788.0813167.8413153.187654,1.3604913.0500411.2314399.0750616.3815631.0750616.4503695,0,.1253633-.1407405.2971188-.4222214.5160484-1.3511086,1.0008212-2.7460031,1.9015602-4.1846835,2.7022171-.1563783.0878325-.3409047.2158021-.5535792.3846906-.1125924.1313578-.2158021.1970367-.309629.1970367-.1125924,0-.2095469-.0844443-.2908637-.2533329-.3002463-.5379414-.5754722-1.1196687-.8256775-1.7451819.4190939-.1251026.9382698-.3377771,1.5575279-.6380235,1.6638652-.8444429,3.2526688-1.8356207,4.7664108-2.9743154Zm-3.4246849-3.9970295c.9507801.6442786,1.8358813,1.4324253,2.6553037,2.36444.0750616.0750616.1125924.1376129.1125924.187654,0,.0315363-.0375308.0972152-.1125924.1970367l-1.0602449,1.0696276c-.1188475.1253633-.2001642.187654-.2439502.187654-.0375308,0-.0844443-.0341426-.1407405-.1032097-.7255953-.9507801-1.5762933-1.7920954-2.552094-2.5239459-.0875719-.0688065-.1313578-.1185869-.1313578-.1501232,0-.0375308.0562962-.1157199.1688886-.2345675l.9195044-.9195044c.1000821-.0998215.1751437-.1501232.2251848-.1501232.0375308,0,.0906994.0250205.1595059.0750616Zm9.6641794-5.8641865c.6192581.4003285,1.3292156,1.0167196,2.1298725,1.8483916.0562962.0437859.0844443.0878325.0844443.1313578,0,.0690671-.0656789.1535114-.1970367.2533329l-.9195044.7693813c-.1125924.0878325-.187654.1313578-.2251848.1313578-.0500411,0-.1157199-.0500411-.1970367-.1501232-.5129208-.644018-1.1916027-1.2854297-2.0360456-1.9234532-.0750616-.0562962-.1125924-.0998215-.1125924-.1313578,0-.0375308.0562962-.1032097.1688886-.1970367l.8632083-.7318505c.0813167-.0622907.1501232-.093827.2064194-.093827.0437859,0,.1219751.0315363.2345675.093827Z"/>
      </g>
      <g>
        <rect class="cls-1" x=".8984655" y="3.0413224" width="17.2550688" height="12.7325725" rx="1.2304378" ry="1.2304378"/>
        <polyline class="cls-1" points=".8984655 3.3827684 9.5259999 9.7490546 18.1535343 3.3827684"/>
        <line class="cls-1" x1=".8984655" y1="12.4706168" x2="8.1516752" y2="8.39349"/>
        <line class="cls-1" x1="18.1535343" y1="12.4706168" x2="10.9003245" y2="8.39349"/>
      </g>
    </g>
  </g>
</svg>