<?xml version="1.0" encoding="UTF-8"?>
<svg id="_レイヤー_2" data-name="レイヤー 2" xmlns="http://www.w3.org/2000/svg" viewBox="0 0 206.413047 21.1756201">
  <defs>
    <style>
      .cls-1 {
        fill: #a69a7f;
        stroke-width: 0px;
      }

      .cls-2 {
        fill: none;
        stroke: #a69a7f;
        stroke-miterlimit: 10;
      }
    </style>
  </defs>
  <g id="_レイヤー_1-2" data-name="レイヤー 1">
    <g>
      <g>
        <path class="cls-1" d="m34.4049167,17.0154638V2.6502294h2.9785156c2.1484375,0,3.7075195.1726074,4.6777344.5175781,1.3930664.4882812,2.4819336,1.3347168,3.2666016,2.5390625.784668,1.2045898,1.1767578,2.6401367,1.1767578,4.3066406,0,1.4389648-.3110352,2.7050781-.9326172,3.7988281s-1.4291992,1.901123-2.421875,2.421875c-.9926758.5209961-2.3842773.78125-4.1748047.78125h-4.5703125Zm1.3769531-1.3574219h1.6601562c1.9858398,0,3.362793-.1235352,4.1308594-.3708496,1.0805664-.3511963,1.9301758-.9836426,2.5488281-1.8977051.6186523-.9139404.9277344-2.03125.9277344-3.3516846,0-1.385498-.3354492-2.569458-1.0058594-3.5516357s-1.6049805-1.6555176-2.8027344-2.0197754c-.8984375-.2731934-2.3793945-.4099121-4.4433594-.4099121h-1.015625v11.6015625Z"/>
        <path class="cls-1" d="m60.5084323,13.4900732l1.1523438.6054688c-.3779297.7421875-.8144531,1.3413086-1.3100586,1.796875-.4951172.4558105-1.0522461.8024902-1.6708984,1.0400391-.6196289.2375488-1.3203125.3564453-2.1020508.3564453-1.7333984,0-3.0883789-.5678711-4.065918-1.7041016-.9775391-1.1359863-1.4663086-2.420166-1.4663086-3.8525391,0-1.3476562.4135742-2.5488281,1.2412109-3.6035156,1.0493164-1.3410645,2.4536133-2.0117188,4.2128906-2.0117188,1.8115234,0,3.2583008.6870117,4.3398438,2.0605469.769043.9702148,1.159668,2.1811523,1.1728516,3.6328125h-9.5605469c.0258789,1.2341309.4204102,2.2458496,1.1831055,3.0349121.7626953.7893066,1.7045898,1.1838379,2.8256836,1.1838379.5410156,0,1.0668945-.0939941,1.5791016-.2821045.5112305-.1879883.9467773-.4378662,1.3051758-.7491455s.7460938-.8138428,1.1635742-1.5078125Zm0-2.8613281c-.1826172-.7290039-.4482422-1.3117676-.796875-1.7480469-.3491211-.4360352-.8100586-.7875977-1.3833008-1.0546875-.5742188-.2668457-1.1767578-.4003906-1.809082-.4003906-1.0429688,0-1.9394531.3354492-2.6889648,1.0058594-.5478516.4882812-.9614258,1.2207031-1.2416992,2.1972656h7.9199219Z"/>
        <path class="cls-1" d="m72.4029636,7.5525732l-.8789062.9082031c-.730957-.7094727-1.4458008-1.0644531-2.144043-1.0644531-.4443359,0-.8242188.1464844-1.140625.4394531-.3168945.2929688-.4750977.6347656-.4750977,1.0253906,0,.3452148.1303711.6738281.3911133.9863281.2612305.3190918.8095703.6933594,1.6445312,1.1230469,1.0175781.5273438,1.7089844,1.0351562,2.074707,1.5234375.3588867.494873.5380859,1.0515137.5380859,1.6699219,0,.8725586-.3066406,1.6113281-.9194336,2.2167969-.6132812.6054688-1.3789062.9082031-2.2983398.9082031-.612793,0-1.1982422-.1335449-1.7553711-.4003906-.5576172-.2668457-1.019043-.6347656-1.3842773-1.1035156l.859375-.9765625c.6982422.7878418,1.4389648,1.1816406,2.222168,1.1816406.5478516,0,1.0146484-.1757812,1.3994141-.5273438s.5776367-.7648926.5776367-1.2402344c0-.390625-.1274414-.7387695-.3813477-1.0449219-.2548828-.2993164-.8291016-.677002-1.7226562-1.1328125-.9589844-.4946289-1.6118164-.9829102-1.9575195-1.4648438-.3457031-.4816895-.5185547-1.0317383-.5185547-1.6503906,0-.8071289.2753906-1.4777832.8266602-2.0117188.5507812-.5336914,1.2470703-.8007812,2.0883789-.8007812.9780273,0,1.9628906.4785156,2.9541016,1.4355469Z"/>
        <path class="cls-1" d="m77.7984714,2.0154638c.3110352,0,.5766602.1108398.7973633.3320312.2202148.2214355.3305664.4882812.3305664.8007812,0,.3061523-.1103516.5698242-.3305664.7910156-.2207031.2214355-.4863281.3320312-.7973633.3320312-.3046875,0-.5673828-.1105957-.7875977-.3320312-.2207031-.2211914-.3305664-.4848633-.3305664-.7910156,0-.3125.1098633-.5793457.3305664-.8007812.2202148-.2211914.4829102-.3320312.7875977-.3320312Zm-.6787109,4.375h1.3671875v10.625h-1.3671875V6.3904638Z"/>
        <path class="cls-1" d="m92.9889011,6.3904638h1.3671875v8.4667969c0,1.4909668-.1303711,2.5812988-.390625,3.2714844-.3579102.9765625-.9799805,1.7285156-1.8652344,2.2558594s-1.949707.7910156-3.1933594.7910156c-.9116211,0-1.7299805-.1291504-2.4560547-.3868408-.7260742-.2579346-1.3168945-.604126-1.7724609-1.038208-.4555664-.4343262-.8754883-1.0693359-1.2597656-1.9050293h1.484375c.4038086.703125.925293,1.223877,1.5644531,1.5625.6386719.3383789,1.4306641.5078125,2.3759766.5078125.9321289,0,1.7192383-.173584,2.3608398-.5206299.6425781-.34729,1.1005859-.7836914,1.3740234-1.309082.2739258-.5256348.4106445-1.3740234.4106445-2.5452881v-.546875c-.5151367.651123-1.144043,1.1508789-1.8867188,1.4990234-.7426758.3483887-1.5317383.5224609-2.3657227.5224609-.9775391,0-1.8964844-.2424316-2.7568359-.7275391-.8603516-.4848633-1.5249023-1.1376953-1.9941406-1.9580078s-.7036133-1.7219238-.7036133-2.7050781c0-.9829102.2441406-1.8994141.7329102-2.7490234.4892578-.8496094,1.1650391-1.5217285,2.0283203-2.0166016.8637695-.4946289,1.7744141-.7421875,2.7324219-.7421875.7949219,0,1.5366211.1645508,2.2241211.4931641.6875.3288574,1.3505859.8708496,1.9892578,1.6259766v-1.8457031Zm-4.0332031,1.0449219c-.7749023,0-1.4941406.1872559-2.1582031.5615234-.6640625.3745117-1.1850586.8920898-1.5625,1.5527344-.3774414.6608887-.5664062,1.3754883-.5664062,2.1435547,0,1.1655273.390625,2.1289062,1.171875,2.890625s1.793457,1.1425781,3.0371094,1.1425781c1.2563477,0,2.2670898-.3774414,3.0322266-1.1328125.7651367-.755127,1.1474609-1.7480469,1.1474609-2.9785156,0-.8007812-.1757812-1.5151367-.5273438-2.1435547-.3515625-.6281738-.8496094-1.1245117-1.4941406-1.4892578-.6445312-.364502-1.3378906-.546875-2.0800781-.546875Z"/>
        <path class="cls-1" d="m99.7857761,6.3904638h1.3671875v1.9042969c.546875-.7290039,1.1523438-1.2744141,1.8164062-1.6357422s1.3867188-.5419922,2.1679688-.5419922c.7944336,0,1.4990234.2019043,2.1142578.6054688.6152344.4038086,1.0693359.9472656,1.3623047,1.6308594s.4394531,1.7480469.4394531,3.1933594v5.46875h-1.3671875v-5.0683594c0-1.223877-.0507812-2.0410156-.1518555-2.4511719-.1586914-.703125-.4628906-1.2319336-.9121094-1.5869141-.4492188-.3547363-1.0351562-.5322266-1.7578125-.5322266-.8271484,0-1.5678711.2734375-2.222168.8203125s-1.0854492,1.2241211-1.2939453,2.03125c-.1303711.5273438-.1953125,1.4909668-.1953125,2.890625v3.8964844h-1.3671875V6.3904638Z"/>
      </g>
      <g>
        <polyline class="cls-2" points=".3253627 9.5638229 10.7110352 .6633814 20.7421057 9.5638229"/>
        <polyline class="cls-2" points="3.2517626 10.104001 3.2517626 18.3966404 17.8157059 18.3966404 17.8157059 10.104001"/>
        <path class="cls-2" d="m8.3899762,18.3966404v-4.9667792c0-.6168498.5000556-1.1169054,1.1169054-1.1169054h2.0537052c.6168498,0,1.1169054.5000556,1.1169054,1.1169054v4.9667792"/>
        <polyline class="cls-2" points="14.923334 .6633814 17.8497338 .6633814 17.8497338 4.2022835"/>
      </g>
      <polyline class="cls-1" points="206.413047 8.1973522 201.3013972 13.3090019 196.1897474 8.1973522"/>
    </g>
  </g>
</svg>