<?xml version="1.0" encoding="UTF-8"?>
<svg id="_レイヤー_2" data-name="レイヤー 2" xmlns="http://www.w3.org/2000/svg" viewBox="0 0 114.0504938 18.8152174">
  <defs>
    <style>
      .cls-1 {
        opacity: .2;
      }

      .cls-1, .cls-2 {
        stroke-width: 0px;
      }

      .cls-1, .cls-3 {
        fill: none;
      }

      .cls-2 {
        fill: #fff;
      }

      .cls-3 {
        stroke: #fff;
        stroke-miterlimit: 10;
        stroke-width: .9843658px;
      }
    </style>
  </defs>
  <g id="_レイヤー_1-2" data-name="レイヤー 1">
    <g>
      <rect class="cls-1" y="0" width="114.0504938" height="18.8152174"/>
      <g>
        <path class="cls-2" d="m40.6805703,9.4875732c-.0627172,1.1728124-.1850159,2.129381-.3668959,2.8693138-.1631955.6900203-.4202055,1.3703717-.7714221,2.0414462-.3951186.7840962-.9407586,1.5303007-1.63692,2.2390055-.5771293.5832703-1.1603996,1.0503831-1.749811,1.4017303-.2445972.1566624-.4360155.2351897-.5738628.2351897-.1443803,0-.2790917-.0627172-.4045262-.1881517-.4077927-.4139338-.9816555-.7557428-1.7215883-1.0254269,1.0348345-.5581834,1.850028-1.1100952,2.4459724-1.6557352.5581834-.5141507,1.0221604-1.1068286,1.3923228-1.7780338.3636293-.6458569.614629-1.3076545.7526069-1.9850007.112891-.54564.1881517-1.2637524.2257821-2.1543372h-3.659551c-.6147596,0-1.5773386.0376303-2.888129.112891-.1443803.0188152-.2290486-.1034834-.2540048-.3668959-.1003476-.5705962-.1505214-1.1853559-.1505214-1.8438869.7211176.0627172,1.8123976.0940759,3.27384.0940759h8.6549793c1.3735076,0,2.6247166-.0376303,3.7536269-.112891.1378473,0,.2069669.1285703.2069669.385711.0125434.1317062.0188152.3763034.0188152.7337917,0,.36376-.0062717.6114931-.0188152.7431993,0,.219641-.0940759.3292655-.2822276.3292655-1.3358772-.0501738-2.5557276-.0752607-3.659551-.0752607h-2.5870862Zm-7.0086517-6.5759028c1.1226386.0627172,2.1887011.0940759,3.1985793.0940759h3.54666c1.3232031,0,2.4050755-.0249562,3.2456172-.0752607.1566624,0,.2351897.1222986.2351897.3668959.0188152.2320538.0282228.4642382.0282228.6961614,0,.2320538-.0094076.4672434-.0282228.705569,0,.2445972-.0846683.3668959-.2540048.3668959-1.022291-.0376303-2.0978917-.0564455-3.2268021-.0564455h-3.54666c-.3889776,0-1.3015134.0250869-2.7376076.0752607-.2008258,0-.3104503-.1096245-.3292655-.3292655-.0188152-.1754776-.0408969-.4765204-.0658531-.9031283-.0314893-.43889-.0533097-.7526069-.0658531-.9407586Zm10.3859752-.6303083l1.09128-.6209007c.0376303-.0188152.0719942-.0282228.1034834-.0282228.0564455,0,.112891.0314893.1693366.0940759.5894114.54564,1.1350514,1.2888393,1.63692,2.2295979.0249562.0439021.0376303.0846683.0376303.1222986,0,.0691196-.0439021.1317062-.1317062.1881517l-.8654979.5174172c-.0503045.0250869-.0940759.0376303-.1317062.0376303-.0691196,0-.1285703-.0437714-.1787441-.1317062-.5268248-.9972041-1.1039541-1.7999848-1.7309959-2.4083421Zm1.8815172-1.1006876l1.0442421-.6020855c.0437714-.0249562.0814018-.0376303.112891-.0376303.0376303,0,.0908093.0344945.159929.1034834.6834873.6397159,1.2291273,1.3579589,1.63692,2.1543372.0249562.0503045.0376303.0973424.0376303.1411138,0,.0752607-.0439021.1443803-.1317062.2069669l-.8090524.5174172c-.0564455.0314893-.10675.0470379-.1505214.0470379-.0752607,0-.1349727-.0470379-.1787441-.1411138-.4703793-.9156717-1.0442421-1.7121807-1.7215883-2.3895269Z"/>
        <path class="cls-2" d="m65.7800103,6.4865532h.6773462c1.0409755,0,2.0099569-.0188152,2.9069441-.0564455h.0470379c.1317062,0,.2069669.1034834.2257821.3104503.0188152.2445972.0282228.4954662.0282228.7526069,0,.2634124-.0094076.5174172-.0282228.7620145-.0188152.2069669-.1034834.3104503-.2540048.3104503h-.0752607l-2.7752379-.0188152h-.7902372c-.0627172,1.4487683-.2226462,2.6498034-.4797869,3.6031055-.2257821.8153241-.5613193,1.5931486-1.0066117,2.3330814-.9158024,1.524029-2.4304238,2.7187924-4.5438641,3.5842903-.2696841.112891-.4515641.1693366-.54564.1693366-.1003476,0-.219641-.0691196-.3574883-.2069669-.5080097-.5268248-1.0411062-.9125359-1.5992897-1.1571331,1.4487683-.4515641,2.5870862-.9657149,3.4149538-1.5428441.72752-.5080097,1.3232031-1.1320462,1.7874414-1.8721097.3951186-.6522593.6804821-1.3829152.8560903-2.1919676.1505214-.7149766.2413307-1.6212407.27282-2.7187924h-4.1017076v.6961614c0,1.4487683.0188152,2.5118255.0564455,3.1891717.0125434.1631955-.0973424.2540048-.3292655.27282-.2445972.0188152-.5174172.0282228-.81846.0282228s-.5801345-.0094076-.8372752-.0282228c-.2320538-.0188152-.3480807-.0940759-.3480807-.2257821v-.0470379c.068989-1.09128.1034834-2.1416631.1034834-3.1515414v-.7337917h-.5832703c-1.1163669,0-2.1764189.0314893-3.1797641.0940759-.1317062,0-.2069669-.1222986-.2257821-.3668959-.0376303-.2006952-.0815324-.8215959-.1317062-1.8627021.8968566.0627172,2.07581.0940759,3.5372524.0940759h.5832703v-1.4111379c0-.9909324-.0785272-1.9346962-.2351897-2.8316834,1.2794317.1255651,2.0633972.2290486,2.3518966.3104503.1942928.0314893.2916352.1222986.2916352.27282,0,.0627172-.0376303.1975593-.112891.4045262-.0940759.2320538-.1411138.8466828-.1411138,1.8438869v1.4111379h4.1393379l.0188152-1.8909248c.0061411-.0878041.0094076-.2195103.0094076-.3951186,0-.9156717-.059712-1.6651428-.1787441-2.2484131,1.1790841.1255651,1.931691.2351897,2.2578207.3292655.2319231.0503045.3480807.1537879.3480807.3104503,0,.0940759-.0282228.2102334-.0846683.3480807-.1003476.2822276-.1505214.8466828-.1505214,1.6933655v1.8344793Zm.6020855-4.1863759l1.0442421-.4797869c.0376303-.0188152.068989-.0282228.0940759-.0282228.0564455,0,.112891.0344945.1693366.1034834.5705962.6083572,1.0661931,1.3861817,1.4863986,2.3330814.0188152.0439021.0282228.0815324.0282228.112891,0,.0691196-.0470379.1285703-.1411138.1787441l-.7902372.4045262c-.0564455.0250869-.1034834.0376303-.1411138.0376303-.0752607,0-.1379779-.0501738-.1881517-.1505214-.4390207-.9972041-.9595738-1.8344793-1.5616593-2.5118255Zm1.8532945-.8654979l.9972041-.4421566c.0437714-.0249562.0783966-.0376303.1034834-.0376303.0501738,0,.1066193.0376303.1693366.112891.6397159.6836179,1.1320462,1.4362248,1.476991,2.2578207.0249562.0439021.0376303.0879348.0376303.1317062,0,.0815324-.0503045.1443803-.1505214.1881517l-.7714221.385711c-.0503045.0250869-.0940759.0376303-.1317062.0376303-.0691196,0-.1285703-.0437714-.1787441-.1317062-.3951186-.9344869-.9125359-1.7686262-1.5522517-2.5024179Z"/>
        <path class="cls-2" d="m84.7645193,7.3896815v6.3783434c0,1.1289103.0188152,2.4647876.0564455,4.0076317v.0564455c0,.18188-.0973424.27282-.2916352.27282-.3137169.0188152-.6335748.0282228-.9595738.0282228-.3261297,0-.6459876-.0094076-.9595738-.0282228-.1820107,0-.27282-.0815324-.27282-.2445972v-.0658531c.0061411-.3010428.021951-1.0127528.0470379-2.1355221.0188152-.7337917.0282228-1.3390131.0282228-1.8156641v-4.4874186c-1.9379628,1.6307789-3.7034531,2.8631727-5.296471,3.6971814-.0879348.0503045-.1850159.0752607-.2916352.0752607-.1379779,0-.27282-.0625866-.4045262-.1881517-.36376-.3636293-.9158024-.7431993-1.6557352-1.1383179,2.2766359-1.1726818,4.2992669-2.4897438,6.0678931-3.9511862,1.5678004-1.2855728,2.9351669-2.6278524,4.1017076-4.0264469.5644552-.658531.9721172-1.3201979,1.2229862-1.9850007,1.0160193.5707269,1.7277293,1.022291,2.1355221,1.3546924.1002169.0691196.1505214.1631955.1505214.2822276,0,.1693366-.09094.3104503-.27282.4233414-.2822276.1881517-.6648028.5425041-1.1477255,1.0630572-.6648028.796509-1.4174097,1.6055614-2.2578207,2.4271572Z"/>
        <path class="cls-2" d="m93.9839538,5.3670504c.3198579-.3888469.7681555-.8904542,1.3452848-1.5052138.0814018-.1002169.1724724-.1505214.27282-.1505214.0564455,0,.1411138.0314893.2540048.0940759,1.1978993.6397159,2.4238907,1.5522517,3.6783662,2.7376076.112891.112891.1693366.203831.1693366.27282,0,.0691196-.0376303.1505214-.112891.2445972-.4202055.5583141-.81846,1.0411062-1.1947634,1.4487683-.10675.1003476-.1850159.1505214-.2351897.1505214-.0627172,0-.1443803-.0501738-.2445972-.1505214-1.1728124-1.2103121-2.4836028-2.2578207-3.932371-3.1421338Zm.4233414,9.6145531c1.0285628-.2822276,1.8970659-.6020855,2.6059014-.9595738,1.2418014-.6458569,2.2733693-1.2385349,3.0950959-1.7780338.7211176-.4703793,1.5365724-1.0724648,2.4459724-1.8062566,1.2919752-1.0473779,2.3174021-1.9505062,3.0762807-2.7093848.7211176-.72752,1.4581759-1.5710669,2.2107828-2.5306407.1002169.8466828.2789611,1.5961538.5362324,2.2484131.0625866.1505214.0940759.27282.0940759.3668959,0,.1443803-.1034834.3386731-.3104503.5832703-1.1227693,1.310921-2.5997603,2.6717545-4.4309731,4.0828924-1.5931486,1.2480731-3.5311114,2.5056845-5.8138883,3.7724421-.6773462.4077927-1.1069593.705569-1.2888393.8937207-.1317062.1255651-.2478638.1881517-.3480807.1881517-.1003476,0-.2102334-.068989-.3292655-.2069669-.5959445-.6710745-1.1100952-1.386051-1.5428441-2.1449297Z"/>
      </g>
      <g>
        <polyline class="cls-3" points=".9904376 9.4408921 11.2137616 .679582 21.0880268 9.4408921"/>
        <polyline class="cls-3" points="3.8710921 9.9726262 3.8710921 18.1356354 18.2073724 18.1356354 18.2073724 9.9726262"/>
        <path class="cls-3" d="m8.9289854,18.1356354v-4.8891387c0-.6072072.4922387-1.099446,1.099446-1.099446h2.0216018c.6072072,0,1.099446.4922387,1.099446,1.099446v4.8891387"/>
        <polyline class="cls-3" points="15.3602139 .679582 18.2408684 .679582 18.2408684 4.1631641"/>
      </g>
    </g>
  </g>
</svg>