<?xml version="1.0" encoding="UTF-8"?>
<svg id="_レイヤー_2" data-name="レイヤー 2" xmlns="http://www.w3.org/2000/svg" viewBox="0 0 205.8190004 20.7456309">
  <defs>
    <style>
      .cls-1 {
        fill: #a69a7f;
        stroke-width: 0px;
      }

      .cls-2 {
        fill: none;
        stroke: #a69a7f;
        stroke-miterlimit: 10;
      }
    </style>
  </defs>
  <g id="_レイヤー_1-2" data-name="レイヤー 1">
    <g>
      <g>
        <path class="cls-1" d="m32.9614033,4.3708623h1.4355469v12.9785156h5.5273438v1.3867188h-6.9628906V4.3708623Z"/>
        <path class="cls-1" d="m49.5043721,7.8376592c1.637207,0,2.9936523.5925293,4.0698242,1.7773438.9780273,1.0808105,1.4672852,2.3601074,1.4672852,3.8378906,0,1.484375-.5170898,2.7817383-1.550293,3.8916016-1.0341797,1.1101074-2.3632812,1.6650391-3.9868164,1.6650391-1.6303711,0-2.9624023-.5549316-3.996582-1.6650391-1.0332031-1.1098633-1.550293-2.4072266-1.550293-3.8916016,0-1.4711914.4887695-2.7473145,1.4672852-3.828125,1.0761719-1.1914062,2.4360352-1.7871094,4.0795898-1.7871094Zm-.0048828,1.3378906c-1.1367188,0-2.1137695.4199219-2.9301758,1.2597656-.8168945.8398438-1.2250977,1.8554688-1.2250977,3.046875,0,.7683105.1860352,1.484375.5585938,2.1484375s.8754883,1.1767578,1.5092773,1.5380859,1.3295898.5419922,2.0874023.5419922,1.4536133-.1806641,2.0874023-.5419922,1.1367188-.8740234,1.5092773-1.5380859.5585938-1.380127.5585938-2.1484375c0-1.1914062-.4101562-2.2070312-1.2299805-3.046875-.8203125-.8398438-1.7949219-1.2597656-2.925293-1.2597656Z"/>
        <path class="cls-1" d="m70.3832783,10.3181279l-1.0839844.6738281c-.9365234-1.2434082-2.2143555-1.8652344-3.8334961-1.8652344-1.2939453,0-2.3686523.4162598-3.2236328,1.2486572-.8554688.8323975-1.2827148,1.8435059-1.2827148,3.0335693,0,.7739258.1967773,1.5024414.590332,2.1850586.3930664.6828613.9331055,1.2127686,1.6191406,1.5899658s1.4550781.5657959,2.3066406.5657959c1.5605469,0,2.8349609-.621582,3.8237305-1.8652344l1.0839844.7128906c-.5078125.7647705-1.1899414,1.3580322-2.0458984,1.7796631-.855957.4215088-1.8310547.6324463-2.9248047.6324463-1.6796875,0-3.0727539-.5336914-4.1796875-1.6015625-1.1069336-1.067627-1.6601562-2.3664551-1.6601562-3.8964844,0-1.0285645.2587891-1.9838867.7763672-2.8662109.5175781-.8820801,1.2290039-1.5705566,2.1337891-2.0654297.9047852-.4946289,1.9174805-.7421875,3.0371094-.7421875.703125,0,1.3818359.1074219,2.0361328.3222656s1.2094727.494873,1.6650391.8398438c.4555664.3452148.8432617.784668,1.1621094,1.3183594Z"/>
        <path class="cls-1" d="m86.0961689,8.1110967v10.625h-1.3476562v-1.8261719c-.5727539.6967773-1.2158203,1.2207031-1.9287109,1.5722656s-1.4926758.5273438-2.3388672.5273438c-1.5039062,0-2.7880859-.545166-3.8525391-1.6357422-1.0644531-1.090332-1.5966797-2.4169922-1.5966797-3.9794922,0-1.5297852.5371094-2.8383789,1.6113281-3.9257812,1.0742188-1.0871582,2.3666992-1.6308594,3.8769531-1.6308594.8725586,0,1.6616211.1855469,2.3681641.5566406s1.3266602.9277344,1.8603516,1.6699219v-1.953125h1.3476562Zm-5.4638672,1.0449219c-.7607422,0-1.4633789.1870117-2.1069336.5609131-.644043.3740234-1.15625.8991699-1.5361328,1.5754395-.3808594.6762695-.5708008,1.3916016-.5708008,2.145874,0,.7480469.1918945,1.4633789.5756836,2.1459961.3833008.6828613.8989258,1.2144775,1.5458984,1.5948486.6469727.3804932,1.3408203.5706787,2.0825195.5706787.7475586,0,1.456543-.1885986,2.1264648-.5657959s1.1850586-.8875732,1.5458984-1.5313721.5415039-1.3688965.5415039-2.175293c0-1.2290039-.4047852-2.2564697-1.2143555-3.0823975-.8095703-.8258057-1.8061523-1.2388916-2.9897461-1.2388916Z"/>
        <path class="cls-1" d="m92.8637471,4.1657842h1.3671875v3.9453125h2.1679688v1.1816406h-2.1679688v9.4433594h-1.3671875v-9.4433594h-1.8652344v-1.1816406h1.8652344v-3.9453125Z"/>
        <path class="cls-1" d="m101.4233174,3.7360967c.3110352,0,.5766602.1108398.7973633.3320312.2202148.2214355.3305664.4882812.3305664.8007812,0,.3061523-.1103516.5698242-.3305664.7910156-.2207031.2214355-.4863281.3320312-.7973633.3320312-.3046875,0-.5673828-.1105957-.7875977-.3320312-.2207031-.2211914-.3305664-.4848633-.3305664-.7910156,0-.3125.1098633-.5793457.3305664-.8007812.2202148-.2211914.4829102-.3320312.7875977-.3320312Zm-.6787109,4.375h1.3671875v10.625h-1.3671875v-10.625Z"/>
        <path class="cls-1" d="m112.4828877,7.8376592c1.637207,0,2.9936523.5925293,4.0698242,1.7773438.9780273,1.0808105,1.4672852,2.3601074,1.4672852,3.8378906,0,1.484375-.5170898,2.7817383-1.550293,3.8916016-1.0341797,1.1101074-2.3632812,1.6650391-3.9868164,1.6650391-1.6303711,0-2.9624023-.5549316-3.996582-1.6650391-1.0332031-1.1098633-1.550293-2.4072266-1.550293-3.8916016,0-1.4711914.4887695-2.7473145,1.4672852-3.828125,1.0761719-1.1914062,2.4360352-1.7871094,4.0795898-1.7871094Zm-.0048828,1.3378906c-1.1367188,0-2.1137695.4199219-2.9301758,1.2597656-.8168945.8398438-1.2250977,1.8554688-1.2250977,3.046875,0,.7683105.1860352,1.484375.5585938,2.1484375s.8754883,1.1767578,1.5092773,1.5380859,1.3295898.5419922,2.0874023.5419922,1.4536133-.1806641,2.0874023-.5419922,1.1367188-.8740234,1.5092773-1.5380859.5585938-1.380127.5585938-2.1484375c0-1.1914062-.4101562-2.2070312-1.2299805-3.046875-.8203125-.8398438-1.7949219-1.2597656-2.925293-1.2597656Z"/>
        <path class="cls-1" d="m123.0492939,8.1110967h1.3671875v1.9042969c.546875-.7290039,1.1523438-1.2744141,1.8164062-1.6357422s1.3867188-.5419922,2.1679688-.5419922c.7944336,0,1.4990234.2019043,2.1142578.6054688.6152344.4038086,1.0693359.9472656,1.3623047,1.6308594s.4394531,1.7480469.4394531,3.1933594v5.46875h-1.3671875v-5.0683594c0-1.223877-.0507812-2.0410156-.1518555-2.4511719-.1586914-.703125-.4628906-1.2319336-.9121094-1.5869141-.4492188-.3547363-1.0351562-.5322266-1.7578125-.5322266-.8271484,0-1.5678711.2734375-2.222168.8203125s-1.0854492,1.2241211-1.2939453,2.03125c-.1303711.5273438-.1953125,1.4909668-.1953125,2.890625v3.8964844h-1.3671875v-10.625Z"/>
      </g>
      <polyline class="cls-1" points="205.8190004 8.0339708 200.7073506 13.1456206 195.5957009 8.0339708"/>
      <g>
        <path class="cls-2" d="m8.3982524.5C4.0360478.5.5,4.0360475.5,8.3982524c0,2.180312.8834194,4.1544809,2.3122134,5.5836697,1.4291885,1.4299785,4.7962139,3.49932,4.9936703,5.6713401.0296053.3256716.2653807.5923687.5923687.5923687.3269873,0,.562764-.266697.5923687-.5923687.1974571-2.1720202,3.5644812-4.2413617,4.99367-5.6713401,1.4287946-1.4291888,2.3122137-3.4033577,2.3122137-5.5836697,0-4.3622049-3.5360478-7.8982524-7.8982524-7.8982524Z"/>
        <path class="cls-2" d="m8.3982679,11.1628383c1.8501358,0,3.3499312-1.4998426,3.3499312-3.3499624,0-1.8501365-1.4997954-3.3499632-3.3499312-3.3499632-1.8501206,0-3.3499624,1.4998266-3.3499624,3.3499632,0,1.8501198,1.4998418,3.3499624,3.3499624,3.3499624Z"/>
      </g>
    </g>
  </g>
</svg>