<?xml version="1.0" encoding="UTF-8"?>
<svg id="_レイヤー_2" data-name="レイヤー 2" xmlns="http://www.w3.org/2000/svg" viewBox="0 0 114.2824988 18.8152174">
  <defs>
    <style>
      .cls-1 {
        stroke: #fff;
        stroke-miterlimit: 10;
        stroke-width: .8980873px;
      }

      .cls-1, .cls-2 {
        fill: none;
      }

      .cls-2 {
        opacity: .2;
      }

      .cls-2, .cls-3 {
        stroke-width: 0px;
      }

      .cls-3 {
        fill: #fff;
      }
    </style>
  </defs>
  <g id="_レイヤー_1-2" data-name="レイヤー 1">
    <g>
      <rect class="cls-2" y="0" width="114.0504938" height="18.8152174"/>
      <g>
        <path class="cls-3" d="m38.4735825,16.476456h-1.4307121c-.1004008,0-.1600139-.0125501-.178839-.0376503-.0188252-.0249695-.0282377-.081445-.0282377-.1694264l.0376503-2.7578858v-.9600831l-.0376503-1.6942643c0-.1317761.0690256-.1976642.2070768-.1976642l2.0613549.0376503h2.5413965l2.0613549-.0376503c.1443262,0,.2164893.0658881.2164893.1976642l-.0376503,1.4024744v1.1012718c0,1.4998684.0125501,2.3658257.0376503,2.597872.6650249.0251002,1.1012718.0376503,1.3083486.0376503.4141535,0,.6212303-.2164893.6212303-.649468V3.2047187h-10.6550401v4.4898005c0,2.7423289-.1694264,4.8883971-.5082793,6.4382045-.2698273,1.2551413-.7186243,2.4347206-1.3459989,3.5391299-.1568763.2572772-.2604147.3859158-.3106151.3859158-.0376503,0-.1474637-.1098134-.3294403-.3294403-.4080092-.470629-.8692256-.8409878-1.3836492-1.1106844.7215004-1.1420597,1.2109545-2.3813826,1.4683624-3.7179689.2447271-1.2550106.3670906-2.9649626.3670906-5.1298559v-3.0967387l-.0376503-3.1438016c0-.1066759.0125501-.1694264.0376503-.1882516.0249695-.0188252.081445-.0282377.1694264-.0282377l2.6543475.0376503h9.1019645l2.6355223-.0376503c.1002701,0,.1631514.0126808.1882516.0376503.0188252.0251002.0282377.0847132.0282377.178839l-.0376503,3.1438016v8.5842726l.0376503,2.66376c0,.7153561-.1882516,1.2361855-.5647548,1.5624882-.3703589.3325778-1.217491.4988667-2.5413965.4988667-.3138834,0-.502135-.0282377-.5647548-.0847132-.0564755-.0564755-.112951-.2197576-.1694264-.4894541-.112951-.4833098-.2541396-.8815142-.4235661-1.1953976h-1.364824c-.1004008,0-.1632821-.0155569-.1882516-.0470629-.0188252-.0188252-.0282377-.0753006-.0282377-.1694264v-.4800416h-3.4073538v.7530064c0,.1004008-.0094126.1600139-.0282377.178839s-.0785689.0282377-.178839.0282377Zm3.5014796-9.8643834h-.6400554v1.364824h1.1765725l2.3531449-.0376503c.1002701,0,.1600139.0156876.178839.0470629.0188252.0251002.0282377.0879815.0282377.1882516v1.2142228c0,.1004008-.0126808.1600139-.0376503.178839-.0251002.0188252-.0815757.0282377-.1694264.0282377l-2.3531449-.0376503h-4.0474092l-2.3531449.0376503c-.1004008,0-.1600139-.0125501-.178839-.0376503-.0188252-.0249695-.0282377-.081445-.0282377-.1694264v-1.2142228c0-.112951.0125501-.1819765.0376503-.2070768.0249695-.0188252.081445-.0282377.1694264-.0282377l2.3531449.0376503h1.0259712v-1.364824h-.5082793l-2.1554807.0376503c-.1004008,0-.1632821-.0155569-.1882516-.0470629-.0188252-.0249695-.0282377-.0878507-.0282377-.1882516v-1.1953976c0-.1002701.0155569-.1600139.0470629-.178839.0188252-.0188252.0753006-.0282377.1694264-.0282377l2.1554807.0376503h.5082793c-.0188252-.4894541-.0658881-.9914584-.1411887-1.5060127.709081.0188252,1.3397238.0691563,1.8919285.1506013.2070768.0188252.3106151.0973941.3106151.2353145,0,.0941258-.0345128.2039392-.1035384.3294403-.0753006.1380512-.112951.4016034-.112951.7906567h.6400554l2.1554807-.0376503c.1002701,0,.1631514.0126808.1882516.0376503.0188252.0251002.0282377.0815757.0282377.1694264v1.1953976c0,.112951-.0156876.1821073-.0470629.2070768-.0188252.0188252-.0753006.0282377-.1694264.0282377l-2.1554807-.0376503Zm-3.2944029,5.6098975v1.769565h3.4073538v-1.769565h-3.4073538Z"/>
        <path class="cls-3" d="m71.2011219,15.3281213c-.2574079.389184-.4298411.8910575-.5176919,1.5060127-.0503312.3200277-.1098134.505011-.178839.5553422-.0627505.0502004-.2415895.081445-.536517.0941258-2.3217696.1317761-4.5713762.1976642-6.7488196.1976642-2.1084178,0-3.611293-.1851141-4.5086256-.5553422-.7656872-.3200277-1.39633-.8941951-1.8919285-1.7225021-.5209601.5082793-1.1828475,1.0730341-1.9860543,1.6942643-.1821073.1506013-.3106151.2791091-.3859158.3859158-.0879815.1317761-.1821073.1976642-.2823774.1976642-.1004008,0-.1915198-.0847132-.2729648-.2541396-.2070768-.3765032-.470629-.9789083-.7906567-1.8072153.5332488-.2572772.9130202-.4579481,1.1389221-.6024051.4831791-.2823774,1.0227029-.6871183,1.6189637-1.2142228v-4.2827237h-.9224328l-1.4118869.0376503c-.112951,0-.178839-.0125501-.1976642-.0376503-.0251002-.0249695-.0376503-.0878507-.0376503-.1882516v-1.4871876c0-.1002701.0155569-.1600139.0470629-.178839.0249695-.0188252.0878507-.0282377.1882516-.0282377l1.4118869.0376503h1.2142228l1.4401247-.0376503c.1002701,0,.1631514.0126808.1882516.0376503.0188252.0251002.0282377.0815757.0282377.1694264l-.0376503,1.835453v4.0850596c.4014727.7781066.9285771,1.3116168,1.5813134,1.6001385.6714307.2698273,1.8604225.4047409,3.5673677.4047409,2.5915969,0,5.3524895-.147333,8.2830701-.4423912ZM55.369163,1.0586506c.9662274.8471322,1.8415973,1.8323155,2.6261097,2.95555.0502004.0691563.0753006.119226.0753006.1506013,0,.0564755-.0691563.1411887-.2070768.2541396l-1.1012718.8471322c-.1004008.0753006-.1726947.112951-.2164893.112951-.0627505,0-.119226-.0437946-.1694264-.1317761-.8409878-1.2550106-1.7036769-2.2839886-2.5884594-3.0873261-.0627505-.0690256-.0941258-.1223635-.0941258-.1600139,0-.0502004.0658881-.1190953.1976642-.2070768l1.0542089-.7341812c.1002701-.0753006.178839-.112951.2353145-.112951.0502004,0,.112951.0376503.1882516.112951Zm12.5375561,2.4755084h-3.3979412c-.0627505,2.9117554-.4423912,5.1392685-1.1389221,6.6829315-.6339111,1.4934626-1.6817142,2.8237739-3.1438016,3.9909338-.2197576.1821073-.3609463.2729648-.4235661.2729648-.0815757,0-.2164893-.1411887-.4047409-.4235661-.3515337-.4643539-.7280369-.8156262-1.1295096-1.0542089,1.6001385-1.0542089,2.6981421-2.3028137,3.2944029-3.7462067.5835799-1.3303113.8847825-3.2379274.9036076-5.7228484h-.8471322l-2.5602217.0376503c-.1068066,0-.1694264-.0125501-.1882516-.0376503-.0188252-.0249695-.0282377-.081445-.0282377-.1694264v-1.5154253c0-.1002701.0125501-.1600139.0376503-.178839.0249695-.0188252.0847132-.0282377.178839-.0282377l2.5602217.0376503h5.5345968l2.597872-.0376503c.1567456,0,.2353145.0785689.2353145.2353145-.0062751.0815757-.0251002.7374495-.0564755,1.9672291-.0691563,3.6271114-.2227644,6.209165-.4612164,7.746553-.1757015,1.0793091-.5397853,1.8481339-1.0918592,2.306082-.470629.389184-1.1169594.5835799-1.9389914.5835799-.4644847,0-.8504004-.0125501-1.1577473-.0376503-.3138834-.0188252-.4988667-.0626198-.5553422-.1317761-.0503312-.0564755-.1035384-.2320462-.1600139-.5271045-.1068066-.5897243-.2479953-1.0697658-.4235661-1.4401247.7718315.1256318,1.4338496.1882516,1.9860543.1882516.439123,0,.7591507-.147333.9600831-.4423912.1882516-.2823774.3325778-.7655565.4329787-1.4495373.2132211-1.4620874.3419904-3.8309199.3859158-7.1064976Z"/>
        <path class="cls-3" d="m80.557226,10.9700969c-.0062751.1004008-.0094126.1976642-.0094126.29179,0,.3263028.0219627.6463305.0658881.9600831.0249695.2070768.0376503.3357153.0376503.3859158,0,.119226-.0267997.2056387-.0800069.2588459-.053338.053338-.1929579.1427575-.4188598.2682585-1.2424605.6275053-2.5100212,1.1734349-3.8026822,1.6377889-.2698273.1004008-.470629.2039392-.6024051.3106151-.1256318.1004008-.2259019.1506013-.3012025.1506013-.112951,0-.2039392-.0847132-.2729648-.2541396-.1068066-.326172-.2604147-.9224328-.4612164-1.7883901.6024051-.1190953,1.2173603-.2885217,1.8448656-.5082793l.2729648-.0941258v-4.1791854l-1.4871876.0376503c-.1256318,0-.1882516-.0720324-.1882516-.2164893v-1.3836492c0-.1317761.0626198-.1976642.1882516-.1976642l1.4871876.0376503v-3.3508783h-.0376503l-1.656614.0376503c-.1004008,0-.1632821-.0125501-.1882516-.0376503-.0188252-.0313753-.0282377-.0941258-.0282377-.1882516v-1.3554115c0-.1002701.0125501-.1600139.0376503-.178839.0249695-.0188252.0847132-.0282377.178839-.0282377l1.6754392.0376503h1.7413272l1.6754392-.0376503c.1002701,0,.1600139.0126808.178839.0376503.0188252.0251002.0282377.0815757.0282377.1694264v1.3554115c0,.1068066-.0126808.1726947-.0376503.1976642-.0251002.0188252-.0815757.0282377-.1694264.0282377l-1.5624882-.0376503v3.3508783l1.2706982-.0376503c.1443262,0,.2164893.0658881.2164893.1976642v1.3836492c0,.1068066-.0156876.1694264-.0470629.1882516-.0188252.0188252-.0753006.0282377-.1694264.0282377-.0126808,0-.144457-.0031375-.3953283-.0094126-.2635522-.0125501-.5553422-.0219627-.8753699-.0282377v3.4638293c.6965309-.3137527,1.3271737-.6149552,1.8919285-.9036076Zm7.9630424-2.2401939l2.4378581-.0188252c.1066759,0,.1694264.0094126.1882516.0282377s.0282377.0753006.0282377.1694264l-.0376503,1.2330479v1.9672291l1.120097.6306428c.1002701.0691563.1506013.1538695.1506013.2541396,0,.0691563-.0691563.1411887-.2070768.2164893-.1821073.1004008-.3168902.1945266-.4047409.2823774-.4016034.4016034-.9351136.8534072-1.6001385,1.3554115.8408571.4456595,1.7662967.7969317,2.776711,1.0542089-.3263028.3765032-.589855.7624189-.7906567,1.1577473-.144457.3325778-.2668205.4988667-.3670906.4988667-.0815757,0-.2353145-.0503312-.4612164-.1506013-1.8699658-.7718315-3.4200347-1.9201662-4.6498143-3.4450041.0125501,1.0730341.0343821,2.06763.0658881,2.9837877.0188252.6400554.0282377.9944652.0282377,1.0636215,0,.1379204-.0627505.2070768-.1882516.2070768h-1.5436631c-.1068066,0-.1694264-.0126808-.1882516-.0376503-.0188252-.0251002-.0282377-.0815757-.0282377-.1694264,0-.0815757.0061443-.2950582.0188252-.6400554.0313753-1.0479339.0532072-2.1648933.0658881-3.3508783-1.3742366,1.4118869-2.9494057,2.5100212-4.725115,3.2944029-.2133518.112951-.3609463.1694264-.4423912.1694264-.1004008,0-.2415895-.1538695-.4235661-.4612164-.1882516-.3074776-.4800416-.6526055-.8753699-1.0353838,2.4157647-.8909268,4.3015489-1.9986044,5.6569604-3.3226406l-2.4660959.0376503c-.112951,0-.1821073-.0125501-.2070768-.0376503-.0188252-.0188252-.0282377-.0690256-.0282377-.1506013l.0376503-1.2330479v-1.1389221l-.0376503-1.2330479c0-.1002701.0155569-.1600139.0470629-.178839.0188252-.0125501.081445-.0188252.1882516-.0188252l2.5413965.0188252h4.320374Zm-5.0545553-.8659573l-2.6072846.0376503c-.1004008,0-.1600139-.0125501-.178839-.0376503-.0188252-.0249695-.0282377-.081445-.0282377-.1694264v-1.2612857c0-.1002701.0125501-.1600139.0376503-.178839.0249695-.0188252.081445-.0282377.1694264-.0282377l2.6072846.0376503h5.9769881l2.6355223-.0376503c.1002701,0,.1631514.0126808.1882516.0376503.0188252.0251002.0282377.0815757.0282377.1694264v1.2612857c0,.1004008-.0126808.1600139-.0376503.178839-.0251002.0188252-.0847132.0282377-.178839.0282377l-2.6355223-.0376503h-5.9769881Zm.3294403-6.7017567h5.0639678l2.5884594-.0376503c.1002701,0,.1600139.0126808.178839.0376503.0188252.0251002.0282377.0815757.0282377.1694264l-.0376503,1.2895234v1.3554115l.0376503,1.2424605c0,.112951-.0126808.1821073-.0376503.2070768-.0251002.0188252-.0815757.0282377-.1694264.0282377l-2.5884594-.0376503h-4.9886672l-2.66376.0376503c-.1004008,0-.1600139-.0155569-.178839-.0470629-.0188252-.0249695-.0282377-.0878507-.0282377-.1882516l.0376503-1.2424605v-1.3554115l-.0376503-1.2895234c0-.1002701.0125501-.1600139.0376503-.178839.0249695-.0188252.081445-.0282377.1694264-.0282377l2.5884594.0376503Zm-1.1577473,2.8896619h1.4966002v-1.5060127h-1.4966002v1.5060127Zm6.7299944,7.3041618v-1.2142228h-6.1558271v1.2142228h6.1558271Zm-3.8403325-8.8101745v1.5060127h1.5248379v-1.5060127h-1.5248379Zm2.9932003,10.1185231h-1.2236354c.4579481.4957292.9850526.9600831,1.5813134,1.3930618.5459296-.4518038,1.0291087-.909752,1.4495373-1.3742366l-1.8072153-.0188252Zm1.4966002-8.6125104v-1.5060127h-1.5436631v1.5060127h1.5436631Z"/>
        <path class="cls-3" d="m102.4132359,11.1771737c-.0188252.1757015-.0282377.3703589-.0282377.5835799,0,.2197576.0094126.4268343.0282377.6212303.0125501.1506013.0188252.2635522.0188252.3388529,0,.1506013-.0409186.2604147-.1223635.3294403-.0564755.0439254-.1976642.1223635-.4235661.2353145-1.1169594.5586105-2.3500074,1.0793091-3.6991438,1.5624882-.3263028.112951-.5397853.210345-.6400554.29179-.1256318.1004008-.232177.1506013-.3200277.1506013-.112951,0-.2039392-.0784382-.2729648-.2353145-.2009324-.5144236-.3797714-1.0855842-.536517-1.7130895.6337804-.1002701,1.26743-.2541396,1.9013411-.4612164l.2729648-.1035384v-5.4498836h-.0753006l-1.6754392.0376503c-.1317761,0-.1976642-.0720324-.1976642-.2164893v-1.4589498c0-.1443262.0658881-.2164893.1976642-.2164893l1.6754392.0376503h.0753006v-1.7130895c0-1.0980036-.0503312-2.073905-.1506013-2.9273123.709081.0188252,1.364824.0627505,1.9672291.1317761.1819765.0188252.2729648.0909883.2729648.2164893,0,.0691563-.0251002.1976642-.0753006.3859158-.0941258.232177-.1411887.9506705-.1411887,2.1554807v1.7507398l1.3459989-.0376503c.1002701,0,.1631514.0126808.1882516.0376503.0188252.0251002.0282377.0847132.0282377.178839v1.4589498c0,.1068066-.0126808.1694264-.0376503.1882516-.0251002.0188252-.0847132.0282377-.178839.0282377-.0126808,0-.1506013-.0031375-.4141535-.0094126-.2823774-.0125501-.5929925-.0219627-.9318454-.0282377v4.7815904c.7530064-.3325778,1.4024744-.6431929,1.948404-.9318454Zm10.1467608,2.9367248c.3890533.2133518.8126194.3859158,1.2706982.5176919.2070768.0627505.3325778.112951.3765032.1506013.0502004.0439254.0753006.112951.0753006.2070768,0,.0439254-.0094126.144457-.0282377.3012025-.1004008,1.0542089-.357678,1.7601524-.7718315,2.1178304-.3953283.357678-1.1734349.536517-2.3343197.536517-1.1295096,0-1.8825159-.0909883-2.2590191-.2729648-.4268343-.1694264-.6400554-.6306428-.6400554-1.3836492v-2.7202355h-1.2895234c-.2886524,1.3869175-.8409878,2.4411264-1.656614,3.1626268-.7216311.6337804-1.7634206,1.1232345-3.1249764,1.4683624-.1882516.0502004-.3421211.0753006-.4612164.0753006-.1256318,0-.2729648-.1538695-.4423912-.4612164-.2510021-.476904-.5522047-.8504004-.9036076-1.120097,1.5624882-.2508714,2.6857227-.6118177,3.3697035-1.0824467.6838501-.4767733,1.1074161-1.1577473,1.2706982-2.0425298-.4329787.0126808-.8315753.0220934-1.1953976.0282377-.2447271.0062751-.3733657.0094126-.3859158.0094126-.1004008,0-.1600139-.0155569-.178839-.0470629-.0188252-.0249695-.0282377-.0847132-.0282377-.178839l.0376503-1.6001385v-2.3531449l-.0376503-1.6189637c0-.1002701.0125501-.1600139.0376503-.178839.0249695-.0188252.081445-.0282377.1694264-.0282377l2.4660959.0376503h4.1885979l2.4472707-.0376503c.1066759,0,.1694264.0126808.1882516.0376503.0188252.0251002.0282377.0815757.0282377.1694264l-.0376503,1.6189637v2.3531449l.0376503,1.6001385c0,.1004008-.0109813.1632821-.032944.1882516-.0220934.0251002-.0832752.0376503-.1835453.0376503l-2.3907952-.0376503v1.9295788c0,.3012025.0720324.4863166.2164893.5553422.1002701.0503312.4014727.0753006.9036076.0753006.5020042,0,.8314445-.0753006.9883209-.2259019.1317761-.1255011.2132211-.3137527.2447271-.5647548.0313753-.2070768.0532072-.6149552.0658881-1.2236354Zm-7.3323995-7.3606373l-2.6449349.0376503c-.1256318,0-.1882516-.0690256-.1882516-.2070768v-1.185985c0-.1379204.0626198-.2070768.1882516-.2070768l2.3907952.0376503c-.1945266-.5835799-.411016-1.0980036-.649468-1.5436631-.3639531.0062751-.6965309.0156876-.9977334.0282377-.2009324.0062751-.3074776.0094126-.3200277.0094126-.1068066,0-.1726947-.0125501-.1976642-.0376503-.0188252-.0249695-.0282377-.0847132-.0282377-.178839v-1.120097c0-.1002701.0125501-.1600139.0376503-.178839.0249695-.0188252.0878507-.0282377.1882516-.0282377l2.5508091.0376503h1.3459989v-.1694264c0-.6085494-.0439254-1.1106844-.1317761-1.5060127.6526055.0188252,1.2801108.0564755,1.8825159.112951.2070768.0251002.3106151.0847132.3106151.178839,0,.0627505-.0376503.1694264-.112951.3200277-.0627505.1317761-.0941258.4141535-.0941258.8471322v.2164893h1.8260404l2.5508091-.0376503c.1002701,0,.1600139.0126808.178839.0376503.0188252.0251002.0282377.0815757.0282377.1694264v1.120097c0,.1068066-.0126808.1694264-.0376503.1882516-.0251002.0188252-.0815757.0282377-.1694264.0282377-.0062751,0-.1600139-.0031375-.4612164-.0094126-.3200277-.0125501-.6682932-.0219627-1.0447963-.0282377-.1004008.0627505-.178839.1662889-.2353145.3106151-.357678.7592814-.5553422,1.1704281-.5929925,1.2330479h.536517l2.6261097-.0376503c.1002701,0,.1600139.0126808.178839.0376503.0188252.0251002.0282377.0815757.0282377.1694264v1.185985c0,.1004008-.0126808.1600139-.0376503.178839-.0251002.0188252-.0815757.0282377-.1694264.0282377l-2.6261097-.0376503h-6.1087642Zm-.1600139,2.2307814v.9789083h5.7887365v-.9789083h-5.7887365Zm5.7887365,3.2379274v-1.007146h-5.7887365v1.007146h5.7887365Zm-1.2706982-8.5372097h-3.3979412c.2635522.5962608.4579481,1.1106844.5835799,1.5436631h2.1931311c.2572772-.5396546.4643539-1.0542089.6212303-1.5436631Z"/>
      </g>
      <g>
        <path class="cls-1" d="m9.1543073.5409587C5.2366668.5409587,2.0609873,3.7166379,2.0609873,7.6342787c0,1.9581105.7933877,3.7310865,2.0765694,5.0146228,1.283536,1.2842455,4.3074187,3.1426948,4.4847518,5.0933584.0265882.2924816.2383351.5319988.5319988.5319988.2936631,0,.5054112-.2395172.5319988-.5319988.1773337-1.9506637,3.2012152-3.809113,4.4847515-5.0933584,1.2831823-1.2835363,2.0765697-3.0565123,2.0765697-5.0146228,0-3.9176408-3.1756795-7.09332-7.09332-7.09332Z"/>
        <path class="cls-1" d="m9.1543213,10.1171182c1.6615834,0,3.0085306-1.3469896,3.0085306-3.0085586,0-1.6615841-1.3469472-3.0085593-3.0085306-3.0085593-1.6615698,0-3.0085586,1.3469752-3.0085586,3.0085593,0,1.6615691,1.3469889,3.0085586,3.0085586,3.0085586Z"/>
      </g>
    </g>
  </g>
</svg>