<?xml version="1.0" encoding="UTF-8"?>
<svg id="_レイヤー_2" data-name="レイヤー 2" xmlns="http://www.w3.org/2000/svg" viewBox="0 0 114.0504938 18.8152174">
  <defs>
    <style>
      .cls-1 {
        stroke: #fff;
        stroke-miterlimit: 10;
        stroke-width: .9871828px;
      }

      .cls-1, .cls-2 {
        fill: none;
      }

      .cls-2 {
        opacity: .2;
      }

      .cls-2, .cls-3 {
        stroke-width: 0px;
      }

      .cls-3 {
        fill: #fff;
      }
    </style>
  </defs>
  <g id="_レイヤー_1-2" data-name="レイヤー 1">
    <g>
      <rect class="cls-2" y="0" width="114.0504938" height="18.8152174"/>
      <g>
        <path class="cls-3" d="m36.6644381.5800403l2.0224755-.0390817c.0911905,0,.1465562.016284.166097.0488521.0195408.0260544.0293112.0913262.0293112.1954083l-.0390817,1.8954602v2.481685l.0390817,1.8954602c0,.117245-.0131629.1890304-.0390817.2149491-.0195408.0195408-.0717854.0293112-.1563266.0293112l-2.0224755-.0390817h-3.2437772v6.477784l.0390817,4.2696706c0,.104082-.0131629.166097-.0390817.1856379-.0260544.0195408-.0846769.0293112-.1758674.0293112h-1.7098223c-.0977041,0-.157955-.0113988-.1807526-.0341964-.0229333-.0229333-.0341964-.0830485-.0341964-.1807526l.0390817-4.2696706V5.0842008l-.0390817-4.2989818c0-.117245.0130272-.1888947.0390817-.2149491.0259187-.0195408.0879337-.0293112.1856379-.0293112l2.3546696.0390817h2.7650269Zm.2149491,1.5046436h-3.4587263v1.18222h3.4587263v-1.18222Zm0,3.7420683v-1.2017608h-3.4587263v1.2017608h3.4587263Zm.6643881,11.0210261h-1.4167099c-.1108671,0-.1758674-.0131629-.1954083-.0390817-.0195408-.0260544-.0293112-.0913262-.0293112-.1954083l.0390817-3.6248233v-1.7586744l-.0390817-2.5012258c0-.1107313.0130272-.1758674.0390817-.1954083.0259187-.0195408.0879337-.0293112.1856379-.0293112l2.1397205.0390817h2.696634l2.1494909-.0390817c.104082,0,.166097.0131629.1856379.0390817.0195408.0260544.0293112.0879337.0293112.1856379l-.0390817,2.1592613v1.9833939l.0390817,3.5368896c0,.1042177-.0113988.1677254-.0341964.1905231-.0229333.0229333-.0830485.0341964-.1807526.0341964h-1.4460212c-.1042177,0-.166097-.0130272-.1856379-.0390817-.0195408-.0259187-.0293112-.0879337-.0293112-.1856379v-.615536h-3.663905v.8207147c0,.1107313-.0131629.1773601-.0390817.2002935-.0260544.0227976-.0944473.0341964-.2051787.0341964Zm.2442603-6.761126v1.348317h3.663905v-1.348317h-3.663905Zm0,4.1817369h3.663905v-1.3971691h-3.663905v1.3971691Zm5.6766101,1.6609702c.5144394.0651361,1.0747455.0977041,1.6805111.0977041.3452213,0,.5730619-.0618793.6839289-.1856379.0911905-.1107313.1367858-.3092607.1367858-.5959952v-7.9824276h-3.2828588l-2.1885726.0390817c-.1108671,0-.1758674-.0161483-.1954083-.0488521-.0195408-.0259187-.0293112-.0911905-.0293112-.1954083l.0390817-1.748904v-2.7650269l-.0390817-1.7586744c0-.117245.0130272-.1888947.0390817-.2149491.0259187-.0195408.0879337-.0293112.1856379-.0293112l2.1885726.0390817h2.9408944l2.2276542-.0390817c.104082,0,.166097.016284.1856379.0488521.0195408.0260544.0293112.0913262.0293112.1954083l-.0390817,2.6380116v8.2169175l.0781633,3.9863286c0,.8793372-.1921515,1.4948732-.5764544,1.8466081-.2344899.2084355-.5603061.3517349-.9770413.4298982-.4103574.0716497-1.0390563.1074745-1.8856898.1074745-.3191668,0-.5048047-.0293112-.5569136-.0879337-.0522446-.0522446-.1074745-.2312331-.166097-.5373727-.1237586-.5798469-.283342-1.064975-.4787502-1.4557916Zm2.5012258-13.8446755h-3.6932162v1.18222h3.6932162v-1.18222Zm-3.6932162,3.7420683h3.6932162v-1.2017608h-3.6932162v1.2017608Z"/>
        <path class="cls-3" d="m71.7597624,15.9684412c-.3777893.3844386-.7230106.898878-1.0356638,1.5437253-.1432994.2799495-.2638012.4201278-.3615053.4201278-.0781633,0-.2312331-.0944473-.4592094-.283342-1.2180448-1.0096094-2.2408171-2.0745844-3.0679098-3.1949251-.9902042,1.198504-2.2115059,2.3383856-3.663905,3.4196446-.2149491.1627045-.3615053.2442603-.4396686.2442603-.1042177,0-.2378824-.1597191-.4005869-.4787502-.299626-.5927384-.6122792-1.016123-.9379597-1.2701537,1.7912424-1.0811234,3.2177228-2.3351288,4.279441-3.7616091-1.2833166-2.2862767-2.081098-5.0185999-2.3937512-8.1973767l-.9868117.0195408c-.1042177,0-.166097-.0161483-.1856379-.0488521-.0195408-.0259187-.0293112-.0911905-.0293112-.1954083v-1.6023478h-.7620922v13.3463845l.0390817,2.1201797c0,.1107313-.0131629.1758674-.0390817.1954083-.0260544.0195408-.0846769.0293112-.1758674.0293112h-1.5632661c-.1108671,0-.1758674-.0131629-.1954083-.0390817-.0195408-.0260544-.0293112-.0879337-.0293112-.1856379l.0390817-2.1201797v-1.6805111c-1.3743715.4950343-2.9604352.9902042-4.7581912,1.4851028-.3191668.0781633-.5341159.1597191-.6448473.2442603-.117245.0913262-.2247195.1367858-.3224236.1367858-.1304079,0-.2149491-.0879337-.2540307-.2638012-.1499487-.5730619-.2898556-1.2050176-.4201278-1.8954602.6643881-.0781633,1.23745-.1791242,1.7195927-.3028828V2.5634342c-.3258161.0065136-.6350769.016284-.9281893.0293112-.1954083.0065136-.299626.0097704-.3126532.0097704-.1042177,0-.1694895-.0130272-.1954083-.0390817-.0195408-.0259187-.0293112-.0845412-.0293112-.1758674V.9610865c0-.1107313.0161483-.1791242.0488521-.2051787.0195408-.0195408.0781633-.0293112.1758674-.0293112l2.4621441.0390817h3.9765582l2.4914554-.0390817c.104082,0,.166097.016284.1856379.0488521.0195408.0260544.0293112.0879337.0293112.1856379v1.5241845c.2149491.0131629.8954855.0195408,2.0420164.0195408h4.3185226c.2408678,0,.4038437-.0195408.4885207-.0586225.0845412-.0521089.1822453-.0781633.2931124-.0781633.1367858,0,.4167353.2149491.8402555.6448473.3190311.3648978.4787502.6189285.4787502.7620922,0,.1237586-.0749065.283342-.2247195.4787502-.1042177.1432994-.2019219.4821428-.2931124,1.016123-.4821428,3.0029094-1.2833166,5.4421202-2.4035217,7.3180395.9052559,1.198504,2.1070168,2.3253583,3.6052825,3.380563Zm-15.1441405-11.2652864h2.7747974v-2.1397205h-2.7747974v2.1397205Zm0,3.9081653h2.7747974v-2.1494909h-2.7747974v2.1494909Zm2.7747974,3.7420683v-1.9833939h-2.7747974v2.8041086c.7489293-.1954083,1.6739975-.4689798,2.7747974-.8207147Zm9.1841884-7.9628868h-3.3219405c.267058,2.4881986.8142011,4.562783,1.6414294,6.2237532.8337419-1.7064298,1.3937766-3.7811499,1.6805111-6.2237532Z"/>
        <path class="cls-3" d="m78.0128268.7070557c.9834192.1954083,1.7098223.4005869,2.1788021.615536.2540307.0977041.3810461.2312331.3810461.4005869,0,.1042177-.0455953.2116923-.1367858.3224236-.1237586.1432994-.2442603.4559526-.3615053.9379597-.182381.8793372-.3680189,2.1528834-.5569136,3.8202316-.0522446.8793372-.0781633,1.4460212-.0781633,1.7000519,0,.1758674.0032568.345357.0097704.5080615.4820071-.8597964.9477301-1.7162002,1.3971691-2.5696187.149813.4885207.3581128.9218113.6253064,1.299465.0781633.0977041.117245.2051787.117245.3224236,0,.1367858-.0651361.3028828-.1954083.4982911-.6253064,1.1919904-1.0195155,2.0454089-1.18222,2.5598483-.0455953.1367858-.0815558.3387077-.1074745.6057656,0,.1694895-.0846769.2735716-.2540307.3126532-.2476528.0651361-.7816331.1465562-1.6023478.2442603-.1304079.0195408-.2247195-.0683929-.283342-.2638012-.3973301-1.0747455-.5959952-2.4263193-.5959952-4.0547215,0-.8597964.1595834-2.5207666.4787502-4.9829107.1107313-.9314461.166097-1.6902815.166097-2.2765063Zm6.3996207.0390817c1.1268543.0522446,1.8889466.1304079,2.2862767.2344899.2735716.0717854.4103574.1954083.4103574.3712757,0,.0455953-.0033925.1042177-.0097704.1758674-.0327037.182381-.0488521.4885207-.0488521.9184188.1888947,2.5207666.283342,4.2403593.283342,5.1587782,0,3.0615318-.5080615,5.3771198-1.5241845,6.9467638-.7816331,1.2506129-1.8824329,2.3253583-3.3023997,3.2242364-.1304079.0911905-.2638012.1367858-.4005869.1367858-.1304079,0-.2703148-.0749065-.4201278-.2247195-.5016836-.4364118-1.0683675-.7425514-1.7000519-.9184188,1.5828069-.8793372,2.7194317-1.7717016,3.4098742-2.6770932.6383337-.8728236,1.0811234-1.8075264,1.3287762-2.8041086.2344899-.9443376.3517349-2.1397205.3517349-3.5857417,0-1.7195927-.0815558-3.3121701-.2442603-4.7777321-.0846769-.8337419-.2247195-1.5598736-.4201278-2.1788021Z"/>
      </g>
      <g>
        <polygon class="cls-1" points=".9962916 .6546247 .9962916 18.1605927 6.8528336 18.1605927 6.8528336 14.532083 18.2476273 14.532083 18.2476273 .6546247 .9962916 .6546247"/>
        <line class="cls-1" x1="11.7586063" y1=".6546247" x2="11.7586063" y2="7.6832516"/>
        <line class="cls-1" x1="7.548505" y1="7.6832516" x2="14.8352187" y2="7.6832516"/>
        <line class="cls-1" x1="16.9726547" y1="7.6832516" x2="18.2476273" y2="7.6832516"/>
        <line class="cls-1" x1="12.741426" y1="9.258629" x2="12.741426" y2="7.6832516"/>
        <line class="cls-1" x1="8.7470015" y1="9.258629" x2="8.7470015" y2="7.6832516"/>
        <line class="cls-1" x1="12.7411992" y1="14.524715" x2="12.7411992" y2="11.3450127"/>
        <line class="cls-1" x1="8.7467747" y1="14.524715" x2="8.7467747" y2="11.3450127"/>
        <line class="cls-1" x1="1.0019829" y1="7.6832516" x2="5.5069314" y2="7.6832516"/>
      </g>
    </g>
  </g>
</svg>