<?xml version="1.0" encoding="UTF-8"?>
<svg id="_レイヤー_2" data-name="レイヤー 2" xmlns="http://www.w3.org/2000/svg" viewBox="0 0 206.6584084 18.7332591">
  <defs>
    <style>
      .cls-1 {
        fill: #a69a7f;
        stroke-width: 0px;
      }

      .cls-2 {
        fill: none;
        stroke: #a69a7f;
        stroke-miterlimit: 10;
      }
    </style>
  </defs>
  <g id="_レイヤー_1-2" data-name="レイヤー 1">
    <g>
      <g>
        <path class="cls-1" d="m33.7910457,2.2279577h2.8613281c1.640625,0,2.7475586.0717773,3.3203125.2148438.8203125.2019043,1.4907227.6169434,2.0117188,1.2451172.5209961.628418.78125,1.4177246.78125,2.3681641,0,.9570312-.2539062,1.746582-.7617188,2.3681641-.5078125.6218262-1.2075195,1.0400391-2.0996094,1.2548828-.6508789.15625-1.8686523.234375-3.6523438.234375h-1.0253906v6.6796875h-1.4355469V2.2279577Zm1.4355469,1.40625v4.8730469l2.4316406.0292969c.9829102,0,1.7026367-.0892334,2.1582031-.2679443s.8139648-.4678955,1.0742188-.8674316.390625-.8463135.390625-1.34021c0-.4807129-.1303711-.9208984-.390625-1.3205566-.2602539-.3995361-.6040039-.6838379-1.0302734-.8527832s-1.1245117-.253418-2.0947266-.253418h-2.5390625Z"/>
        <path class="cls-1" d="m47.7070613,1.8666295h1.3671875v14.7265625h-1.3671875V1.8666295Z"/>
        <path class="cls-1" d="m65.0019832,5.968192v10.625h-1.3476562v-1.8261719c-.5727539.6967773-1.2158203,1.2207031-1.9287109,1.5722656s-1.4926758.5273438-2.3388672.5273438c-1.5039062,0-2.7880859-.545166-3.8525391-1.6357422-1.0644531-1.090332-1.5966797-2.4169922-1.5966797-3.9794922,0-1.5297852.5371094-2.8383789,1.6113281-3.9257812,1.0742188-1.0871582,2.3666992-1.6308594,3.8769531-1.6308594.8725586,0,1.6616211.1855469,2.3681641.5566406s1.3266602.9277344,1.8603516,1.6699219v-1.953125h1.3476562Zm-5.4638672,1.0449219c-.7607422,0-1.4633789.1870117-2.1069336.5609131-.644043.3740234-1.15625.8991699-1.5361328,1.5754395-.3808594.6762695-.5708008,1.3916016-.5708008,2.145874,0,.7480469.1918945,1.4633789.5756836,2.1459961.3833008.6828613.8989258,1.2144775,1.5458984,1.5948486.6469727.3804932,1.3408203.5706787,2.0825195.5706787.7475586,0,1.456543-.1885986,2.1264648-.5657959s1.1850586-.8875732,1.5458984-1.5313721.5415039-1.3688965.5415039-2.175293c0-1.2290039-.4047852-2.2564697-1.2143555-3.0823975-.8095703-.8258057-1.8061523-1.2388916-2.9897461-1.2388916Z"/>
        <path class="cls-1" d="m70.5781551,5.968192h1.3671875v1.9042969c.546875-.7290039,1.1523438-1.2744141,1.8164062-1.6357422s1.3867188-.5419922,2.1679688-.5419922c.7944336,0,1.4990234.2019043,2.1142578.6054688.6152344.4038086,1.0693359.9472656,1.3623047,1.6308594s.4394531,1.7480469.4394531,3.1933594v5.46875h-1.3671875v-5.0683594c0-1.223877-.0507812-2.0410156-.1518555-2.4511719-.1586914-.703125-.4628906-1.2319336-.9121094-1.5869141-.4492188-.3547363-1.0351562-.5322266-1.7578125-.5322266-.8271484,0-1.5678711.2734375-2.222168.8203125s-1.0854492,1.2241211-1.2939453,2.03125c-.1303711.5273438-.1953125,1.4909668-.1953125,2.890625v3.8964844h-1.3671875V5.968192Z"/>
      </g>
      <g>
        <polygon class="cls-2" points=".5 .5 .5 18.2332591 6.4325812 18.2332591 6.4325812 14.5576381 17.9753207 14.5576381 17.9753207 .5 .5 .5"/>
        <line class="cls-2" x1="11.4020486" y1=".5" x2="11.4020486" y2="7.619884"/>
        <line class="cls-2" x1="7.137285" y1="7.619884" x2="14.5186067" y2="7.619884"/>
        <line class="cls-2" x1="16.6837944" y1="7.619884" x2="17.9753207" y2="7.619884"/>
        <line class="cls-2" x1="12.3976289" y1="9.2157155" x2="12.3976289" y2="7.619884"/>
        <line class="cls-2" x1="8.3513423" y1="9.2157155" x2="8.3513423" y2="7.619884"/>
        <line class="cls-2" x1="12.3973992" y1="14.5501744" x2="12.3973992" y2="11.329188"/>
        <line class="cls-2" x1="8.3511126" y1="14.5501744" x2="8.3511126" y2="11.329188"/>
        <line class="cls-2" x1=".5057653" y1="7.619884" x2="5.0692043" y2="7.619884"/>
      </g>
      <polyline class="cls-1" points="206.6584084 7.8108046 201.5467587 12.9224544 196.4351089 7.8108046"/>
    </g>
  </g>
</svg>