<?xml version="1.0" encoding="UTF-8"?>
<svg id="_レイヤー_2" data-name="レイヤー 2" xmlns="http://www.w3.org/2000/svg" viewBox="0 0 114.0504938 18.8152174">
  <defs>
    <style>
      .cls-1 {
        opacity: .2;
      }

      .cls-1, .cls-2 {
        fill: none;
      }

      .cls-1, .cls-3 {
        stroke-width: 0px;
      }

      .cls-2 {
        stroke: #fff;
        stroke-miterlimit: 10;
        stroke-width: .9060497px;
      }

      .cls-3 {
        fill: #fff;
      }
    </style>
  </defs>
  <g id="_レイヤー_1-2" data-name="レイヤー 1">
    <g>
      <rect class="cls-1" y="0" width="114.0504938" height="18.8152174"/>
      <g>
        <path class="cls-3" d="m33.5814418,3.9519335h2.5064069l2.0635455-.0376903c.1003767,0,.1633248.0126943.1884516.0376903.0188452.0251269.0282677.0816624.0282677.1696065v1.375697c0,.1069201-.0157043.1728782-.0471129.1978742-.0188452.0188452-.0753807.0282677-.1696065.0282677l-2.0635455-.0376903h-2.5064069l-2.0447004.0376903c-.1069201,0-.1696065-.0155734-.1884516-.0471129-.0188452-.024996-.0282677-.0848032-.0282677-.1790291v-1.375697c0-.1003767.0125634-.1601839.0376903-.1790291.024996-.0188452.0848032-.0282677.1790291-.0282677l2.0447004.0376903Zm15.4153447,12.29647c-.3454947.4334388-.6218904.8857227-.8291872,1.3568519-.1634556.3453638-.2921001.518242-.3863259.518242-.0503846,0-.1978742-.0439721-.4428614-.1319162-1.5453035-.609327-2.8519016-1.3568519-3.9197943-2.2425746-1.1307099.94854-2.4437206,1.7274734-3.9386394,2.3368004-.1947334.0879441-.3424847.1319162-.4428614.1319162-.1069201,0-.2418463-.1601839-.405171-.4805517-.2638323-.4899743-.5653549-.8701493-.9045679-1.1401325.0061509.3203678.0155734.5997735.0282677.8386098.0061509.1633248.0094226.251138.0094226.2638323,0,.1003767-.0126943.1601839-.0376903.1790291-.0251269.0188452-.0816624.0282677-.1696065.0282677h-1.3662744c-.1069201,0-.1696065-.0126943-.1884516-.0376903-.0188452-.0251269-.0282677-.0816624-.0282677-.1696065v-.6407356h-2.0918133v.9987937c0,.1067893-.0126943.1696065-.0376903.1884516-.0251269.0188452-.0848032.0282677-.1790291.0282677h-1.3662744c-.113071,0-.1823008-.0126943-.2072968-.0376903-.0188452-.0251269-.0282677-.0848032-.0282677-.1790291l.0471129-2.9115779v-1.2343583l-.0471129-1.8091358c0-.1067893.0155734-.1696065.0471129-.1884516.024996-.0188452.0879441-.0282677.1884516-.0282677l1.7620229.0376903h1.71491l1.7808681-.0376903c.1003767,0,.1601839.0126943.1790291.0376903.0188452.0251269.0282677.0848032.0282677.1790291l-.0376903,1.4793454v2.9963812c1.6079899-.47728,3.0434941-1.1998088,4.3061201-2.1671939-1.0050755-1.1557059-1.7652946-2.4937126-2.2802649-4.0140201l-.8668776.0188452c-.1005075,0-.1634556-.0155734-.1884516-.0471129-.0188452-.024996-.0282677-.0848032-.0282677-.1790291v-1.3568519c0-.1256344.0721089-.1884516.2167194-.1884516l2.3556456.0376903h4.4945718c.1507613,0,.2921001-.024996.4240162-.0753807.1319162-.0626863.2292828-.0942258.2921001-.0942258.1256344,0,.3674807.1790291.7255388.5370872.4018993.4145936.6030453.6847077.6030453.8103421,0,.1446105-.0722398.2606914-.2167194.3486355-.1696065.1069201-.3236395.3047944-.4617065.5936227-.5716367,1.3003164-1.3348658,2.4969843-2.2896875,3.5900039,1.1621185.8166238,2.5566607,1.4355042,4.1836266,1.8562487ZM34.0996838,1.3136104h1.7526003l1.7431777-.0376903c.1067893,0,.1727473.0126943.1978742.0376903.0188452.0251269.0282677.0816624.0282677.1696065v1.2908938c0,.1069201-.0126943.1696065-.0376903.1884516-.0251269.0188452-.088075.0282677-.1884516.0282677l-1.7431777-.0376903h-1.7526003l-1.7526003.0376903c-.1069201,0-.1696065-.0125634-.1884516-.0376903-.0188452-.024996-.0282677-.0848032-.0282677-.1790291v-1.2908938c0-.1003767.0125634-.1601839.0376903-.1790291.024996-.0188452.0848032-.0282677.1790291-.0282677l1.7526003.0376903Zm.0753807,5.3991397h1.5264583l1.6206842-.0376903c.113071,0,.1790291.0126943.1978742.0376903.024996.0188452.0376903.0722398.0376903.1601839v1.2532035c0,.1005075-.0157043.1601839-.0471129.1790291-.0251269.0188452-.088075.0282677-.1884516.0282677l-1.6206842-.0376903h-1.5264583l-1.6395293.0376903c-.1005075,0-.1634556-.0125634-.1884516-.0376903-.0188452-.024996-.0282677-.0815315-.0282677-.1696065v-1.2532035c0-.1319162.0721089-.1978742.2167194-.1978742l1.6395293.0376903Zm0,2.5912101h1.5264583l1.6206842-.0471129c.113071,0,.1790291.0126943.1978742.0376903.024996.0251269.0376903.0848032.0376903.1790291v1.2343583c0,.1069201-.0157043.1696065-.0471129.1884516-.0251269.0188452-.088075.0282677-.1884516.0282677l-1.6206842-.0376903h-1.5264583l-1.6395293.0376903c-.1005075,0-.1634556-.0125634-.1884516-.0376903-.0188452-.024996-.0282677-.0848032-.0282677-.1790291v-1.2343583c0-.1003767.0155734-.1633248.0471129-.1884516.0188452-.0188452.0753807-.0282677.1696065-.0282677l1.6395293.0471129Zm1.7997132,4.2213169h-2.0918133v1.9316294h2.0918133v-1.9316294Zm2.1671939-6.5110044c.7286797-.4961251,1.2469217-1.0803252,1.5547261-1.7526003.3015226-.653299.452284-1.4699228.452284-2.4498714l-.0376903-1.4322325c0-.1003767.0155734-.1601839.0471129-.1790291.024996-.0188452.0879441-.0282677.1884516-.0282677l1.6960648.0376903h1.9316294l1.7337552-.0376903c.1067893,0,.1696065.0126943.1884516.0376903.0188452.0251269.0282677.0816624.0282677.1696065l-.0376903,1.5641487v2.00701c0,.3454947.0438412.5653549.1319162.6595808.0815315.0753807.2638323.113071.5465098.113071.226142,0,.3988893-.0909541.518242-.2732549.0942258-.1507613.1569122-.7286797.1884516-1.7337552.3517764.2135785.7316897.3863259,1.1401325.518242.2072968.0692298.3359412.1287753.3863259.1790291.0438412.0503846.0659581.1413387.0659581.2732549,0,.0315395-.0032717.113071-.0094226.2449871-.0503846,1.0364841-.2826775,1.7243326-.6972711,2.0635455-.3142169.2953718-.9673851.4428614-1.9598971.4428614-.8103421,0-1.3601236-.0909541-1.6489519-.2732549-.3454947-.226142-.518242-.6690033-.518242-1.3285841v-2.8361973h-2.00701c-.0188452,1.23763-.2167194,2.2771241-.5936227,3.1188748-.2953718.6595808-.7288106,1.2594852-1.3003164,1.7997132-.2072968.2072968-.3613299.3109452-.4617065.3109452-.1005075,0-.2544097-.1224936-.4617065-.3674807-.3330621-.3769033-.6878485-.6595808-1.0647518-.8480324Zm7.0763594,3.3638619h-3.5711587c.4395896,1.0804561,1.0237897,2.0132918,1.7526003,2.798507.7726518-.8291872,1.3788379-1.7620229,1.8185584-2.798507Z"/>
        <path class="cls-3" d="m52.4171839,8.0601794c1.4259508-1.601839,2.5690933-3.6591028,3.42982-6.1717914.1696065-.4836926.2794057-.9328357.3297904-1.3474293.6091961.1507613,1.1872454.3297904,1.7337552.5370872.2198603.0816624.3297904.1790291.3297904.2921001,0,.1069201-.0692298.2230011-.2072968.3486355-.1069201.088075-.2355646.3519073-.3863259.7914969-.3957485,1.1181464-.7820743,2.0635455-1.1589776,2.8361973v9.7806405l.0376903,2.9115779c0,.1003767-.0126943.1633248-.0376903.1884516-.0251269.0188452-.0816624.0282677-.1696065.0282677h-1.5735713c-.1005075,0-.1601839-.0126943-.1790291-.0376903-.0188452-.0251269-.0282677-.0848032-.0282677-.1790291l.0376903-2.9115779v-4.1082459c0-1.0930196.0061509-1.9347702.0188452-2.5252521-.201146.270114-.5339463.6911202-.9987937,1.262626-.1446105.1823008-.2544097.2732549-.3297904.2732549-.088075,0-.1601839-.1162118-.2167194-.3486355-.1319162-.6218904-.3424847-1.1621185-.631313-1.6206842Zm7.5474885-.8291872v1.4133874c0,2.054123-.1224936,3.7564695-.3674807,5.1070396-.2512689,1.350701-.6878485,2.6383231-1.3097389,3.8632588-.1193527.2198603-.2167194.3297904-.2921001.3297904-.088075,0-.1978742-.0848032-.3297904-.2544097-.3266495-.4334388-.7129754-.8136138-1.1589776-1.1401325.6280413-1.0237897,1.0647518-2.1733448,1.3097389-3.4486651.1946025-.9987937.2921001-2.5001252.2921001-4.5039944l-.0376903-2.7702392c0-.113071.0125634-.1821699.0376903-.2072968.024996-.0188452.0815315-.0282677.1696065-.0282677l2.685436.0376903h6.6240754l2.6383231-.0376903c.1003767,0,.1633248.0126943.1884516.0376903.0188452.0315395.0282677.0974976.0282677.1978742v1.2155131c0,.1069201-.0126943.1728782-.0376903.1978742-.0251269.0188452-.0848032.0282677-.1790291.0282677l-2.6383231-.0376903h-7.6228691Zm.9234131-6.5769625c.6972711.0126943,1.3191615.0503846,1.8656713.113071.1696065.0188452.2544097.0786524.2544097.1790291,0,.0628172-.0315395.157043-.0942258.2826775-.0628172.1257653-.0942258.4805517-.0942258,1.0647518v.0753807h2.4498714v-.0942258c0-.6468865-.0376903-1.1872454-.113071-1.6206842.6784259.0126943,1.2940346.0503846,1.8468261.113071.1821699.0188452.2732549.0786524.2732549.1790291,0,.0942258-.0315395.1884516-.0942258.2826775-.0692298.1005075-.1036484.4491431-.1036484,1.0459066v.0942258h.3109452l2.6477456-.0376903c.1003767,0,.1601839.0126943.1790291.0376903.0188452.0251269.0282677.0816624.0282677.1696065v1.262626c0,.1005075-.0126943.1601839-.0376903.1790291-.0251269.0188452-.0816624.0282677-.1696065.0282677l-2.6477456-.0376903h-.3109452l.0471129,1.0459066c0,.1005075-.0157043.1601839-.0471129.1790291-.0251269.0188452-.088075.0282677-.1884516.0282677h-1.4510777c-.1005075,0-.1601839-.0125634-.1790291-.0376903-.0188452-.024996-.0282677-.0815315-.0282677-.1696065,0-.0314086.0031409-.1507613.0094226-.3580581.0125634-.226142.021986-.4554248.0282677-.6878485h-2.4498714l.0376903,1.0459066c0,.1005075-.0126943.1601839-.0376903.1790291-.0251269.0188452-.0848032.0282677-.1790291.0282677h-1.4605003c-.1069201,0-.1696065-.0125634-.1884516-.0376903-.0188452-.024996-.0282677-.0815315-.0282677-.1696065,0-.0314086.0061509-.1507613.0188452-.3580581.0061509-.2198603.0125634-.4490122.0188452-.6878485h-.0376903l-2.6006327.0376903c-.1005075,0-.1634556-.0125634-.1884516-.0376903-.0188452-.024996-.0282677-.0815315-.0282677-.1696065v-1.262626c0-.1003767.0125634-.1601839.0376903-.1790291.024996-.0188452.0848032-.0282677.1790291-.0282677l2.6383231.0376903v-.0565355c0-.6721442-.0376903-1.2249357-.113071-1.6583745Zm5.5593236,15.8393609c.4334388.0251269.7726518.0376903,1.0176389.0376903.3076735,0,.4617065-.1663348.4617065-.4993969v-1.196668h-2.0635455v.5559324l.0376903,2.1860391c0,.1003767-.0126943.1633248-.0376903.1884516-.0251269.0188452-.0816624.0282677-.1696065.0282677h-1.2908938c-.1069201,0-.1696065-.0157043-.1884516-.0471129-.0188452-.0188452-.0282677-.0753807-.0282677-.1696065l.0376903-2.1860391v-.5559324h-1.9693197v.9516808l.0376903,2.1954617c0,.1003767-.0126943.1633248-.0376903.1884516-.0251269.0188452-.0816624.0282677-.1696065.0282677h-1.3568519c-.1005075,0-.1601839-.0157043-.1790291-.0471129-.0188452-.0188452-.0282677-.0753807-.0282677-.1696065l.0376903-2.1954617v-5.1541526l-.0376903-2.2143069c0-.113071.0125634-.1821699.0376903-.2072968.024996-.0188452.0848032-.0282677.1790291-.0282677l2.4027585.0376903h3.9009491l2.4121811-.0376903c.1067893,0,.1696065.0157043.1884516.0471129.0188452.0251269.0282677.088075.0282677.1884516l-.0376903,1.9975875v1.7337552l.0565355,4.0328652c0,.7286797-.1664656,1.2374991-.4993969,1.5264583-.3142169.2699832-.9266848.405171-1.8374036.405171-.2324237,0-.3707524-.0221169-.4145936-.0659581-.0503846-.0439721-.091085-.1696065-.1224936-.3769033-.0628172-.3957485-.1853108-.7883561-.3674807-1.1778228Zm-4.1930491-5.6535494h1.9693197v-1.1684002h-1.9693197v1.1684002Zm0,2.6289005h1.9693197v-1.262626h-1.9693197v1.262626Zm5.6723946-3.7973007h-2.0635455v1.1684002h2.0635455v-1.1684002Zm-2.0635455,3.7973007h2.0635455v-1.262626h-2.0635455v1.262626Z"/>
      </g>
      <g>
        <path class="cls-2" d="m6.7214641,16.9059382H2.5274241c-.5677216,0-1.027951-.4602293-1.027951-1.027951V1.5689097c0-.5677216.4602293-1.027951,1.027951-1.027951h11.2252247c.5677216,0,1.027951.4602293,1.027951,1.027951v5.0575188"/>
        <path class="cls-2" d="m4.7889162.5409587v.7195657c0,.4882406.3957972.8840378.8840378.8840378h4.9341647c.4882406,0,.8840378-.3957972.8840378-.8840378v-.7195657"/>
        <line class="cls-2" x1="3.8843194" y1="5.8040677" x2="12.4779895" y2="5.8040677"/>
        <line class="cls-2" x1="3.8843194" y1="9.7524282" x2="7.0504084" y2="9.7524282"/>
        <line class="cls-2" x1="3.8843194" y1="13.2997281" x2="6.1458115" y2="13.2997281"/>
        <circle class="cls-2" cx="12.882464" cy="12.9090783" r="1.9097977"/>
        <path class="cls-2" d="m17.6363025,15.7263379l.4955715-1.0911002c.0413755-.0910965.0010687-.1984863-.0900278-.2398618l-1.4145005-.6424581c-.0765232-.0347564-.1170359-.117325-.1018142-.1999816.0643342-.3493469.0762929-.7011973.0403519-1.045632-.0086463-.0828605.0373941-.1612958.115392-.1905692l1.4487976-.5437473c.0936754-.0351573.1411118-.1395986.1059505-.2332725l-.4211328-1.1219465c-.0351597-.0936694-.1395954-.1411021-.2332657-.1059446l-1.4394875.5402857c-.0788144.0295816-.1661077-.0000289-.2139749-.0692786-.1987326-.2875075-.439544-.5487817-.7188448-.7733829-.065295-.0525073-.0886964-.1411861-.0540469-.2174741l.6344457-1.3968596c.0413755-.0910965.0010687-.1984863-.0900278-.2398618l-1.0911002-.4955715c-.0910965-.0413755-.1984863-.0010687-.2398618.0900278l-.6346489,1.3973069c-.0345559.0760818-.1164308.116612-.1987089.1020222-.3531827-.0626272-.7087145-.0720709-1.056276-.0324759-.0834254.009504-.1627978-.0365504-.1923028-.1151607l-.540451-1.439928c-.035158-.0936719-.1395953-.1411067-.2332672-.1059486l-1.1219251.4210944c-.0936719.035158-.1411067.1395953-.1059486.2332672l.5436078,1.4483385c.0293479.0781919.0004449.164844-.0678022.2129856-.2827303.1994387-.5396147.4397341-.7601728.7177803-.0523748.0660262-.1415675.0899021-.2183005.0550504l-1.4140433-.6422505c-.0910965-.0413755-.1984863-.0010687-.2398618.0900278l-.4955715,1.0911002c-.0413755.0910965-.0010687.1984863.0900278.2398618l1.4272436.648246c.0756689.0343684.1162562.1155923.1023135.1975225-.0586885.344865-.0669565.6916709-.0283449,1.0309332.0094984.0834583-.0365812.1628839-.1152221.1923986l-1.4742249.5532909c-.0936723.0351561-.1411092.139592-.1059535.2332644l.4210795,1.1219666c.0351564.0936743.1395953.1411113.2332687.1059527l1.4831134-.5566599c.0780101-.0292797.1643228-.0005016.2123621.06758.1948122.2760888.4287129.527387.6985631.744416.0651484.0523961.0885037.1407893.0539302.2169098l-.6560469,1.4444188c-.0413755.0910965-.0010687.1984863.0900278.2398618l1.0911002.4955715c.0910965.0413755.1984863.0010687.2398618-.0900278l.6560454-1.4444156c.0345742-.076122.116508-.1166946.1988316-.1021078.3410183.0604244.684163.0712164,1.0202535.0362594.0828781-.0086202.1613415.0374432.1906201.1154551l.5566173,1.4830876c.0351567.0936738.1395953.1411105.2332684.1059519l1.121988-.421118c.0936732-.0351585.1411077-.139598.1059474-.2332705l-.5533477-1.4742011c-.0295175-.0786389-.000026-.1655971.0690696-.2133586.2808762-.194152.5365648-.4285802.7576399-.6996894.0525222-.0644092.1403945-.0872887.2160643-.0529199l1.4272894.6482668c.0910965.0413755.1984863.0010687.2398618-.0900278Z"/>
      </g>
    </g>
  </g>
</svg>