<?xml version="1.0" encoding="UTF-8"?>
<svg id="_レイヤー_2" data-name="レイヤー 2" xmlns="http://www.w3.org/2000/svg" viewBox="0 0 206.3234501 20.7858379">
  <defs>
    <style>
      .cls-1 {
        fill: #a69a7f;
        stroke-width: 0px;
      }

      .cls-2 {
        fill: none;
        stroke: #a69a7f;
        stroke-miterlimit: 10;
      }
    </style>
  </defs>
  <g id="_レイヤー_1-2" data-name="レイヤー 1">
    <g>
      <g>
        <path class="cls-1" d="m34.3153199,2.5338848h8.2324219v1.40625h-6.796875v4.5019531h6.7382812v1.40625h-6.7382812v5.6445312h6.7382812v1.40625h-8.1738281V2.5338848Z"/>
        <path class="cls-1" d="m57.879773,6.2741192v14.5117188h-1.3476562v-5.7128906c-.5727539.6967773-1.2158203,1.2207031-1.9287109,1.5722656s-1.4926758.5273438-2.3388672.5273438c-1.5039062,0-2.7880859-.545166-3.8525391-1.6357422-1.0644531-1.090332-1.5966797-2.4169922-1.5966797-3.9794922,0-1.5297852.5371094-2.8383789,1.6113281-3.9257812,1.0742188-1.0871582,2.3666992-1.6308594,3.8769531-1.6308594.8725586,0,1.6616211.1855469,2.3681641.5566406s1.3266602.9277344,1.8603516,1.6699219v-1.953125h1.3476562Zm-5.4638672,1.0449219c-.7607422,0-1.4633789.1870117-2.1069336.5609131-.644043.3740234-1.15625.8991699-1.5361328,1.5754395-.3808594.6762695-.5708008,1.3916016-.5708008,2.145874,0,.7480469.1918945,1.4633789.5756836,2.1459961.3833008.6828613.8989258,1.2144775,1.5458984,1.5948486.6469727.3804932,1.3408203.5706787,2.0825195.5706787.7475586,0,1.456543-.1885986,2.1264648-.5657959s1.1850586-.8875732,1.5458984-1.5313721.5415039-1.3688965.5415039-2.175293c0-1.2290039-.4047852-2.2564697-1.2143555-3.0823975-.8095703-.8258057-1.8061523-1.2388916-2.9897461-1.2388916Z"/>
        <path class="cls-1" d="m63.270398,6.2741192h1.3671875v4.9609375c0,1.2109375.0649414,2.0444336.1958008,2.5.1953125.651123.5683594,1.1655273,1.1196289,1.5429688.5507812.3776855,1.2075195.5664062,1.9707031.5664062.7626953,0,1.409668-.1838379,1.9414062-.5517578.53125-.3676758.8979492-.8510742,1.1000977-1.4501953.137207-.4101562.2055664-1.2792969.2055664-2.6074219v-4.9609375h1.3964844v5.2148438c0,1.4648438-.1708984,2.5683594-.5126953,3.3105469s-.855957,1.3232422-1.5429688,1.7431641-1.5478516.6298828-2.5830078.6298828-1.8994141-.2099609-2.5927734-.6298828-1.2109375-1.0058594-1.5527344-1.7578125-.5126953-1.8830566-.5126953-3.3935547v-5.1171875Z"/>
        <path class="cls-1" d="m78.5780152,1.8991192c.3110352,0,.5766602.1108398.7973633.3320312.2202148.2214355.3305664.4882812.3305664.8007812,0,.3061523-.1103516.5698242-.3305664.7910156-.2207031.2214355-.4863281.3320312-.7973633.3320312-.3046875,0-.5673828-.1105957-.7875977-.3320312-.2207031-.2211914-.3305664-.4848633-.3305664-.7910156,0-.3125.1098633-.5793457.3305664-.8007812.2202148-.2211914.4829102-.3320312.7875977-.3320312Zm-.6787109,4.375h1.3671875v10.625h-1.3671875V6.2741192Z"/>
        <path class="cls-1" d="m84.6278199,6.2741192h1.3671875v1.953125c.5395508-.7421875,1.1606445-1.2988281,1.8632812-1.6699219s1.4863281-.5566406,2.3510742-.5566406c1.5087891,0,2.7998047.5437012,3.8730469,1.6308594,1.0732422,1.0874023,1.6098633,2.3959961,1.6098633,3.9257812,0,1.5625-.5317383,2.8891602-1.5952148,3.9794922-1.0634766,1.0905762-2.3461914,1.6357422-3.8486328,1.6357422-.8457031,0-1.6225586-.1757812-2.331543-.5273438s-1.3496094-.8754883-1.921875-1.5722656v5.7128906h-1.3671875V6.2741192Zm5.46875,1.0449219c-1.1821289,0-2.1777344.4130859-2.9863281,1.2388916-.8085938.8259277-1.2128906,1.8533936-1.2128906,3.0823975,0,.8063965.1801758,1.5314941.5405273,2.175293s.8769531,1.1541748,1.5493164,1.5313721,1.3818359.5657959,2.1289062.5657959c.7338867,0,1.4238281-.1901855,2.0703125-.5706787.6464844-.3803711,1.1611328-.9119873,1.5444336-1.5948486.3828125-.6826172.574707-1.3979492.574707-2.1459961,0-.7542725-.1899414-1.4696045-.5698242-2.145874s-.8916016-1.201416-1.534668-1.5754395c-.6430664-.3739014-1.3447266-.5609131-2.1044922-.5609131Z"/>
        <path class="cls-1" d="m100.7411011,6.2741192h1.3671875v1.8359375c.4760742-.677002.9643555-1.171875,1.4663086-1.484375.6914062-.4165039,1.4179688-.625,2.1806641-.625.5146484,0,1.003418.1010742,1.4663086.3027344.4628906.2019043.8408203.470459,1.1342773.8056641.2929688.3354492.5473633.8154297.7626953,1.4404297.4541016-.833252,1.0224609-1.4663086,1.7045898-1.8994141.6821289-.4328613,1.4160156-.6494141,2.2016602-.6494141.734375,0,1.3818359.1855469,1.9438477.5566406s.9790039.8886719,1.2519531,1.5527344.4091797,1.6601562.4091797,2.9882812v5.8007812h-1.3964844v-5.8007812c0-1.1391602-.0810547-1.9221191-.2436523-2.3486328-.1621094-.4262695-.4394531-.7697754-.8320312-1.0302734-.3925781-.2602539-.8613281-.390625-1.40625-.390625-.6621094,0-1.2670898.1953125-1.8154297.5859375s-.9492188.9116211-1.2021484,1.5625c-.2529297.651123-.3793945,1.7382812-.3793945,3.2617188v4.1601562h-1.3671875v-5.4394531c0-1.2824707-.0795898-2.1533203-.2392578-2.6123047s-.4379883-.8266602-.8349609-1.1035156c-.3969727-.2766113-.8691406-.4150391-1.4160156-.4150391-.6313477,0-1.222168.1904297-1.7724609.5712891s-.9570312.8935547-1.2207031,1.5380859-.3955078,1.6308594-.3955078,2.9589844v4.5019531h-1.3671875V6.2741192Z"/>
        <path class="cls-1" d="m130.9559449,13.3737285l1.1523438.6054688c-.3779297.7421875-.8144531,1.3413086-1.3100586,1.796875-.4951172.4558105-1.0522461.8024902-1.6708984,1.0400391-.6196289.2375488-1.3203125.3564453-2.1020508.3564453-1.7333984,0-3.0883789-.5678711-4.065918-1.7041016-.9775391-1.1359863-1.4663086-2.420166-1.4663086-3.8525391,0-1.3476562.4135742-2.5488281,1.2412109-3.6035156,1.0493164-1.3410645,2.4536133-2.0117188,4.2128906-2.0117188,1.8115234,0,3.2583008.6870117,4.3398438,2.0605469.769043.9702148,1.159668,2.1811523,1.1728516,3.6328125h-9.5605469c.0258789,1.2341309.4204102,2.2458496,1.1831055,3.0349121.7626953.7893066,1.7045898,1.1838379,2.8256836,1.1838379.5410156,0,1.0668945-.0939941,1.5791016-.2821045.5112305-.1879883.9467773-.4378662,1.3051758-.7491455s.7460938-.8138428,1.1635742-1.5078125Zm0-2.8613281c-.1826172-.7290039-.4482422-1.3117676-.796875-1.7480469-.3491211-.4360352-.8100586-.7875977-1.3833008-1.0546875-.5742188-.2668457-1.1767578-.4003906-1.809082-.4003906-1.0429688,0-1.9394531.3354492-2.6889648,1.0058594-.5478516.4882812-.9614258,1.2207031-1.2416992,2.1972656h7.9199219Z"/>
        <path class="cls-1" d="m137.5086793,6.2741192h1.3671875v1.9042969c.546875-.7290039,1.1523438-1.2744141,1.8164062-1.6357422s1.3867188-.5419922,2.1679688-.5419922c.7944336,0,1.4990234.2019043,2.1142578.6054688.6152344.4038086,1.0693359.9472656,1.3623047,1.6308594s.4394531,1.7480469.4394531,3.1933594v5.46875h-1.3671875v-5.0683594c0-1.223877-.0507812-2.0410156-.1518555-2.4511719-.1586914-.703125-.4628906-1.2319336-.9121094-1.5869141-.4492188-.3547363-1.0351562-.5322266-1.7578125-.5322266-.8271484,0-1.5678711.2734375-2.222168.8203125s-1.0854492,1.2241211-1.2939453,2.03125c-.1303711.5273438-.1953125,1.4909668-.1953125,2.890625v3.8964844h-1.3671875V6.2741192Z"/>
        <path class="cls-1" d="m153.3973511,2.3288067h1.3671875v3.9453125h2.1679688v1.1816406h-2.1679688v9.4433594h-1.3671875V7.4557598h-1.8652344v-1.1816406h1.8652344v-3.9453125Z"/>
      </g>
      <g>
        <path class="cls-2" d="m6.2634705,18.5618998H1.6345414c-.6265899,0-1.1345414-.5079515-1.1345414-1.1345414V1.6345414c0-.6265899.5079515-1.1345414,1.1345414-1.1345414h12.3891926c.6265899,0,1.1345414.5079515,1.1345414,1.1345414v5.5819439"/>
        <path class="cls-2" d="m4.1305326.5v.794179c0,.5388673.4368383.9757056.9757056.9757056h5.4457989c.5388673,0,.9757056-.4368383.9757056-.9757056v-.794179"/>
        <line class="cls-2" x1="3.1321362" y1="6.3088522" x2="12.6169026" y2="6.3088522"/>
        <line class="cls-2" x1="3.1321362" y1="10.6666267" x2="6.6265238" y2="10.6666267"/>
        <line class="cls-2" x1="3.1321362" y1="14.5817539" x2="5.6281273" y2="14.5817539"/>
        <circle class="cls-2" cx="13.063318" cy="14.1505968" r="2.1078287"/>
        <path class="cls-2" d="m18.3100922,17.2599841l.5469584-1.2042387c.0456658-.1005425.0011795-.2190678-.099363-.2647336l-1.5611731-.709076c-.0844581-.0383604-.1291716-.1294907-.1123716-.2207181.0710052-.3855715.0842039-.773906.044536-1.1540559-.0095429-.0914524.0412715-.1780209.1273573-.2103297l1.5990266-.6001296c.1033889-.0388028.155744-.1540738.1169367-.257461l-.464801-1.2382836c-.0388055-.1033822-.1540703-.1557332-.2574535-.1169302l-1.5887511.5963091c-.0869869.032649-.1833318-.0000319-.2361624-.0764623-.2193396-.3173198-.4851212-.605686-.7933834-.8535767-.0720656-.0579519-.0978935-.155826-.0596511-.2400244l.7002328-1.541703c.0456658-.1005425.0011795-.2190678-.099363-.2647336l-1.2042387-.5469584c-.1005425-.0456658-.2190678-.0011795-.2647336.099363l-.700457,1.5421967c-.0381391.0839709-.1285037.1287037-.2193134.1126011-.389805-.0691211-.7822027-.079544-1.1658035-.0358434-.0920759.0104895-.1796787-.0403404-.212243-.1271019l-.5964916-1.5892373c-.0388037-.1033849-.1540703-.1557383-.2574552-.1169347l-1.23826.4647586c-.1033849.0388037-.1557383.1540703-.1169347.2574552l.5999756,1.5985199c.0323911.0862998.000491.181937-.0748327.2350706-.3120473.220119-.5955685.4853311-.8389967.7922085-.0578057.0728727-.1562469.0992242-.2409365.0607587l-1.5606686-.7088468c-.1005425-.0456658-.2190678-.0011795-.2647336.099363l-.5469584,1.2042387c-.0456658.1005425-.0011795.2190678.099363.2647336l1.5752376.715464c.0835151.0379321.1283111.1275783.1129226.218004-.064774.3806248-.0738994.7633918-.0312841,1.1378329.0104834.0921123-.0403744.1797737-.1271698.2123488l-1.6270905.6106629c-.1033853.0388015-.1557411.1540666-.11694.2574521l.4647422,1.2383057c.0388019.1033876.1540702.1557434.2574568.1169391l1.6369007-.6143812c.0860992-.0323158.1813618-.0005536.2343824.0745875.2150126.304717.473167.5820729.7709986.8216061.0719038.0578291.0976809.155388.0595224.2394017l-.7240738,1.5941938c-.0456658.1005425-.0011795.2190678.099363.2647336l1.2042387.5469584c.1005425.0456658.2190678.0011795.2647336-.099363l.7240722-1.5941902c.0381593-.0840153.128589-.1287949.2194489-.1126956.3763792.06669.7551053.078601,1.1260458.0400192.091472-.0095141.1780714.0413257.210386.1274269l.6143342,1.6368722c.0388022.1033871.1540702.1557425.2574565.1169383l1.2383294-.4647846c.1033863-.0388042.1557395-.1540732.1169333-.2574588l-.6107255-1.6270642c-.0325782-.0867932-.0000287-.1827682.0762316-.2354822.3100009-.2142841.5922024-.4730207.8362012-.7722417.0579684-.0710879.1549524-.0963399.2384685-.0584073l1.5752882.715487c.1005425.0456658.2190678.0011795.2647336-.099363Z"/>
      </g>
      <polyline class="cls-1" points="206.3234501 8.0339708 201.2118004 13.1456206 196.1001506 8.0339708"/>
    </g>
  </g>
</svg>