<?xml version="1.0" encoding="UTF-8"?>
<svg id="_レイヤー_2" data-name="レイヤー 2" xmlns="http://www.w3.org/2000/svg" viewBox="0 0 206.3234501 20.0867975">
  <defs>
    <style>
      .cls-1 {
        fill: #a69a7f;
        stroke-width: 0px;
      }

      .cls-2 {
        fill: none;
        stroke: #a69a7f;
        stroke-miterlimit: 10;
      }
    </style>
  </defs>
  <g id="_レイヤー_1-2" data-name="レイヤー 1">
    <g>
      <g>
        <path class="cls-1" d="m34.4540698,4.8619443h1.3671875v1.8359375c.4760742-.677002.9643555-1.171875,1.4663086-1.484375.6914062-.4165039,1.4179688-.625,2.1806641-.625.5146484,0,1.003418.1010742,1.4663086.3027344.4628906.2019043.8408203.470459,1.1342773.8056641.2929688.3354492.5473633.8154297.7626953,1.4404297.4541016-.833252,1.0224609-1.4663086,1.7045898-1.8994141.6821289-.4328613,1.4160156-.6494141,2.2016602-.6494141.734375,0,1.3818359.1855469,1.9438477.5566406s.9790039.8886719,1.2519531,1.5527344.4091797,1.6601562.4091797,2.9882812v5.8007812h-1.3964844v-5.8007812c0-1.1391602-.0810547-1.9221191-.2436523-2.3486328-.1621094-.4262695-.4394531-.7697754-.8320312-1.0302734-.3925781-.2602539-.8613281-.390625-1.40625-.390625-.6621094,0-1.2670898.1953125-1.8154297.5859375s-.9492188.9116211-1.2021484,1.5625c-.2529297.651123-.3793945,1.7382812-.3793945,3.2617188v4.1601562h-1.3671875v-5.4394531c0-1.2824707-.0795898-2.1533203-.2392578-2.6123047s-.4379883-.8266602-.8349609-1.1035156c-.3969727-.2766113-.8691406-.4150391-1.4160156-.4150391-.6313477,0-1.222168.1904297-1.7724609.5712891s-.9570312.8935547-1.2207031,1.5380859-.3955078,1.6308594-.3955078,2.9589844v4.5019531h-1.3671875V4.8619443Z"/>
        <path class="cls-1" d="m66.3095385,4.8619443v10.625h-1.3476562v-1.8261719c-.5727539.6967773-1.2158203,1.2207031-1.9287109,1.5722656s-1.4926758.5273438-2.3388672.5273438c-1.5039062,0-2.7880859-.545166-3.8525391-1.6357422-1.0644531-1.090332-1.5966797-2.4169922-1.5966797-3.9794922,0-1.5297852.5371094-2.8383789,1.6113281-3.9257812,1.0742188-1.0871582,2.3666992-1.6308594,3.8769531-1.6308594.8725586,0,1.6616211.1855469,2.3681641.5566406s1.3266602.9277344,1.8603516,1.6699219v-1.953125h1.3476562Zm-5.4638672,1.0449219c-.7607422,0-1.4633789.1870117-2.1069336.5609131-.644043.3740234-1.15625.8991699-1.5361328,1.5754395-.3808594.6762695-.5708008,1.3916016-.5708008,2.145874,0,.7480469.1918945,1.4633789.5756836,2.1459961.3833008.6828613.8989258,1.2144775,1.5458984,1.5948486.6469727.3804932,1.3408203.5706787,2.0825195.5706787.7475586,0,1.456543-.1885986,2.1264648-.5657959s1.1850586-.8875732,1.5458984-1.5313721.5415039-1.3688965.5415039-2.175293c0-1.2290039-.4047852-2.2564697-1.2143555-3.0823975-.8095703-.8258057-1.8061523-1.2388916-2.9897461-1.2388916Z"/>
        <path class="cls-1" d="m73.0771166.9166318h1.3671875v3.9453125h2.1679688v1.1816406h-2.1679688v9.4433594h-1.3671875V6.043585h-1.8652344v-1.1816406h1.8652344V.9166318Z"/>
        <path class="cls-1" d="m90.1083666,11.9615537l1.1523438.6054688c-.3779297.7421875-.8144531,1.3413086-1.3100586,1.796875-.4951172.4558105-1.0522461.8024902-1.6708984,1.0400391-.6196289.2375488-1.3203125.3564453-2.1020508.3564453-1.7333984,0-3.0883789-.5678711-4.065918-1.7041016-.9775391-1.1359863-1.4663086-2.420166-1.4663086-3.8525391,0-1.3476562.4135742-2.5488281,1.2412109-3.6035156,1.0493164-1.3410645,2.4536133-2.0117188,4.2128906-2.0117188,1.8115234,0,3.2583008.6870117,4.3398438,2.0605469.769043.9702148,1.159668,2.1811523,1.1728516,3.6328125h-9.5605469c.0258789,1.2341309.4204102,2.2458496,1.1831055,3.0349121.7626953.7893066,1.7045898,1.1838379,2.8256836,1.1838379.5410156,0,1.0668945-.0939941,1.5791016-.2821045.5112305-.1879883.9467773-.4378662,1.3051758-.7491455s.7460938-.8138428,1.1635742-1.5078125Zm0-2.8613281c-.1826172-.7290039-.4482422-1.3117676-.796875-1.7480469-.3491211-.4360352-.8100586-.7875977-1.3833008-1.0546875-.5742188-.2668457-1.1767578-.4003906-1.809082-.4003906-1.0429688,0-1.9394531.3354492-2.6889648,1.0058594-.5478516.4882812-.9614258,1.2207031-1.2416992,2.1972656h7.9199219Z"/>
        <path class="cls-1" d="m96.1435229,4.8619443h1.3964844v1.5527344c.4165039-.6118164.855957-1.0693359,1.3183594-1.3720703s.9438477-.4541016,1.4453125-.4541016c.3774414,0,.78125.1206055,1.2109375.3613281l-.7128906,1.1523438c-.2866211-.1235352-.5273438-.1855469-.7226562-.1855469-.4555664,0-.8950195.1872559-1.3183594.5615234-.4233398.3745117-.7456055.9555664-.9667969,1.7431641-.1694336.6054688-.2539062,1.8295898-.2539062,3.671875v3.59375h-1.3964844V4.8619443Z"/>
        <path class="cls-1" d="m105.6503588.4869443c.3110352,0,.5766602.1108398.7973633.3320312.2202148.2214355.3305664.4882812.3305664.8007812,0,.3061523-.1103516.5698242-.3305664.7910156-.2207031.2214355-.4863281.3320312-.7973633.3320312-.3046875,0-.5673828-.1105957-.7875977-.3320312-.2207031-.2211914-.3305664-.4848633-.3305664-.7910156,0-.3125.1098633-.5793457.3305664-.8007812.2202148-.2211914.4829102-.3320312.7875977-.3320312Zm-.6787109,4.375h1.3671875v10.625h-1.3671875V4.8619443Z"/>
        <path class="cls-1" d="m122.2665698,4.8619443v10.625h-1.3476562v-1.8261719c-.5727539.6967773-1.2158203,1.2207031-1.9287109,1.5722656s-1.4926758.5273438-2.3388672.5273438c-1.5039062,0-2.7880859-.545166-3.8525391-1.6357422-1.0644531-1.090332-1.5966797-2.4169922-1.5966797-3.9794922,0-1.5297852.5371094-2.8383789,1.6113281-3.9257812,1.0742188-1.0871582,2.3666992-1.6308594,3.8769531-1.6308594.8725586,0,1.6616211.1855469,2.3681641.5566406s1.3266602.9277344,1.8603516,1.6699219v-1.953125h1.3476562Zm-5.4638672,1.0449219c-.7607422,0-1.4633789.1870117-2.1069336.5609131-.644043.3740234-1.15625.8991699-1.5361328,1.5754395-.3808594.6762695-.5708008,1.3916016-.5708008,2.145874,0,.7480469.1918945,1.4633789.5756836,2.1459961.3833008.6828613.8989258,1.2144775,1.5458984,1.5948486.6469727.3804932,1.3408203.5706787,2.0825195.5706787.7475586,0,1.456543-.1885986,2.1264648-.5657959s1.1850586-.8875732,1.5458984-1.5313721.5415039-1.3688965.5415039-2.175293c0-1.2290039-.4047852-2.2564697-1.2143555-3.0823975-.8095703-.8258057-1.8061523-1.2388916-2.9897461-1.2388916Z"/>
        <path class="cls-1" d="m127.6376635.7603818h1.3671875v14.7265625h-1.3671875V.7603818Z"/>
        <path class="cls-1" d="m139.6884448,6.0240537l-.8789062.9082031c-.730957-.7094727-1.4458008-1.0644531-2.144043-1.0644531-.4443359,0-.8242188.1464844-1.140625.4394531-.3168945.2929688-.4750977.6347656-.4750977,1.0253906,0,.3452148.1303711.6738281.3911133.9863281.2612305.3190918.8095703.6933594,1.6445312,1.1230469,1.0175781.5273438,1.7089844,1.0351562,2.074707,1.5234375.3588867.494873.5380859,1.0515137.5380859,1.6699219,0,.8725586-.3066406,1.6113281-.9194336,2.2167969-.6132812.6054688-1.3789062.9082031-2.2983398.9082031-.612793,0-1.1982422-.1335449-1.7553711-.4003906-.5576172-.2668457-1.019043-.6347656-1.3842773-1.1035156l.859375-.9765625c.6982422.7878418,1.4389648,1.1816406,2.222168,1.1816406.5478516,0,1.0146484-.1757812,1.3994141-.5273438s.5776367-.7648926.5776367-1.2402344c0-.390625-.1274414-.7387695-.3813477-1.0449219-.2548828-.2993164-.8291016-.677002-1.7226562-1.1328125-.9589844-.4946289-1.6118164-.9829102-1.9575195-1.4648438-.3457031-.4816895-.5185547-1.0317383-.5185547-1.6503906,0-.8071289.2753906-1.4777832.8266602-2.0117188.5507812-.5336914,1.2470703-.8007812,2.0883789-.8007812.9780273,0,1.9628906.4785156,2.9541016,1.4355469Z"/>
      </g>
      <g>
        <circle class="cls-2" cx="12.5431559" cy="2.4983131" r="1.9983131"/>
        <circle class="cls-2" cx="10.1139317" cy="10.0987437" r="1.9983131"/>
        <circle class="cls-2" cx="2.4983131" cy="14.473004" r="1.9983131"/>
        <circle class="cls-2" cx="17.7295503" cy="17.5884843" r="1.9983131"/>
        <line class="cls-2" x1="11.9469688" y1="4.4061263" x2="10.6943155" y2="8.1863368"/>
        <line class="cls-2" x1="4.3224835" y1="13.657334" x2="8.3123417" y2="10.9643831"/>
        <line class="cls-2" x1="11.5395801" y1="11.4985199" x2="16.3454106" y2="16.1479281"/>
      </g>
      <polyline class="cls-1" points="206.3234501 8.0209151 201.2118004 13.1325649 196.1001506 8.0209151"/>
    </g>
  </g>
</svg>