<?xml version="1.0" encoding="UTF-8"?>
<svg id="_レイヤー_2" data-name="レイヤー 2" xmlns="http://www.w3.org/2000/svg" viewBox="0 0 114.0504938 18.8152174">
  <defs>
    <style>
      .cls-1 {
        stroke: #fff;
        stroke-miterlimit: 10;
        stroke-width: .9290872px;
      }

      .cls-1, .cls-2 {
        fill: none;
      }

      .cls-2 {
        opacity: .2;
      }

      .cls-2, .cls-3 {
        stroke-width: 0px;
      }

      .cls-3 {
        fill: #fff;
      }
    </style>
  </defs>
  <g id="_レイヤー_1-2" data-name="レイヤー 1">
    <g>
      <rect class="cls-2" y="0" width="114.0504938" height="18.8152174"/>
      <g>
        <path class="cls-3" d="m33.7046494,6.1240147l-1.7222308.0378512c-.1073766,0-.1703305-.0126171-.1892561-.0378512-.0189256-.0251027-.0283884-.0851653-.0283884-.1797933v-1.372107c0-.1008052.0126171-.1608677.0378512-.1797933.0251027-.0189256.0851653-.0283884.1797933-.0283884l1.7222308.0378512h.3690495v-1.2585533c0-1.1417139-.0536226-2.0092693-.1608677-2.6022719.7253504.0189256,1.3468728.0630854,1.8641729.1324793.2207988.0441598.3311982.1168394.3311982.2176446,0,.1135537-.0378512.2493187-.1135537.4069007-.0946281.2144903-.1419421.8201099-.1419421,1.8168589v1.2869417l1.4004954-.0378512c.0946281,0,.1514049.0127485.1703305.0378512.0126171.0189256.0189256.0757025.0189256.1703305v1.372107c0,.1073766-.0094628.1703305-.0283884.1892561s-.0725482.0283884-.1608677.0283884c-.0127485,0-.1546906-.0031543-.4258263-.0094628-.2901927-.0126171-.6089053-.0220799-.9557435-.0283884.4857574,1.3437186,1.1765423,2.5833463,2.0723547,3.7188831-.2587815.3469696-.4953517.7727959-.7097105,1.2774789-.0757025.2081818-.1546906.3122726-.2365702.3122726-.0630854,0-.1419421-.1040909-.2365702-.3122726-.3785123-.7253504-.7002477-1.5202262-.9652063-2.3846273.0061771,2.15752.0315427,4.409668.0757025,6.7564441.0126171.5426657.0283884,1.1986222.047314,1.9682638.0061771.3595867.0094628.5583056.0094628.5961568,0,.1072451-.0127485.1703305-.0378512.1892561-.0252342.0189256-.082011.0283884-.1703305.0283884h-1.5140491c-.1073766,0-.1736162-.0127485-.1987189-.0378512-.0189256-.0252342-.0283884-.0851653-.0283884-.1797933,0-.0189256.0094628-.4575004.0283884-1.3153301.0567768-2.5107981.0913424-4.8544199.1040909-7.0308655-.3848208,1.4446552-.9336636,2.7599853-1.6465284,3.9459904-.1263022.2081818-.2239531.3122726-.293347.3122726-.0757025,0-.1387878-.110268-.1892561-.3311982-.1892561-.6182367-.4101864-1.0943999-.6623965-1.4288838,1.2806332-1.8357845,2.1669828-3.8639795,2.6590487-6.0845848h-.2744214Zm11.7433433,10.3996247c.2586501,0,.4258263-.0440283.5015288-.1324793.062954-.0693939.0946281-.1987189.0946281-.3879751v-1.0692972h-6.1413616v.9935947l.047314,2.1291315c0,.1008052-.0127485.164022-.0378512.1892561-.0252342.0189256-.0851653.0283884-.1797933.0283884h-1.4761979c-.1009366,0-.1608677-.0157713-.1797933-.047314-.0189256-.0189256-.0283884-.0757025-.0283884-.1703305l.0378512-2.0912803v-1.0125203l-1.0882228.0189256c-.1009366,0-.1608677-.0126171-.1797933-.0378512-.0189256-.0251027-.0283884-.0818796-.0283884-.1703305v-1.0314459c0-.1008052.0126171-.1608677.0378512-.1797933.0251027-.0189256.0818796-.0283884.1703305-.0283884.0126171,0,.1291936.0032857.3501239.0094628.2332845.0127485.4793175.0222113.7380989.0283884v-2.1764456l-.0378512-2.1669828c0-.1072451.0126171-.1703305.0378512-.1892561.0251027-.0189256.0818796-.0283884.1703305-.0283884l2.5076438.047314h1.2396277v-.9746691h-1.9398754l-2.6401231.0378512c-.1009366,0-.1608677-.0126171-.1797933-.0378512-.0189256-.0251027-.0283884-.0818796-.0283884-.1703305v-1.0314459c0-.1008052.0126171-.1608677.0378512-.1797933.0251027-.0189256.0818796-.0283884.1703305-.0283884l2.6211975.0378512v-.9652063c-.5109916.0063085-.968492.0157713-1.372107.0283884-.2649586.0063085-.4037464.0094628-.4163635.0094628-.1009366,0-.1608677-.0126171-.1797933-.0378512-.0189256-.0251027-.0283884-.0818796-.0283884-.1703305v-.9368179c0-.1008052.0126171-.1608677.0378512-.1797933.0251027-.0189256.0818796-.0283884.1703305-.0283884l1.7884705.0378512v-.9746691c-.6497794.0063085-1.2301649.0157713-1.7411565.0283884-.3344839.0063085-.5048145.0094628-.5109916.0094628-.1009366,0-.1608677-.0156399-.1797933-.047314-.0189256-.0251027-.0283884-.0851653-.0283884-.1797933v-.9557435c0-.1072451.0126171-.1734848.0378512-.1987189.0251027-.0189256.0818796-.0283884.1703305-.0283884l2.252148.0378512c0-.7380989-.0411369-1.2617076-.1230165-1.5708259.8831953.0567768,1.4856607.1009366,1.8073961.1324793.1954332.0189256.293347.0725482.293347.1608677,0,.082011-.0316741.1987189-.0946281.3501239-.082011.1387878-.1230165.4480376-.1230165.9273551h2.2710736c0-.7380989-.0411369-1.2617076-.1230165-1.5708259.8264185.0505997,1.419421.0946281,1.7790077.1324793.2081818.0189256.3122726.0725482.3122726.1608677,0,.0946281-.0378512.2114674-.1135537.3501239-.0630854.1452278-.0946281.4542147-.0946281.9273551h.3122726l2.6306603-.0378512c.0946281,0,.1514049.0157713.1703305.047314.0189256.0252342.0283884.0851653.0283884.1797933v.9557435c0,.1073766-.0127485.1736162-.0378512.1987189-.0252342.0189256-.0789882.0283884-.1608677.0283884l-2.6306603-.0378512h-.3122726v.9746691l2.3657017-.0378512c.1008052,0,.1608677.0127485.1797933.0378512.0189256.0252342.0283884.082011.0283884.1703305v.9368179c0,.1009366-.0127485.1608677-.0378512.1797933-.0252342.0189256-.082011.0283884-.1703305.0283884l-2.3657017-.0378512v.9652063h.6434709l2.6117347-.0378512c.1008052,0,.164022.0127485.1892561.0378512.0189256.0252342.0283884.082011.0283884.1703305v1.0314459c0,.1009366-.0157713.1608677-.047314.1797933-.0189256.0189256-.0757025.0283884-.1703305.0283884l-2.6401231-.0378512h-2.6874371v.9746691h1.4288838l2.5171066-.047314c.1072451,0,.1703305.0127485.1892561.0378512.0189256.0252342.0283884.0851653.0283884.1797933l-.0378512,2.3467761v1.9966522c.3279125-.0061771.6340081-.0156399.9178923-.0283884.1892561-.0061771.2900613-.0094628.3028098-.0094628.1008052,0,.164022.0127485.1892561.0378512.0189256.0252342.0283884.082011.0283884.1703305v1.0314459c0,.0946281-.0110399.152982-.0331198.1750619-.0222113.0222113-.0837196.0331198-.1845247.0331198l-1.2017765-.0189256.0189256,1.1639252c0,.7759502-.1419421,1.2995588-.4258263,1.5708259-.1955647.1765076-.4699861.293347-.8232642.3501239-.3217354.0567768-.8421898.0883195-1.5613631.0946281-.3091184,0-.4953517-.0316741-.5583056-.0946281-.0505997-.0505997-.1103994-.2176446-.1797933-.5015288-.1009366-.429112-.2428787-.785413-.4258263-1.0692972.5360943.0378512,1.0346002.0567768,1.4951235.0567768Zm-5.5452048-5.1950809h2.1007431v-.9841319h-2.1007431v.9841319Zm0,2.2332224h2.1007431v-1.0503716h-2.1007431v1.0503716Zm1.9020242-9.1032202h2.2710736v-.9746691h-2.2710736v.9746691Zm0,2.2426852h2.2710736v-.9652063h-2.2710736v.9652063Zm4.2393375,3.6431806h-2.2805364v.9841319h2.2805364v-.9841319Zm-2.2805364,3.2173543h2.2805364v-1.0503716h-2.2805364v1.0503716Z"/>
        <path class="cls-3" d="m71.5748023,15.5584331c-.2587815.3974379-.4321348.8958124-.5204544,1.4951235-.0505997.3217354-.1103994.5077059-.1797933.5583056-.0630854.0504683-.2428787.0818796-.53938.0946281-2.1007431.1197308-4.3751025.1797933-6.8226837.1797933-2.1513428,0-3.6621062-.1797933-4.5326845-.53938-.7697731-.3217354-1.4037811-.8989666-1.9020242-1.7316936-.6434709.6245453-1.2964045,1.1954679-1.958801,1.712768-.183079.1450964-.3122726.2711357-.3879751.3785123-.082011.1197308-.1766391.1797933-.2838842.1797933-.1073766,0-.1987189-.0789882-.2744214-.2365702-.2081818-.3848208-.4731403-.990309-.7948758-1.8168589.4731403-.2207988.8548069-.4225406,1.1449996-.6056196.4603918-.2838842.996749-.696962,1.6086772-1.2396277v-4.3055771h-.9273551l-1.4004954.047314c-.1135537,0-.1797933-.0156399-.1987189-.047314-.0252342-.0251027-.0378512-.0883195-.0378512-.1892561v-1.4761979c0-.1008052.0156399-.1608677.047314-.1797933.0251027-.0189256.0883195-.0283884.1892561-.0283884l1.4004954.0378512h1.1923137l1.4572723-.0378512c.1008052,0,.164022.0127485.1892561.0378512.0189256.0252342.0283884.082011.0283884.1703305l-.0378512,1.8452473v4.1068582c.410055.8011843.9399721,1.3375415,1.5897515,1.6086772.6434709.2587815,1.8389388.3879751,3.5864038.3879751,2.8828704,0,5.6713756-.1356336,8.3651212-.4069007ZM55.6394356,1.1938924c.9588978.914738,1.7662592,1.8736358,2.4224785,2.8766933.0567768.0630854.0851653.1135537.0851653.1514049,0,.0505997-.0662396.129325-.1987189.2365702l-1.0882228.8516526c-.1073766.088451-.183079.1324793-.2271074.1324793-.0567768,0-.1168394-.0504683-.1797933-.1514049-.7254819-1.1795652-1.5173348-2.1826227-2.3751645-3.0091726-.0567768-.062954-.0851653-.1135537-.0851653-.1514049,0-.0440283.0599311-.110268.1797933-.1987189l1.0409088-.7380989c.1008052-.0757025.1797933-.1135537.2365702-.1135537.0504683,0,.1135537.0378512.1892561.1135537Zm5.9899567,7.1349564l-2.6306603.0378512c-.1135537,0-.1797933-.0126171-.1987189-.0378512-.0252342-.0189256-.0378512-.0693939-.0378512-.1514049v-1.3626442c0-.1008052.0156399-.1608677.047314-.1797933.0251027-.0189256.0883195-.0283884.1892561-.0283884l2.6306603.0378512h2.15752v-1.9398754h-2.4792554c-.2020046.3469696-.4605233.7475617-.7759502,1.2017765-.2020046.2587815-.3375068.3879751-.4069007.3879751-.088451,0-.2303931-.0913424-.4258263-.2744214-.3658952-.3028098-.7538703-.53938-1.1639252-.7097105.7759502-.8578297,1.4225753-1.8798129,1.9398754-3.0659494.164022-.4352891.2711357-.8421898.3217354-1.2207021.4793175.0946281,1.0503716.2618043,1.712768.5015288.1954332.0757025.293347.1608677.293347.2554958,0,.0757025-.0536226.1641534-.1608677.2649586-.1135537.1198622-.2428787.3469696-.3879751.6813221l-.1135537.293347h1.6465284v-.3501239c0-.8138014-.047314-1.4982777-.1419421-2.0534291.6750136,0,1.33741.0316741,1.9871894.0946281.1954332.0252342.293347.0979138.293347.2176446,0,.1009366-.034697.2081818-.1040909.3217354-.0757025.1577134-.1135537.5994425-.1135537,1.324793v.4447519h1.5519003l2.3846273-.0378512c.1008052,0,.1608677.0157713.1797933.047314.0189256.0252342.0283884.0851653.0283884.1797933v1.324793c0,.1009366-.0127485.1608677-.0378512.1797933-.0252342.0189256-.082011.0283884-.1703305.0283884l-2.3846273-.0378512h-1.5519003v1.9398754h2.2805364l2.6590487-.0378512c.1135537,0,.1797933.0127485.1987189.0378512.0251027.0252342.0378512.082011.0378512.1703305v1.3626442c0,.088451-.0157713.1419421-.047314.1608677-.0252342.0189256-.088451.0283884-.1892561.0283884l-2.6590487-.0378512h-6.3590062Zm5.1004529,1.2017765l2.4224785-.0378512c.1008052,0,.164022.0127485.1892561.0378512.0189256.0252342.0283884.0851653.0283884.1797933l-.0378512,1.4856607v1.8641729l.0378512,1.4951235c0,.0946281-.0110399.152982-.0331198.1750619-.0222113.0222113-.0837196.0331198-.1845247.0331198l-2.4224785-.0378512h-3.8324368l-2.450867.0378512c-.1009366,0-.1608677-.0126171-.1797933-.0378512-.0189256-.0251027-.0283884-.0818796-.0283884-.1703305l.0378512-1.4951235v-1.8641729l-.0378512-1.4856607c0-.1072451.0126171-.1703305.0378512-.1892561.0251027-.0189256.0818796-.0283884.1703305-.0283884l2.450867.0378512h3.8324368Zm.6434709,3.5296269v-1.8830986h-5.1761553v1.8830986h5.1761553Z"/>
      </g>
      <g>
        <circle class="cls-1" cx="12.5724072" cy="2.3975659" r="1.8566072"/>
        <circle class="cls-1" cx="10.315446" cy="9.459029" r="1.8566072"/>
        <circle class="cls-1" cx="3.2398719" cy="13.5230984" r="1.8566072"/>
        <circle class="cls-1" cx="17.39102" cy="16.4176515" r="1.8566072"/>
        <line class="cls-1" x1="12.0184973" y1="4.1700908" x2="10.8546731" y2="7.6822362"/>
        <line class="cls-1" x1="4.9346853" y1="12.7652698" x2="8.6416117" y2="10.2632836"/>
        <line class="cls-1" x1="11.6399977" y1="10.7595432" x2="16.1050335" y2="15.079249"/>
      </g>
    </g>
  </g>
</svg>