<?xml version="1.0" encoding="UTF-8"?>
<svg id="_レイヤー_2" data-name="レイヤー 2" xmlns="http://www.w3.org/2000/svg" viewBox="0 0 207.0577969 17.5198043">
  <defs>
    <style>
      .cls-1 {
        fill: #a69a7f;
        stroke-width: 0px;
      }

      .cls-2 {
        fill: none;
        stroke: #a69a7f;
        stroke-miterlimit: 10;
      }
    </style>
  </defs>
  <g id="_レイヤー_1-2" data-name="レイヤー 1">
    <g>
      <g>
        <path class="cls-1" d="m47.4125315,12.7334742c.3867188.2519531.8232422.460083,1.3095703.6240234.1933594.0703125.3105469.1230469.3515625.1582031.046875.0410156.0703125.1025391.0703125.1845703,0,.0410156-.0087891.1318359-.0263672.2724609-.0527344.6503906-.1523438,1.1308594-.2988281,1.4414062-.1171875.2578125-.2988281.4746094-.5449219.6503906-.4570312.3572998-1.4589844.5361328-3.0058594.5361328-1.3652344,0-2.2675781-.0849609-2.7070312-.2548828-.4921875-.2109375-.7382812-.6358643-.7382812-1.2744141v-3.7265625h-1.6259766c-.5214844,3.0352783-2.3642578,4.883667-5.5283203,5.5458984-.1757812.0351562-.3017578.0527344-.3779297.0527344-.1230469,0-.2607422-.1494141-.4130859-.4482422-.2460938-.4746094-.5390625-.8643799-.8789062-1.1689453,3.1171875-.3867188,4.8574219-1.7138672,5.2207031-3.9814453h-.0351562l-2.4345703.0351562c-.0996094,0-.1611328-.0117188-.1845703-.0351562-.0175781-.0233154-.0263672-.0791016-.0263672-.1669922l.0351562-2.1884766V3.6016383l-.0351562-2.2324219c0-.0936279.0117188-.1494141.0351562-.1669922.0292969-.0175781.0878906-.0263672.1757812-.0263672l2.4697266.0351562h5.8007812l2.4521484-.0351562c.0996094,0,.1582031.0118408.1757812.0351562.0175781.0234375.0263672.0761719.0263672.1582031l-.0351562,2.2324219v5.3876953l.0351562,2.1884766c0,.09375-.0102539.1508789-.0307617.1713867-.0205078.0206299-.0776367.0307617-.1713867.0307617l-2.4521484-.0351562h-.3251953v2.8476562c0,.3458252.1083984.5419922.3251953.5888672.1933594.0585938.6591797.0878906,1.3974609.0878906.8203125,0,1.3359375-.0791016,1.546875-.2373047.28125-.2109375.4306641-.84375.4482422-1.8984375Zm-2.6455078-9.8876953h-7.3388672v1.3183594h7.3388672v-1.3183594Zm-7.3388672,4.1044922h7.3388672v-1.2744141h-7.3388672v1.2744141Zm7.3388672,2.8476562v-1.3359375h-7.3388672v1.3359375h7.3388672Z"/>
        <path class="cls-1" d="m55.7621409,12.2061305l-2.25.0351562c-.09375,0-.1494141-.0117188-.1669922-.0351562-.0175781-.0233154-.0263672-.0760498-.0263672-.1582031v-1.3886719c0-.0996094.0117188-.1582031.0351562-.1757812s.0761719-.0263672.1582031-.0263672l2.25.0351562h4.7373047c-.0234375-.6737061-.0585938-1.1834717-.1054688-1.5292969l1.0458984.1054688c.5449219-.3515625,1.0898438-.7822266,1.6347656-1.2919922h-3.8847656l-2.3291016.0351562c-.1289062,0-.1933594-.0584717-.1933594-.1757812v-1.265625c0-.0936279.0117188-.1494141.0351562-.1669922s.0761719-.0263672.1582031-.0263672l2.3291016.0351562h4.8779297c.234375,0,.3779297-.0117188.4306641-.0351562.1230469-.046875.1992188-.0703125.2285156-.0703125.1171875,0,.3779297.1904297.7822266.5712891.3339844.3515625.5009766.6094971.5009766.7734375,0,.140625-.0732422.2373047-.2197266.2900391-.2519531.1289062-.5390625.3282471-.8613281.5976562-.8496094.7207031-1.6904297,1.3417969-2.5224609,1.8632812v.2900391h4.5l2.25-.0351562c.09375,0,.1523438.0118408.1757812.0351562.0175781.0234375.0263672.0791016.0263672.1669922v1.3886719c0,.0878906-.0102539.1420898-.0307617.1625977-.0205078.0206299-.0776367.0307617-.1713867.0307617l-2.25-.0351562h-4.5v1.1689453l.0351562,1.5644531c0,.7148438-.1904297,1.2070312-.5712891,1.4765625-.2578125.1582031-.5888672.2636719-.9931641.3164062-.3867188.0527344-.9755859.0791016-1.7666016.0791016-.2929688,0-.4658203-.0234375-.5185547-.0703125-.0527344-.0469971-.1142578-.1964111-.1845703-.4482422-.1347656-.5040283-.3134766-.9433594-.5361328-1.3183594.7148438.0703125,1.3564453.1054688,1.9248047.1054688.2753906,0,.4628906-.046875.5625-.140625.09375-.0936279.140625-.2548828.140625-.4833984v-2.25h-4.7373047Zm.0439453-11.1181641l1.0810547-.3955078c.0820312-.0351562.1464844-.0527344.1933594-.0527344.0644531,0,.1318359.0469971.2021484.140625.4628906.5976562.8642578,1.2216797,1.2041016,1.8720703.0351562.0761719.0527344.1260986.0527344.1494141,0,.0410156-.0732422.0878906-.2197266.140625l-1.1865234.4306641h3.7441406c-.2636719-.7791748-.6064453-1.5292969-1.0283203-2.25-.0351562-.0584717-.0527344-.102417-.0527344-.1318359,0-.0408936.0732422-.0878906.2197266-.140625l1.1865234-.3603516c.0761719-.0233154.1318359-.0351562.1669922-.0351562.0703125,0,.1347656.0469971.1933594.140625.3867188.6386719.7177734,1.3359375.9931641,2.0917969.0175781.0585938.0263672.0997314.0263672.1230469,0,.0469971-.0761719.0966797-.2285156.1494141l-1.1689453.4130859h2.7773438c.2636719-.4511719.5566406-1.0576172.8789062-1.8193359.1054688-.2694092.1962891-.5858154.2724609-.9492188.6328125.1230469,1.2246094.3018799,1.7753906.5361328.1699219.0761719.2548828.1669922.2548828.2724609,0,.0997314-.0585938.1904297-.1757812.2724609-.1230469.0761719-.2373047.2139893-.3427734.4130859-.2519531.4688721-.4980469.8935547-.7382812,1.2744141h.4658203l2.3730469-.0351562c.1054688,0,.1699219.0118408.1933594.0351562.0175781.0234375.0263672.0761719.0263672.1582031l-.0351562.9755859v.8261719l.0351562,2.0126953c0,.1054688-.0146484.1700439-.0439453.1933594-.0234375.0175781-.0820312.0263672-.1757812.0263672h-1.4150391c-.0996094,0-.1582031-.0145264-.1757812-.0439453-.0175781-.0233154-.0263672-.0820312-.0263672-.1757812v-2.3730469h-11.5224609v2.3730469c0,.0997314-.0117188.1582031-.0351562.1757812s-.0761719.0263672-.1582031.0263672h-1.4238281c-.1054688,0-.1699219-.0117188-.1933594-.0351562-.0175781-.0233154-.0263672-.0791016-.0263672-.1669922l.0351562-2.0302734v-.6679688l-.0351562-1.1162109c0-.0936279.0146484-.1494141.0439453-.1669922.0234375-.0175781.0820312-.0263672.1757812-.0263672l2.3730469.0351562h.4833984c-.2871094-.6972656-.6708984-1.368042-1.1513672-2.0126953-.0410156-.0644531-.0615234-.1112061-.0615234-.140625,0-.046875.0644531-.0908203.1933594-.1318359Z"/>
        <path class="cls-1" d="m79.39593,3.707107c.8613281.4628906,1.6171875.9083252,2.2675781,1.3359375,1.0957031-.6385498,2.0625-1.3300781,2.9003906-2.0742188h-6.4248047l-2.4873047.0351562c-.1171875,0-.1757812-.0644531-.1757812-.1933594v-1.3447266c0-.1347656.0585938-.2021484.1757812-.2021484l2.4873047.0351562h7.5410156c.2226562,0,.3779297-.0175781.4658203-.0527344.1230469-.0584717.2080078-.0878906.2548828-.0878906.1816406,0,.4628906.1933594.84375.5800781.4335938.4101562.6503906.7001953.6503906.8701172,0,.140625-.1083984.2548828-.3251953.3427734-.2460938.1173096-.46875.2755127-.6679688.4746094-1.0253906.9199219-2.2675781,1.8193359-3.7265625,2.6982422l.6328125.5185547c.0644531.0585938.0966797.1025391.0966797.1318359,0,.0351562-.0498047.09375-.1494141.1757812l-.2900391.2548828h4.0693359c.1757812,0,.3134766-.0321045.4130859-.0966797.0996094-.0584717.1904297-.0878906.2724609-.0878906.1875,0,.4863281.1757812.8964844.5273438.3984375.3164062.5976562.5683594.5976562.7558594,0,.1113281-.0849609.2255859-.2548828.3427734-.1582031.09375-.3808594.3164062-.6679688.6679688-.8085938,1.0195312-1.6289062,1.8720703-2.4609375,2.5576172-.1992188.1816406-.3369141.2724609-.4130859.2724609-.0644531,0-.2109375-.0966797-.4394531-.2900391-.3925781-.3339844-.8056641-.5976562-1.2392578-.7910156,1.0898438-.7615967,1.8925781-1.4707031,2.4082031-2.1269531h-3.9199219v2.9882812l.0175781,2.8037109c0,.8085938-.1904297,1.3504639-.5712891,1.6259766-.28125.1933594-.6533203.3193359-1.1162109.3779297-.4101562.0584717-1.0400391.0878906-1.8896484.0878906-.2929688,0-.46875-.0294189-.5273438-.0878906-.046875-.0527344-.1054688-.2139893-.1757812-.4833984-.1640625-.5800781-.3691406-1.0604248-.6152344-1.4414062.9199219.0703125,1.6582031.1054688,2.2148438.1054688.28125,0,.46875-.0527344.5625-.1582031.0820312-.0936279.1230469-.2578125.1230469-.4921875v-5.3261719h-4.3945312l-2.2675781.0351562c-.09375,0-.1494141-.0117188-.1669922-.0351562-.0175781-.0233154-.0263672-.0760498-.0263672-.1582031v-1.4150391c0-.0936279.0117188-.1494141.0351562-.1669922s.0761719-.0263672.1582031-.0263672l2.2675781.0351562h5.1855469c-.8554688-.6972656-1.9892578-1.453125-3.4013672-2.2675781-.0820312-.0527344-.1230469-.102417-.1230469-.1494141,0-.0527344.0410156-.1112061.1230469-.1757812l.8964844-.8349609c.0820312-.0760498.1494141-.1142578.2021484-.1142578.0351562,0,.0878906.0146484.1582031.0439453Z"/>
        <path class="cls-1" d="m100.0062815,6.3526148c.5566406,1.0313721,1.0019531,2.1181641,1.3359375,3.2607422.0117188.0585938.0175781.1025391.0175781.1318359,0,.1054688-.0791016.1816406-.2373047.2285156l-.9492188.3076172c-.0644531.0175781-.1171875.0263672-.1582031.0263672-.0761719,0-.1259766-.0496826-.1494141-.1494141l-.2197266-.8173828c-.2753906.0410156-.6884766.0849609-1.2392578.1318359v4.9482422l.0351562,2.3554688c0,.0936279-.0117188.1523438-.0351562.1757812-.0234375.0175781-.0761719.0263672-.1582031.0263672h-1.3710938c-.0996094,0-.1582031-.0118408-.1757812-.0351562-.0175781-.0234375-.0263672-.0791016-.0263672-.1669922l.0351562-2.3554688v-4.8076172l-1.6962891.1054688c-.28125.0175781-.5009766.0673828-.6591797.1494141-.0996094.0585938-.1904297.0878906-.2724609.0878906-.1054688,0-.1787109-.102417-.2197266-.3076172-.0878906-.4335938-.1699219-.9373779-.2460938-1.5117188.4394531.0294189.8085938.0439453,1.1074219.0439453.1171875,0,.2460938-.0029297.3867188-.0087891l1.0019531-1.3623047c-.7558594-.9433594-1.5644531-1.8193359-2.4257812-2.6279297-.0703125-.0760498-.1054688-.1318359-.1054688-.1669922,0-.0292969.0410156-.1054688.1230469-.2285156l.6679688-.8876953c.0703125-.1054688.1289062-.1582031.1757812-.1582031.0351562,0,.0908203.0351562.1669922.1054688l.4482422.4658203c.375-.6209717.6972656-1.2246094.9667969-1.8105469.1816406-.3691406.3222656-.7412109.421875-1.1162109.65625.2403564,1.1777344.460083,1.5644531.6591797.1582031.0878906.2373047.1845703.2373047.2900391,0,.0703125-.0527344.1494141-.1582031.2373047-.1230469.0878906-.2373047.2315674-.3427734.4306641-.5800781.9902344-1.1103516,1.8164062-1.5908203,2.4785156.4863281.5567627.75.8583984.7910156.9052734.3515625-.5506592.7558594-1.2158203,1.2128906-1.9951172.2109375-.3924561.3955078-.8085938.5537109-1.2480469.6855469.3222656,1.1894531.5800781,1.5117188.7734375.1464844.0821533.2197266.1728516.2197266.2724609,0,.1113281-.0673828.2021484-.2021484.2724609-.140625.0821533-.3369141.3282471-.5888672.7382812-.8671875,1.3710938-1.78125,2.671875-2.7421875,3.9023438,1.0078125-.0527344,1.7226562-.0936279,2.1445312-.1230469-.1875-.4627686-.3574219-.8406982-.5097656-1.1337891-.0292969-.0644531-.0439453-.1112061-.0439453-.140625,0-.0527344.0761719-.1083984.2285156-.1669922l.8261719-.2900391c.0820312-.0233154.140625-.0351562.1757812-.0351562.0585938,0,.1142578.0469971.1669922.140625Zm-6.3720703,8.7714844c.421875-1.1601562.6855469-2.3115234.7910156-3.4541016.0292969-.2753906.0439453-.5126953.0439453-.7119141,0-.0820312-.0029297-.1815186-.0087891-.2988281.796875.1054688,1.2597656.1700439,1.3886719.1933594.2050781.0351562.3076172.1085205.3076172.2197266,0,.0351562-.0351562.1260986-.1054688.2724609-.0292969.0351562-.0673828.2255859-.1142578.5712891-.1230469,1.1895752-.3515625,2.3409424-.6855469,3.4541016-.0703125.2636719-.1523438.3955078-.2460938.3955078-.0761719,0-.2138672-.0703125-.4130859-.2109375-.2460938-.1757812-.5654297-.3193359-.9580078-.4306641Zm6.4951172-4.5175781c.0703125-.0233154.1230469-.0351562.1582031-.0351562.0644531,0,.1201172.0645752.1669922.1933594.4335938,1.3126221.7382812,2.4464111.9140625,3.4013672.0117188.0585938.0175781.0997314.0175781.1230469,0,.0878906-.0761719.1552734-.2285156.2021484l-.9492188.3251953c-.0878906.0294189-.1523438.0439453-.1933594.0439453-.0644531,0-.1083984-.0615234-.1318359-.1845703-.2167969-1.3065186-.4892578-2.4609375-.8173828-3.4628906-.0234375-.0703125-.0351562-.1199951-.0351562-.1494141,0-.0584717.0673828-.1083984.2021484-.1494141l.8964844-.3076172Zm-.0175781-4.359375c1.2128906-1.3007812,2.0712891-2.7509766,2.5751953-4.3505859.1699219-.5390625.2841797-1.0488281.3427734-1.5292969.5976562.1113281,1.1806641.2373047,1.7490234.3779297.2519531.0761719.3779297.1728516.3779297.2900391,0,.1173096-.0585938.2373047-.1757812.3603516-.1757812.1464844-.3457031.4512939-.5097656.9140625-.1875.5332031-.3251953.8995361-.4130859,1.0986328h3.4013672l1.8105469-.0351562c.1464844,0,.2197266.0703125.2197266.2109375-.0234375.3398438-.0351562.8380127-.0351562,1.4941406-.0175781,3.9317627-.1904297,6.9376221-.5185547,9.0175781-.1582031.9962158-.46875,1.7050781-.9316406,2.1269531-.4277344.3924561-1.0283203.5946045-1.8017578.6064453l-.6416016.0087891c-.2753906,0-.5126953-.0087891-.7119141-.0263672-.28125-.0175781-.4482422-.0557861-.5009766-.1142578-.046875-.0527344-.1025391-.2167969-.1669922-.4921875-.1171875-.5391846-.2841797-.9960938-.5009766-1.3710938.8554688.1113281,1.5292969.1669922,2.0214844.1669922h.2636719c.5742188,0,.9580078-.5185547,1.1513672-1.5556641.2988281-1.7050781.4482422-4.4941406.4482422-8.3671875h-4.2978516c-.4277344.7677002-.8964844,1.4384766-1.40625,2.0126953-.1992188.2167969-.3310547.3251953-.3955078.3251953-.0703125,0-.1962891-.1083984-.3779297-.3251953-.3046875-.3748779-.6298828-.6561279-.9755859-.84375Zm3.4980469,1.3183594c.7734375.984375,1.4560547,2.1300049,2.0478516,3.4365234.0292969.0585938.0439453.1054688.0439453.140625,0,.0645752-.0673828.1318359-.2021484.2021484l-1.1337891.6855469c-.0761719.0469971-.1376953.0703125-.1845703.0703125-.0644531,0-.1171875-.0615234-.1582031-.1845703-.4746094-1.1542969-1.1044922-2.3115234-1.8896484-3.4716797-.0585938-.0820312-.0878906-.140625-.0878906-.1757812,0-.0527344.0644531-.1142578.1933594-.1845703l1.0107422-.5712891c.0761719-.046875.1376953-.0703125.1845703-.0703125s.1054688.0410156.1757812.1230469Z"/>
      </g>
      <g>
        <path class="cls-2" d="m13.7618613,2.1112844c0,.331536.0002476.6630715-.0000681.9946069-.0003225.3392453-.218042.5896077-.5321085.6126396-.3319664.0243455-.5968062-.1922167-.6478237-.530911-.0068974-.0457976-.0119041-.0923947-.011962-.1386287-.0007733-.6258933-.0018226-1.2517928.0000068-1.8776816.0009834-.3365865.1857136-.5773127.4952731-.654702.3279215-.0819796.6869053.1795112.6941956.5164892.0077741.3592408.0017488.7187794.0017488,1.0781876h.0007381Z"/>
        <path class="cls-2" d="m18.0310198,2.1112844c0,.331536.0002476.6630715-.0000681.9946069-.0003225.3392453-.218042.5896077-.5321085.6126396-.3319664.0243455-.5968062-.1922167-.6478237-.530911-.0068974-.0457976-.0119041-.0923947-.011962-.1386287-.0007733-.6258933-.0018226-1.2517928.0000068-1.8776816.0009834-.3365865.1857136-.5773127.4952731-.654702.3279215-.0819796.6869053.1795112.6941956.5164892.0077741.3592408.0017488.7187794.0017488,1.0781876h.0007381Z"/>
        <path class="cls-2" d="m8.3465807,2.1038442c0-.3345741-.0018339-.6691618.0005394-1.0037195.0021791-.3073406.2336742-.5720939.5171804-.5972866.3271845-.0290746.5884836.1673764.651219.4910463.0064159.0331034.0066521.0677564.0066703.1016923.0003725.6786035.0005666,1.3572069.0001783,2.0358104-.0001851.3249299-.2504113.5824483-.570042.5881363-.3251178.0057845-.5954957-.2417203-.6022353-.5658251-.0072744-.3498116-.0016466-.6998905-.0016466-1.049853-.0006212-.0000006-.0012423-.0000006-.0018635-.0000011Z"/>
        <path class="cls-2" d="m4.1124962,2.1038442c0-.3345741-.0018339-.6691618.0005394-1.0037195.0021791-.3073406.2336742-.5720939.5171804-.5972866.3271845-.0290746.5884836.1673764.651219.4910463.0064159.0331034.0066521.0677564.0066703.1016923.0003725.6786035.0005666,1.3572069.0001783,2.0358104-.0001851.3249299-.2504113.5824483-.570042.5881363-.3251178.0057845-.5954957-.2417203-.6022353-.5658251-.0072744-.3498116-.0016466-.6998905-.0016466-1.049853-.0006212-.0000006-.0012423-.0000006-.0018635-.0000011Z"/>
        <path class="cls-2" d="m8.9322997,14.2199293c-.1238208,0-.2476507.0009306-.3714602-.0002043-.2227217-.0020428-.3259774-.1007469-.3288425-.3221068-.0032841-.2536417-.0025244-.5073696-.0004633-.7610339.001575-.1937948.1064024-.3130448.2992462-.3188974.2721358-.0082574.5448836-.0072349.8170569.0006412.1643605.0047552.2758059.1124532.2816552.2762372.0101474.284187.0124083.5690958.0043912.8533203-.0048012.1701609-.1197612.2670106-.2929745.2712187-.1361281.0033059-.2724004.0006628-.4086091.0008251Z"/>
        <path class="cls-2" d="m17.4277969,14.218993c-.1331359,0-.2663535.0029938-.3993849-.0007241-.1855081-.005183-.2895621-.1038145-.2926781-.2884394-.0046445-.275201-.0032727-.5506222.0019464-.8258278.0030592-.1613235.0909655-.2661742.2537964-.278541.2093345-.0158997.4204337-.0100278.6307811-.0106021.092578-.0002531.1862258-.0006889.2775047.0122511.1212874.0171946.223336.1156139.2272855.2354189.0098703.29966.0145375.5999306.0065409.8995611-.0041653.1560509-.1244806.2522821-.2878384.2566945-.1392225.0037587-.2786289.000774-.4179536.000774v-.0005652Z"/>
        <path class="cls-2" d="m16.7343878,6.3310602c0-.1330763-.0017601-.266181.000427-.3992221.0030297-.1841403.0996867-.2927889.2838548-.2980536.2753721-.007871.5511621-.0075385.8266433-.0028537.1794101.0030506.2884107.1217876.2915789.3044186.002253.129944-.0010243.2599777-.0011242.3899705-.0001022.1361847.0025686.272399.0005314.4085486-.0026095.1745177-.1121847.2955937-.2874477.2998529-.275388.0066924-.5512098.007455-.8265524-.0000647-.1898687-.0051864-.2857353-.1137742-.2884629-.303421-.0019168-.133032-.0003725-.2661163-.0003725-.3991767.0003089,0,.0006155.0000011.0009243.0000011Z"/>
        <path class="cls-2" d="m5.4018844,13.5270893c0,.1300064.0015682.2600356-.0003736.3900114-.0027889.1866893-.1049193.2973562-.2918355.3010673-.2631466.0052239-.526668.0063746-.7896943-.0016751-.2219381-.0067923-.3178752-.1135257-.3197341-.3346098-.0020565-.2444786-.0030717-.4889845-.0019486-.7334654.0009936-.2160759.1066556-.3284951.3234928-.3332208.2538577-.0055326.5079823-.0050638.7618764-.0005981.1993313.0035057.3084454.1144892.3146138.313223.0041255.1329696.0007847.2661696.0007847.3992664.0009391.0000011.0018794.0000011.0028185.0000011Z"/>
        <path class="cls-2" d="m13.8749,13.5157881c0,.1361859.0031705.2724648-.0008108.4085338-.0048375.165299-.0923804.2683361-.2578481.2859438-.1317709.0140203-.2657834.0076866-.3988159.0089803-.1393701.001355-.2788277.0040152-.4181205.0007468-.2133555-.005006-.318108-.1113966-.3209253-.3237808-.0025039-.1887741-.0016784-.3775935-.0020667-.5663937-.0001397-.0680998-.0006995-.1362301.000955-.204297.0044616-.1835196.1070497-.3023973.2899971-.307889.2722823-.0081712.5452459-.0082563.8174668.0012382.184661.0064393.2845339.1206868.2900482.3069516.003845.1298816.0007404.2599686.0007404.3899637-.0002067.0000011-.0004133.0000023-.00062.0000023Z"/>
        <path class="cls-2" d="m5.4004115,6.3321633c0,.130129.0005962.2602626-.0001397.390387-.0010731.1895083-.1026062.3105912-.2909407.3148992-.2848689.0065154-.5702635.0011485-.8551391-.0081814-.1453057-.0047586-.2498776-.1124453-.2528244-.2597087-.0057641-.2879877-.0065988-.5763443.0015535-.8642367.0047058-.1662081.1128638-.2669805.2834176-.2710224.2819198-.0066822.5641394-.0074448.8461046-.0028469.1635622.0026675.2652406.1143173.2692673.2825182.0033363.1393227.0006836.2787884.0006836.4181905-.0006609,0-.0013218.0000011-.0019827.0000011Z"/>
        <path class="cls-2" d="m5.3877443,9.9437448c0,.1516611.0025323.3033767-.0007926.4549653-.0027208.1240869-.0790501.2140343-.2048763.2170417-.3062742.0073177-.6129743.0084276-.9192088.0005788-.1436966-.0036838-.247025-.1127608-.2495664-.262908-.0049181-.2906774-.0022904-.5818712.0101043-.8723001.0068645-.160831.1166929-.2550852.2850562-.2580132.2164965-.0037633.4331838.0043761.6497996.0057107.0521871.0003223.1043788-.0078364.1566307-.0088509.1607426-.0031277.2665919.0908235.2718269.2502302.0051782.1576896.0011333.3156834.0010266.4735455Z"/>
        <path class="cls-2" d="m13.2260214,9.9731553c.2322604-.2399198.4575337-.4737964.6841197-.7063916.3197182-.3282.6404834-.6553843.9604741-.9833222.0148623-.0152313.0237833-.0372298.0403103-.0496386.0262406-.0197027.0547478-.042002.0855216-.0489634.0787332-.017812.2260432.0841016.2759717.1874803.0412755.0854657-.0043946.1490929-.0600055.2066031-.236956.2450438-.4764375.4876624-.7120557.7339772-.3399517.3553839-.6773143.7132429-1.0159056,1.0699251-.0320002.0337094-.0637915.0677298-.0975427.0996404-.1223889.1157274-.2227183.1185759-.3359772-.004005-.1639551-.1774502-.3220597-.3603819-.4799111-.5433431-.0580705-.0673087-.1106392-.1397744-.1607619-.2132626-.0152858-.0224139-.0272978-.0616014-.0181168-.0836828.0453897-.10917.1286583-.1821066.2447414-.2075314.0955385-.0209272.1504873.0395518.2072701.1086003.121318.1475245.2519466.2874021.3818676.4339143Z"/>
        <path class="cls-2" d="m15.2856322,2.5099703c-.3038657,0-.6077314.0001691-.9115971-.0000823-.1236085-.0001021-.2194887-.0898373-.2196568-.2114734-.0001431-.1021513.0050283-.2044553.0118167-.3064273.0063296-.0950657.0588086-.1550374.153274-.171584.0515455-.009028.1045333-.0135925.1568851-.013702.5643188-.0011797,1.1286376-.0010821,1.6929587-.0013074.1984558-.0000794.2693991.0699502.269742.2664397.0001181.0681718.0015716.1364043-.0007018.2045052-.0050601.1518285-.0888829.2330941-.2411235.2334396-.3038657.0006894-.6077314.0002043-.9115971.0001918Z"/>
        <path class="cls-2" d="m11.0473602,2.5100259c-.3006748,0-.6013496.0004108-.9020232-.0001793-.142435-.0002797-.2320742-.0895235-.2307808-.2310428.0008778-.0959486.0021258-.1921832.0102019-.2876995.0088097-.1041799.0601315-.1563085.1622869-.1717639.0518374-.0078426.1047717-.0116184.1572223-.0117353.5641462-.0012557,1.1282969-.0015934,1.6924454-.0017704.1837741-.0000573.259791.0759963.2603713.2588042.000226.0712508.0003452.1425038-.0000432.2137528-.0007983.1469673-.0827202.2309225-.2290604.2313452-.3068704.0008875-.6137465.0002695-.9206203.0002888Z"/>
        <path class="cls-2" d="m6.7943417,2.5100061c-.3004954,0-.600993.000345-.9014872-.0001595-.1320423-.0002213-.2153326-.0803071-.216559-.211386-.0009255-.0990139.0021224-.1981459.006291-.2971037.004197-.0996308.0549273-.1603038.1542108-.1795906.0542573-.0105397.110587-.0142927.165998-.0144278.5576167-.0013596,1.1152379-.0015077,1.6728569-.0016042.2056678-.0000357.2793148.0742588.2794954.2801656.0000545.0619203.0011946.123873-.0003611.1857553-.0036304.1444285-.0964458.2374531-.2403729.2379746-.3066876.0011116-.6133809.0003399-.9200719.0003762Z"/>
        <path class="cls-2" d="m14.6163157,9.739708c-.0001093-.0277876-.0191745-.0554659-.0294264-.0831806-.0284795.0141669-.0604734.024-.0845827.0435569-.0358907.0290622-.0634598.0683581-.0993323.0974203-.164085.1329287-.2323702.296522-.2116479.5125219.018956.1978634.0040061.395399.0040061.6054628h-.6381304c-.0060637-.0002549-.01322-.000437-.0230167-.0004006-.0375114.0001457-.084874.0002549-.1378998.0004006h-.0001093c-.3105978.0008741-.840965.0022215-1.0606069.0066282-.0628407.0012747-.0872413-.0123096-.0862944-.0809226.0037147-.2694264.0015114-.538962.0014568-.8084612-.0000728-.3190652-.0005099-.6381304.000091-.9571956.0000728-.0438847-.014258-.0936692.0653718-.0913748.2166555.0062276.4335477.0049894.6503489.0064461.2559696.0017845.5119575.0038968.7679453.0039697.0265129,0,.0613475-.0044431.0782276-.0210865.118088-.1165766.2324613-.2369044.3480546-.3560303-.0045341-.0124552-.0090501-.0249105-.0135842-.0373293-.0467071-.0086677-.0934325-.0245463-.1401396-.0244734-.1051411.0001093-.2103004.0127466-.3153869.012091-.4861001-.0030228-.9721638-.0094325-1.4582639-.0134021-.2478482-.0020395-.4041578.1517572-.4075629.4011896-.0059181.4330925-.0121457.866185-.0143854,1.2992775-.0012929.2507071-.0043338.5020333.0106889.7520121.0128558.2139605.179654.3536267.3918482.3537723.4649408.0003642.9298997.0001821,1.3948405-.0001457.0248376,0,.2113566-.0024401.2955933-.004953.118525.0061912.2374871.008959.3557754.0027678.1915812-.0100516.3518786-.172261.3545371-.3648072.0057724-.417833.0030774-.8358482.0015842-1.253754Z"/>
        <path class="cls-2" d="m12.4742135,6.3310602c0-.1330763-.0017601-.266181.000427-.3992221.0030297-.1841403.0996867-.2927889.2838548-.2980536.2753721-.007871.5511621-.0075385.8266433-.0028537.1794101.0030506.2884107.1217876.2915789.3044186.002253.129944-.0010243.2599777-.0011242.3899705-.0001022.1361847.0025686.272399.0005314.4085486-.0026095.1745177-.1121847.2955937-.2874477.2998529-.275388.0066924-.5512098.007455-.8265524-.0000647-.1898687-.0051864-.2857353-.1137742-.2884629-.303421-.0019168-.133032-.0003725-.2661163-.0003725-.3991767.0003089,0,.0006155.0000011.0009243.0000011Z"/>
        <path class="cls-2" d="m8.2333524,6.3310602c0-.1330763-.0017601-.266181.000427-.3992221.0030297-.1841403.0996867-.2927889.2838548-.2980536.2753721-.007871.5511621-.0075385.8266433-.0028537.1794101.0030506.2884107.1217876.2915789.3044186.002253.129944-.0010243.2599777-.0011242.3899705-.0001022.1361847.0025686.272399.0005314.4085486-.0026095.1745177-.1121847.2955937-.2874477.2998529-.275388.0066924-.5512098.007455-.8265524-.0000647-.1898687-.0051864-.2857353-.1137742-.2884629-.303421-.0019168-.133032-.0003725-.2661163-.0003725-.3991767.0003089,0,.0006155.0000011.0009243.0000011Z"/>
        <path class="cls-2" d="m8.2333524,9.9355373c0-.1330763-.0017601-.266181.000427-.3992221.0030297-.1841403.0996867-.2927889.2838548-.2980536.2753721-.007871.5511621-.0075385.8266433-.0028537.1794101.0030506.2884107.1217876.2915789.3044186.002253.129944-.0010243.2599777-.0011242.3899705-.0001022.1361847.0025686.272399.0005314.4085486-.0026095.1745177-.1121847.2955937-.2874477.2998529-.275388.0066924-.5512098.007455-.8265524-.0000647-.1898687-.0051864-.2857353-.1137742-.2884629-.303421-.0019168-.133032-.0003725-.2661163-.0003725-.3991767.0003089,0,.0006155.0000011.0009243.0000011Z"/>
        <path class="cls-2" d="m16.7343878,9.9355373c0-.1330763-.0017601-.266181.000427-.3992221.0030297-.1841403.0996867-.2927889.2838548-.2980536.2753721-.007871.5511621-.0075385.8266433-.0028537.1794101.0030506.2884107.1217876.2915789.3044186.002253.129944-.0010243.2599777-.0011242.3899705-.0001022.1361847.0025686.272399.0005314.4085486-.0026095.1745177-.1121847.2955937-.2874477.2998529-.275388.0066924-.5512098.007455-.8265524-.0000647-.1898687-.0051864-.2857353-.1137742-.2884629-.303421-.0019168-.133032-.0003725-.2661163-.0003725-.3991767.0003089,0,.0006155.0000011.0009243.0000011Z"/>
        <path class="cls-2" d="m21.8023118,14.9042234c-.0006555-3.9012924-.0012018-7.8025848-.0021851-11.7039137-.0000182-.0680668.0012747-.1371168-.0088862-.2040546-.1058695-.6974203-.673311-1.1880909-1.3764672-1.1897662-.5674051-.0013111-1.1348102.0001457-1.7022153.0013475-.0524613.0001093-.1056328.0033869-.1572018.0124552-.1042306.0183551-.1559271.0799757-.1582579.1858452-.0021123.096-.0011108.1921092-.0005645.2881456.0008376.1468407.0698331.2156358.2159089.2156722.6232169.0001093,1.2464338-.0002185,1.8696508.0005099.042956.0000728.0872959.0018209.1286312.0121639.2995811.0750228.5044916.3552655.5044005.6868588-.0004917,2.1720908-.0022944,4.344218-.0012747,6.5163088.0009469,1.9520848.0046616,3.9041331.0078483,5.8561814.0007466.4600424-.2740516.7406858-.7304703.74105-.6694506.0005827-1.3389012.0005099-2.00837.0005099-4.9671072-.0001457-9.9342325-.0003642-14.9013579-.0005827-.5270895,0-1.0541789.0006555-1.5812684-.0007284-.2677875-.000692-.4825311-.1037936-.6176631-.3421912-.0834537-.1472048-.0955265-.3113808-.0954901-.47705.0006555-3.1482606.0012018-6.2965213.0013111-9.4447455.0000364-.9451046.0009105-1.8902092-.0030774-2.8352774-.0018392-.4311623.3304461-.7297237.7183793-.7171592.5234476.0168983,1.0478603.0045159,1.5718541.0039697.1528315-.0001457.2298938-.0740759.234956-.2247769.0027132-.0804856.0028225-.1610804.0024765-.2416388-.0007466-.1655235-.064352-.2353748-.2277268-.2358846-.5208801-.0017117-1.0417965-.0032049-1.5626584.0011654-.8980515.0075387-1.4459725.715921-1.4218268,1.4614505.0225432.6964734.0059363,1.3942578.0058634,2.0914231-.0003096,3.4177963-.0010744,6.8355561-.0001821,10.253316.0000364.0985493.0075205.1989196.0271138.2952837.1197997.5888922.5957207,1.0596418,1.2714354,1.0994111.0164977.0009469.0330319.0009833.0495296.0017845v.0008741h.0238543c.2941183.013475.5895477.0062276.8845401,0h16.7657826c.1011533.0151502.2151077.0008012.3204673-.0000364.2662215-.0021123.5354294.0125645.7979726-.0215235.6231441-.0808862,1.1180029-.6228345,1.1532381-1.2500393.0156237-.2779484.0019666-.5575356.0019302-.836358Z"/>
      </g>
      <polyline class="cls-1" points="201.9461471 3.054901 207.0577969 8.1665508 201.9461471 13.2782005"/>
    </g>
  </g>
</svg>