<?xml version="1.0" encoding="UTF-8"?>
<svg id="_レイヤー_2" data-name="レイヤー 2" xmlns="http://www.w3.org/2000/svg" viewBox="0 0 114.0504938 18.8152174">
  <defs>
    <style>
      .cls-1 {
        fill: none;
        opacity: .2;
      }

      .cls-1, .cls-2 {
        stroke-width: 0px;
      }

      .cls-2 {
        fill: #fff;
      }
    </style>
  </defs>
  <g id="_レイヤー_1-2" data-name="レイヤー 1">
    <g>
      <rect class="cls-1" y="0" width="114.0504938" height="18.8152174"/>
      <path class="cls-2" d="m43.1544248,13.3295766c.4128387.2689707.8788461.4912885,1.3980221.6661716.2064194.0750616.331522.1313578.3753079.1688886.0500411.0437859.0750616.1094648.0750616.1970367,0,.0437859-.0093827.1407405-.0281481.2908637-.0562962.6943197-.1626334,1.2072405-.3190117,1.5387625-.1251026.2752258-.3190117.5066657-.5817273.6943197-.4879003.3815631-1.5575279.5723446-3.2088829.5723446-1.4574458,0-2.4207362-.0906994-2.8898711-.2720983-.5254311-.2251848-.7881467-.6786819-.7881467-1.3604913v-3.9782641h-1.7357992c-.5567068,3.2404191-2.5239459,5.2136528-5.9017173,5.9204827-.187654.0375308-.3221393.0562962-.403456.0562962-.1313578,0-.2783534-.1595059-.4409868-.4785176-.2627156-.5066657-.5754722-.922632-.9382698-1.2478989,3.3277304-.4128387,5.1855047-1.8296262,5.5733229-4.2503624h-.0375308l-2.5990075.0375308c-.1063372,0-.1720161-.0125103-.1970367-.0375308-.0187654-.0247599-.0281481-.0844443-.0281481-.1782713l.0375308-2.3362919V3.580953l-.0375308-2.3832054c0-.0998215.0125103-.1595059.0375308-.1782713.0312757-.0187654.093827-.0281481.187654-.0281481l2.6365383.0375308h6.192581l2.6177729-.0375308c.1063372,0,.1688886.0127709.187654.0375308.0187654.0250205.0281481.0813167.0281481.1688886l-.0375308,2.3832054v5.7515941l.0375308,2.3362919c0,.1000821-.0109465.1610697-.0328394.1829626-.021893.0221536-.0828805.0328394-.1829626.0328394l-2.6177729-.0375308h-.3471598v3.0399943c0,.3693134.1157199.5785997.3471598.6286408.2064194.0625513.7037024.093827,1.491849.093827.8757185,0,1.4261702-.0844443,1.6513549-.2533329.3002463-.2251848.4597522-.900739.4785176-2.0266629Zm-2.8241922-10.5555357h-7.8345532v1.4074048h7.8345532v-1.4074048Zm-7.8345532,4.3817202h7.8345532v-1.3604913h-7.8345532v1.3604913Zm7.8345532,3.0399943v-1.4261702h-7.8345532v1.4261702h7.8345532Z"/>
      <path class="cls-2" d="m52.173457,13.2216756l-2.4019708.0375308c-.1000821,0-.1595059-.0125103-.1782713-.0375308-.0187654-.0247599-.0281481-.0810561-.0281481-.1688886v-1.4824663c0-.1063372.0125103-.1688886.0375308-.187654s.0813167-.0281481.1688886-.0281481l2.4019708.0375308h5.0572744c-.0250205-.7190796-.0625513-1.2632761-.1125924-1.6325895l1.1165411.1125924c.5817273-.3753079,1.1634546-.8350602,1.7451819-1.3792567h-4.1471527l-2.4864151.0375308c-.1376129,0-.2064194-.0622907-.2064194-.187654v-1.3511086c0-.0998215.0125103-.1595059.0375308-.1782713s.0813167-.0281481.1688886-.0281481l2.4864151.0375308h5.2073976c.2502053,0,.403456-.0125103.4597522-.0375308.1313578-.0500411.2126745-.0750616.2439502-.0750616.1251026,0,.403456.2032918.8350602.6098754.3565425.3753079.5348138.6507944.5348138.8256775,0,.1501232-.0781892.2533329-.2345675.309629-.2689707.1376129-.5754722.350548-.9195044.6380235-.9069942.7693813-1.8046057,1.4324253-2.6928344,1.9891321v.309629h4.8039416l2.4019708-.0375308c.1000821,0,.1626334.0127709.187654.0375308.0187654.0250205.0281481.0844443.0281481.1782713v1.4824663c0,.093827-.0109465.151687-.0328394.1735799-.021893.0221536-.0828805.0328394-.1829626.0328394l-2.4019708-.0375308h-4.8039416v1.2478989l.0375308,1.6701203c0,.7631261-.2032918,1.2885572-.6098754,1.5762933-.2752258.1688886-.6286408.281481-1.0602449.3377771-.4128387.0562962-1.0414795.0844443-1.8859224.0844443-.3127566,0-.497283-.0250205-.5535792-.0750616s-.1219751-.2095469-.1970367-.4785176c-.143868-.5379414-.3346496-1.0070763-.5723446-1.4074048.7631261.0750616,1.4480631.1125924,2.054811.1125924.2939912,0,.4941554-.0500411.6004927-.1501232.1000821-.0998215.1501232-.2720983.1501232-.5160484v-2.4019708h-5.0572744Zm.0469135-11.8691135l1.1540719-.4222214c.0875719-.0375308.1563783-.0562962.2064194-.0562962.0688065,0,.1407405.0503017.2158021.1501232.4941554.6380235.922632,1.3041951,1.2854297,1.9985148.0375308.0813167.0562962.134746.0562962.1595059,0,.0437859-.0781892.093827-.2345675.1501232l-1.2666643.4597522h3.9970295c-.281481-.831672-.6474062-1.6325895-1.0977757-2.4019708-.0375308-.0622907-.0562962-.1092042-.0562962-.1407405,0-.0435253.0781892-.093827.2345675-.1501232l1.2666643-.3846906c.0813167-.0247599.1407405-.0375308.1782713-.0375308.0750616,0,.143868.0503017.2064194.1501232.4128387.6818094.7662537,1.4261702,1.0602449,2.2330822.0187654.0625513.0281481.1065979.0281481.1313578,0,.0503017-.0813167.1032097-.2439502.1595059l-1.2478989.4409868h2.9649327c.281481-.4816452.5942376-1.1290514.9382698-1.9422186.1125924-.2874755.2095469-.6252526.2908637-1.0133314.6755543.1313578,1.3073226.3223999,1.8953051.5723446.1813988.0813167.2720983.1782713.2720983.2908637,0,.1065979-.0625513.2032918-.187654.2908637-.1313578.0813167-.2533329.228573-.3659252.4409868-.2689707.5006712-.5316862.9539077-.7881467,1.3604913h.497283l2.5333286-.0375308c.1125924,0,.1813988.0127709.2064194.0375308.0187654.0250205.0281481.0813167.0281481.1688886l-.0375308,1.0414795v.8819737l.0375308,2.1486379c0,.1125924-.0156378.1816595-.0469135.2064194-.0250205.0187654-.0875719.0281481-.187654.0281481h-1.5106144c-.1063372,0-.1688886-.0153772-.187654-.0469135-.0187654-.0247599-.0281481-.0875719-.0281481-.187654v-2.5333286h-12.3007176v2.5333286c0,.1065979-.0125103.1688886-.0375308.187654s-.0813167.0281481-.1688886.0281481h-1.5199971c-.1125924,0-.1813988-.0125103-.2064194-.0375308-.0187654-.0247599-.0281481-.0844443-.0281481-.1782713l.0375308-2.1674033v-.7130851l-.0375308-1.1916027c0-.0998215.0156378-.1595059.0469135-.1782713.0250205-.0187654.0875719-.0281481.187654-.0281481l2.5333286.0375308h.5160484c-.3065015-.7443607-.7162126-1.4603128-1.2291335-2.1486379-.0437859-.0688065-.0656789-.1185869-.0656789-.1501232,0-.0500411.0688065-.0969546.2064194-.1407405Z"/>
      <path class="cls-2" d="m77.403533,3.7686069c.9195044.4941554,1.7264165.9698061,2.4207362,1.4261702,1.1697097-.6815488,2.2018066-1.419915,3.0962905-2.2143168h-6.8587525l-2.6553037.0375308c-.1251026,0-.187654-.0688065-.187654-.2064194v-1.4355529c0-.143868.0625513-.2158021.187654-.2158021l2.6553037.0375308h8.0503552c.237695,0,.403456-.0187654.497283-.0562962.1313578-.0622907.2220572-.093827.2720983-.093827.1939091,0,.4941554.2064194.900739.6192581.4628798.4378593.6943197.7474883.6943197.9288871,0,.1501232-.1157199.2720983-.3471598.3659252-.2627156.1253633-.5004106.2942518-.7130851.5066657-1.0946481.9820558-2.4207362,1.9422186-3.9782641,2.8804884l.6755543.5535792c.0688065.0625513.1032097.1094648.1032097.1407405,0,.0375308-.0531686.1000821-.1595059.187654l-.309629.2720983h4.3441894c.187654,0,.3346496-.0341426.4409868-.1032097.1063372-.0622907.2032918-.093827.2908637-.093827.2001642,0,.519176.187654.9570352.5629619.425349.3377771.6380235.6067478.6380235.8069121,0,.1188475-.0906994.2408226-.2720983.3659252-.1688886.1000821-.4065836.3377771-.7130851.7130851-.8632083,1.088393-1.7389268,1.9985148-2.6271556,2.7303652-.2126745.1939091-.3596701.2908637-.4409868.2908637-.0688065,0-.2251848-.1032097-.4691349-.309629-.4190939-.3565425-.8600807-.6380235-1.3229605-.8444429,1.1634546-.8129066,2.0204077-1.5700382,2.5708594-2.270613h-4.1846835v3.1901175l.0187654,2.9930808c0,.8632083-.2032918,1.441808-.6098754,1.7357992-.3002463.2064194-.6974472.3409047-1.1916027.403456-.4378593.0625513-1.110286.093827-2.0172802.093827-.3127566,0-.5004106-.0312757-.5629619-.093827-.0500411-.0562962-.1125924-.2283123-.187654-.5160484-.1751437-.6192581-.3940733-1.1319183-.6567889-1.5387625.9820558.0750616,1.7702024.1125924,2.36444.1125924.3002463,0,.5004106-.0562962.6004927-.1688886.0875719-.0998215.1313578-.2752258.1313578-.5254311v-5.6859152h-4.6913492l-2.4207362.0375308c-.1000821,0-.1595059-.0125103-.1782713-.0375308-.0187654-.0247599-.0281481-.0810561-.0281481-.1688886v-1.5106144c0-.0998215.0125103-.1595059.0375308-.1782713s.0813167-.0281481.1688886-.0281481l2.4207362.0375308h5.5357921c-.9132493-.7443607-2.1236174-1.5512728-3.6311043-2.4207362-.0875719-.0562962-.1313578-.1092042-.1313578-.1595059,0-.0562962.0437859-.1185869.1313578-.187654l.9570352-.8913563c.0875719-.0810561.1595059-.1219751.2158021-.1219751.0375308,0,.093827.0156378.1688886.0469135Z"/>
      <path class="cls-2" d="m99.4059608,6.9305763c.5942376,1.1011639,1.0696276,2.2612303,1.4261702,3.4809811.0125103.0625513.0187654.1094648.0187654.1407405,0,.1125924-.0844443.1939091-.2533329.2439502l-1.0133314.3283944c-.0688065.0187654-.1251026.0281481-.1688886.0281481-.0813167,0-.1344853-.052908-.1595059-.1595059l-.2345675-.872591c-.2939912.0437859-.734978.0906994-1.3229605.1407405v5.2824592l.0375308,2.5145632c0,.1000821-.0125103.1626334-.0375308.187654-.0250205.0187654-.0813167.0281481-.1688886.0281481h-1.463701c-.1063372,0-.1688886-.0125103-.187654-.0375308s-.0281481-.0844443-.0281481-.1782713l.0375308-2.5145632v-5.132336l-1.8108608.1125924c-.3002463.0187654-.5348138.071934-.7037024.1595059-.1063372.0625513-.2032918.093827-.2908637.093827-.1125924,0-.1907815-.1092042-.2345675-.3283944-.093827-.4628798-.1813988-1.0005605-.2627156-1.6138241.4691349.0315363.8632083.0469135,1.18222.0469135.1251026,0,.2627156-.0031276.4128387-.0093827l1.0696276-1.4543183c-.8069121-1.0070763-1.6701203-1.9422186-2.5896248-2.8054268-.0750616-.0810561-.1125924-.1407405-.1125924-.1782713,0-.0312757.0437859-.1125924.1313578-.2439502l.7130851-.9476525c.0750616-.1125924.1376129-.1688886.187654-.1688886.0375308,0,.0969546.0375308.1782713.1125924l.4785176.497283c.4003285-.6627834.7443607-1.3073226,1.0320968-1.9328359.1939091-.3940733.3440323-.7912742.4503695-1.1916027.7005748.2567211,1.2572816.4912885,1.6701203.7037024.1688886.093827.2533329.1970367.2533329.309629,0,.0750616-.0562962.1595059-.1688886.2533329-.1313578.093827-.2533329.2473384-.3659252.4597522-.6192581,1.0571174-1.1853476,1.939091-1.6982684,2.645921.519176.5944982.8006569.9163769.8444429.9664179.3753079-.5877218.8069121-1.2979399,1.2948124-2.1298725.2251848-.4188332.4222214-.8632083.59111-1.3323432.7318505.3440323,1.2697919.6192581,1.6138241.8256775.1563783.0878325.2345675.1845264.2345675.2908637,0,.1188475-.071934.2158021-.2158021.2908637-.1501232.0878325-.3596701.350548-.6286408.7881467-.9257596,1.463701-1.9015602,2.8523403-2.9274019,4.1659181,1.0758828-.0562962,1.8390089-.0998215,2.2893784-.1313578-.2001642-.4938948-.3815631-.8973509-.5441965-1.2103681-.0312757-.0688065-.0469135-.1185869-.0469135-.1501232,0-.0562962.0813167-.1157199.2439502-.1782713l.8819737-.309629c.0875719-.0247599.1501232-.0375308.187654-.0375308.0625513,0,.1219751.0503017.1782713.1501232Zm-6.8024563,9.363933c.4503695-1.2385162.7318505-2.4676497.8444429-3.6874005.0312757-.2939912.0469135-.5473241.0469135-.7599986,0-.0875719-.0031276-.1936485-.0093827-.3190117.850698.1125924,1.3448534.1816595,1.4824663.2064194.2189296.0375308.3283944.1159806.3283944.2345675,0,.0375308-.0375308.134746-.1125924.2908637-.0312757.0375308-.071934.2408226-.1219751.6098754-.1313578,1.2700525-.3753079,2.499186-.7318505,3.6874005-.0750616.281481-.1626334.4222214-.2627156.4222214-.0813167,0-.2283123-.0750616-.4409868-.2251848-.2627156-.187654-.6036203-.3409047-1.0227141-.4597522Zm6.9338141-4.822707c.0750616-.0247599.1313578-.0375308.1688886-.0375308.0688065,0,.1282302.0690671.1782713.2064194.4628798,1.4014103.7881467,2.6117784.9758006,3.6311043.0125103.0625513.0187654.1065979.0187654.1313578,0,.093827-.0813167.165761-.2439502.2158021l-1.0133314.3471598c-.093827.0315363-.1626334.0469135-.2064194.0469135-.0688065,0-.1157199-.0656789-.1407405-.1970367-.2314399-1.3946339-.5223035-2.6271556-.872591-3.6967832-.0250205-.0750616-.0375308-.1279696-.0375308-.1595059,0-.0622907.071934-.1157199.2158021-.1595059l.9570352-.3283944Zm-.0187654-4.6538184c1.2948124-1.3886394,2.2111893-2.9367846,2.7491306-4.6444357.1813988-.5754722.3033739-1.1196687.3659252-1.6325895.6380235.1188475,1.2604092.2533329,1.867157.403456.2689707.0813167.403456.1845264.403456.309629,0,.1253633-.0625513.2533329-.187654.3846906-.187654.1563783-.3690528.4819058-.5441965.9758006-.2001642.569217-.3471598.9604234-.4409868,1.1728373h3.6311043l1.9328359-.0375308c.1563783,0,.2345675.0750616.2345675.2251848-.0250205.3627977-.0375308.8947445-.0375308,1.5950587-.0187654,4.1974544-.2032918,7.4063372-.5535792,9.6266486-.1688886,1.0636331-.5004106,1.8202435-.994566,2.270613-.4566247.4190939-1.0977757.6348959-1.9234532.6474062l-.684937.0093827c-.2939912,0-.5473241-.0093827-.7599986-.0281481-.3002463-.0187654-.4785176-.0594238-.5348138-.1219751-.0500411-.0562962-.1094648-.2314399-.1782713-.5254311-.1251026-.5754722-.3033739-1.0633725-.5348138-1.463701.9132493.1188475,1.6325895.1782713,2.1580206.1782713h.281481c.613003,0,1.0227141-.5535792,1.2291335-1.6607376.3190117-1.8202435.4785176-4.7976865.4785176-8.9323289h-4.5881395c-.4566247.819683-.9570352,1.535635-1.5012317,2.1486379-.2126745.2314399-.353415.3471598-.4222214.3471598-.0750616,0-.2095469-.1157199-.403456-.3471598-.3252669-.4000678-.6724267-.7003142-1.0414795-.900739Zm3.734314,1.4074048c.8256775,1.0508622,1.5544004,2.2740012,2.1861687,3.6686351.0312757.0625513.0469135.1125924.0469135.1501232,0,.0690671-.071934.1407405-.2158021.2158021l-1.2103681.7318505c-.0813167.0503017-.1469956.0750616-.1970367.0750616-.0688065,0-.1251026-.0656789-.1688886-.1970367-.5066657-1.2322611-1.1790924-2.4676497-2.0172802-3.7061659-.0625513-.0875719-.093827-.1501232-.093827-.187654,0-.0562962.0688065-.1219751.2064194-.1970367l1.0790103-.6098754c.0813167-.0500411.1469956-.0750616.1970367-.0750616s.1125924.0437859.187654.1313578Z"/>
      <g>
        <path class="cls-2" d="m11.825067,3.7417353c0,.2825311.000211.5650617-.0000581.8475923-.0002748.2891008-.1858128.5024567-.4534566.5220842-.2828978.0207469-.5085912-.1638048-.5520677-.4524361-.0058779-.0390282-.0101446-.0787377-.0101939-.1181378-.000659-.5333789-.0015532-1.0667631.0000058-1.6001381.000838-.2868351.158263-.491979.4220659-.5579293.2794508-.0698621.5853725.1529773.5915853.440146.006625.3061407.0014903.6125353.0014903.9188187h.000629Z"/>
        <path class="cls-2" d="m15.4631934,3.7417353c0,.2825311.000211.5650617-.0000581.8475923-.0002748.2891008-.1858128.5024567-.4534566.5220842-.2828978.0207469-.5085912-.1638048-.5520677-.4524361-.0058779-.0390282-.0101446-.0787377-.0101939-.1181378-.000659-.5333789-.0015532-1.0667631.0000058-1.6001381.000838-.2868351.158263-.491979.4220659-.5579293.2794508-.0698621.5853725.1529773.5915853.440146.006625.3061407.0014903.6125353.0014903.9188187h.000629Z"/>
        <path class="cls-2" d="m7.2102289,3.7353947c0-.2851201-.0015629-.5702518.0004597-.8553579.001857-.261912.1991344-.4875317.440735-.5090006.2788228-.024777.5014988.1426362.5549611.4184638.0054676.0282103.0056689.0577412.0056844.0866609.0003174.5782979.0004829,1.1565957.0001519,1.7348936-.0001577.2769014-.2133975.4963556-.4857831.5012028-.2770616.0049295-.5074744-.2059912-.5132178-.4821895-.0061992-.2981053-.0014032-.5964384-.0014032-.8946723-.0005293-.0000005-.0010587-.0000005-.001588-.000001Z"/>
        <path class="cls-2" d="m3.601992,3.7353947c0-.2851201-.0015629-.5702518.0004597-.8553579.001857-.261912.1991344-.4875317.440735-.5090006.2788228-.024777.5014988.1426362.5549611.4184638.0054676.0282103.0056689.0577412.0056844.0866609.0003174.5782979.0004829,1.1565957.0001519,1.7348936-.0001577.2769014-.2133975.4963556-.4857831.5012028-.2770616.0049295-.5074744-.2059912-.5132178-.4821895-.0061992-.2981053-.0014032-.5964384-.0014032-.8946723-.0005293-.0000005-.0010587-.0000005-.001588-.000001Z"/>
        <path class="cls-2" d="m7.7093717,14.0605793c-.1055186,0-.211045.000793-.316554-.0001741-.1898008-.0017408-.2777941-.0858553-.2802357-.2744957-.0027986-.2161504-.0021512-.4323744-.0003948-.6485441.0013422-.1651496.0906749-.2667731.2550141-.2717606.2319109-.0070369.4643434-.0061655.6962862.0005464.1400661.0040523.2350385.0958313.2400232.2354061.0086475.2421808.0105742.4849767.0037422.7271895-.0040915.1450091-.1020591.2275433-.2496694.2311294-.1160067.0028173-.2321364.0005648-.3482118.0007031Z"/>
        <path class="cls-2" d="m14.949134,14.0597814c-.1134568,0-.2269833.0025513-.3403511-.000617-.1580878-.0044169-.2467614-.0884695-.2494168-.2458047-.003958-.2345231-.002789-.4692337.0016587-.7037607.002607-.137478.0775198-.2268305.2162823-.2373693.1783924-.0135495.3582886-.0085456.5375442-.009035.0788939-.0002157.1586994-.000587.2364862.0104402.1033597.014653.1903243.0985248.19369.2006212.0084114.2553667.0123887.5112538.005574.7665953-.0035496.1329847-.1060809.2149918-.2452924.218752-.1186438.0032031-.2374443.0006596-.3561751.0006596v-.0004816Z"/>
        <path class="cls-2" d="m14.358219,7.3377783c0-.1134061-.0015-.2268363.0003639-.3402124.0025819-.1569222.0849518-.2495112.2418977-.2539977.2346689-.0067076.4696939-.0064242.7044556-.0024319.1528912.0025997.2457802.103786.2484801.2594219.0019199.1107368-.0008729.2215499-.000958.3323283-.0000871.116055.002189.2321352.0004529.3481603-.0022238.1487219-.0956025.2519015-.2449596.2555311-.2346824.0057032-.4697345.0063531-.7043782-.0000551-.1618038-.0044198-.2435002-.0969571-.2458247-.2585718-.0016335-.1133683-.0003174-.2267812-.0003174-.3401737.0002632,0,.0005245.000001.0007877.000001Z"/>
        <path class="cls-2" d="m4.7007935,13.4701492c0,.11079.0013364.2215993-.0003184.3323631-.0023767.1590944-.089411.2534034-.2486988.256566-.2242505.0044517-.4488203.0054324-.6729681-.0014275-.1891331-.0057883-.2708895-.0967452-.2724736-.2851506-.0017525-.2083418-.0026177-.4167068-.0016606-.6250505.0008468-.1841374.0908907-.2799396.2756768-.2839668.2163346-.0047148.4328965-.0043153.649262-.0005097.1698678.0029875.2628536.0975663.2681102.2669249.0035157.1133151.0006687.2268266.0006687.3402501.0008003.000001.0016016.000001.0024019.000001Z"/>
        <path class="cls-2" d="m11.9213972,13.4605185c0,.116056.0027019.2321913-.0006909.3481477-.0041225.1408659-.0787255.2286729-.2197351.2436779-.1122936.011948-.2264975.0065504-.3398662.0076529-.1187696.0011548-.2376136.0034217-.3563174.0006364-.1818191-.004266-.2710878-.0949309-.2734887-.2759222-.0021338-.160871-.0014303-.3217807-.0017612-.482674-.000119-.0580338-.0005961-.1160937.0008138-.1740995.0038022-.1563932.0912265-.2576994.2471321-.2623794.2320357-.0069634.4646521-.0070359.6966355.0010551.1573659.0054875.2424764.1028479.2471756.2615806.0032767.1106836.0006309.2215422.0006309.3323225-.0001761.000001-.0003522.0000019-.0005284.0000019Z"/>
        <path class="cls-2" d="m4.6995383,7.3387183c0,.1108944.0005081.2217927-.000119.3326832-.0009145.1614968-.0874398.2646821-.2479362.2683534-.2427619.0055523-.4859718.0009787-.7287395-.0069721-.1238278-.0040552-.2129427-.0958245-.2154539-.2213207-.0049121-.2454198-.0056234-.4911538.0013238-.7364923.0040102-.1416405.0961812-.2275176.2415251-.2309621.2402487-.0056945.4807529-.0063444.7210403-.0024261.1393858.0022732.2260349.0974198.2294664.2407587.0028431.1187292.0005826.2375802.0005826.356377-.0005632,0-.0011264.000001-.0016896.000001Z"/>
        <path class="cls-2" d="m4.6887434,10.4164654c0,.1292438.002158.2585341-.0006755.387716-.0023186.1057454-.0673655.1823975-.1745931.1849604-.2610033.0062361-.5223695.0071819-.7833389.0004932-.1224566-.0031393-.2105118-.0960934-.2126776-.2240471-.0041912-.2477119-.0019519-.4958638.0086107-.7433638.0058498-.1370583.0994443-.2173806.2429215-.2198758.1844958-.003207.3691541.0037293.5537515.0048666.0444733.0002747.0889504-.0066781.1334788-.0075427.1369829-.0026654.2271865.0773987.2316477.2132432.0044128.1343812.0009658.2690217.0008748.4035499Z"/>
        <path class="cls-2" d="m11.3684305,10.4415287c.1979296-.2044568.3899048-.4037637.5829987-.6019786.2724601-.2796882.5458124-.5585108.8185047-.8379756.0126654-.0129799.0202678-.0317268.0343519-.0423014.022362-.0167904.0466555-.0357936.0728805-.041726.0670955-.0151792.1926313.0716704.2351798.1597685.0351745.0728329-.0037451.1270552-.051136.1760647-.2019311.2088234-.4060144.4155801-.6068055.6254867-.2897028.3028539-.5771992.6078172-.8657427.9117775-.0272702.0287268-.0543623.0577185-.0831248.0849124-.1042984.0986215-.1897979.101049-.2863158-.003413-.1397206-.151221-.2744555-.3071132-.4089746-.4630306-.049487-.0573597-.0942854-.1191141-.1369994-.1817398-.0130264-.0191009-.0232629-.052496-.0154389-.0713135.0386805-.0930334.1096411-.1551891.2085657-.1768558.0814167-.0178339.1282435.0337056.1766331.0925479.1033858.1257186.2147059.2449207.3254231.3697767Z"/>
        <path class="cls-2" d="m13.1236066,4.0814906c-.2589508,0-.5179015.0001441-.7768523-.0000701-.1053377-.000087-.1870457-.0765583-.1871889-.1802151-.0001219-.0870522.004285-.1742344.01007-.2611337.005394-.0810139.050116-.1321211.1306183-.1462219.0439265-.0076935.089082-.0115834.1336956-.0116767.4809058-.0010053.9618116-.0009222,1.4427194-.0011141.1691217-.0000677.2295787.0596107.2298709.2270568.0001006.0580952.0013393.1162422-.000598.1742769-.0043121.1293865-.075745.19864-.2054826.1989345-.2589508.0005875-.5179015.0001741-.7768523.0001634Z"/>
        <path class="cls-2" d="m9.5118012,4.081538c-.2562315,0-.512463.0003501-.7686935-.0001528-.1213814-.0002384-.1977709-.0762909-.1966687-.1968919.000748-.0817663.0018116-.1637763.0086939-.2451741.0075075-.0887809.0512434-.1332042.138299-.1463751.0441752-.0066834.0892852-.009901.133983-.0100006.4807587-.0010701.9615213-.0013579,1.442282-.0015087.1566101-.0000488.2213909.0647631.2218854.2205499.0001926.060719.0002942.12144-.0000368.1821576-.0006803.1252438-.0704932.1967894-.1952026.1971496-.2615113.0007563-.5230275.0002297-.7845418.0002461Z"/>
        <path class="cls-2" d="m5.8874291,4.0815211c-.2560786,0-.5121591.000294-.7682368-.0001359-.1125249-.0001886-.1835039-.0684368-.184549-.1801407-.0007887-.0843785.0018087-.1688576.0053611-.2531883.0035767-.0849042.0468084-.136609.1314166-.153045.0462374-.0089818.0942409-.0121801.1414615-.0122952.4751944-.0011586.9503926-.0012848,1.4255889-.001367.1752676-.0000305.2380288.0632824.2381826.2387538.0000465.0527678.001018.1055631-.0003077.1582984-.0030938.1230803-.0821899.2023548-.2048429.2027992-.2613555.0009473-.5227159.0002897-.7840744.0003206Z"/>
        <path class="cls-2" d="m12.5532229,10.2425877c-.0000931-.0236802-.0163403-.0472673-.0250768-.0708855-.0242699.0120729-.0515347.0204525-.0720804.0371187-.0305857.0247665-.0540797.058254-.0846498.0830204-.1398313.1132802-.1980232.2526925-.1803639.4367651.0161541.1686169.0034139.3369544.0034139.5159682h-.5438072c-.0051674-.0002172-.011266-.0003724-.0196146-.0003414-.0319668.0001241-.0723287.0002172-.1175166.0003414h-.0000931c-.2646878.0007449-.7166604.0018932-.9038366.0056485-.0535521.0010862-.074346-.0104901-.073539-.0689613.0031656-.229602.001288-.459297.0012414-.6889611-.0000621-.2719036-.0004345-.5438072.0000776-.8157108.0000621-.037398-.0121505-.0798238.055709-.0778685.1846313.0053071.3694643.0042519.5542197.0054933.2181343.0015207.4362841.0033208.6544339.0033829.022594,0,.0522796-.0037864.0666646-.0179697.1006332-.0993452.1981008-.2018871.296608-.3034048-.0038639-.0106142-.0077124-.0212284-.0115763-.0318116-.0398033-.0073865-.079622-.020918-.1194253-.020856-.0896.0000931-.1792155.0108625-.268769.0103038-.4142488-.002576-.8284665-.0080382-1.2427152-.0114211-.2112133-.001738-.3444185.1293257-.3473203.3418891-.0050433.3690763-.0103504.7381526-.0122591,1.107229-.0011018.2136496-.0036932.4278269.009109.6408558.0109556.1823346.153099.3013565.3339284.3014806.396217.0003104.7924496.0001552,1.1886666-.0001241.0211663,0,.1801156-.0020794.2519011-.0042209.1010056.0052761.2023837.0076348.3031876.0023587.1632632-.0085658.2998668-.1467988.3021324-.3108844.0049192-.3560724.0026225-.7122999.0013501-1.0684344Z"/>
        <path class="cls-2" d="m10.7277487,7.3377783c0-.1134061-.0015-.2268363.0003639-.3402124.0025819-.1569222.0849518-.2495112.2418977-.2539977.2346689-.0067076.4696939-.0064242.7044556-.0024319.1528912.0025997.2457802.103786.2484801.2594219.0019199.1107368-.0008729.2215499-.000958.3323283-.0000871.116055.002189.2321352.0004529.3481603-.0022238.1487219-.0956025.2519015-.2449596.2555311-.2346824.0057032-.4697345.0063531-.7043782-.0000551-.1618038-.0044198-.2435002-.0969571-.2458247-.2585718-.0016335-.1133683-.0003174-.2267812-.0003174-.3401737.0002632,0,.0005245.000001.0007877.000001Z"/>
        <path class="cls-2" d="m7.113737,7.3377783c0-.1134061-.0015-.2268363.0003639-.3402124.0025819-.1569222.0849518-.2495112.2418977-.2539977.2346689-.0067076.4696939-.0064242.7044556-.0024319.1528912.0025997.2457802.103786.2484801.2594219.0019199.1107368-.0008729.2215499-.000958.3323283-.0000871.116055.002189.2321352.0004529.3481603-.0022238.1487219-.0956025.2519015-.2449596.2555311-.2346824.0057032-.4697345.0063531-.7043782-.0000551-.1618038-.0044198-.2435002-.0969571-.2458247-.2585718-.0016335-.1133683-.0003174-.2267812-.0003174-.3401737.0002632,0,.0005245.000001.0007877.000001Z"/>
        <path class="cls-2" d="m7.113737,10.4094711c0-.1134061-.0015-.2268363.0003639-.3402124.0025819-.1569222.0849518-.2495112.2418977-.2539977.2346689-.0067076.4696939-.0064242.7044556-.0024319.1528912.0025997.2457802.103786.2484801.2594219.0019199.1107368-.0008729.2215499-.000958.3323283-.0000871.116055.002189.2321352.0004529.3481603-.0022238.1487219-.0956025.2519015-.2449596.2555311-.2346824.0057032-.4697345.0063531-.7043782-.0000551-.1618038-.0044198-.2435002-.0969571-.2458247-.2585718-.0016335-.1133683-.0003174-.2267812-.0003174-.3401737.0002632,0,.0005245.000001.0007877.000001Z"/>
        <path class="cls-2" d="m14.358219,10.4094711c0-.1134061-.0015-.2268363.0003639-.3402124.0025819-.1569222.0849518-.2495112.2418977-.2539977.2346689-.0067076.4696939-.0064242.7044556-.0024319.1528912.0025997.2457802.103786.2484801.2594219.0019199.1107368-.0008729.2215499-.000958.3323283-.0000871.116055.002189.2321352.0004529.3481603-.0022238.1487219-.0956025.2519015-.2449596.2555311-.2346824.0057032-.4697345.0063531-.7043782-.0000551-.1618038-.0044198-.2435002-.0969571-.2458247-.2585718-.0016335-.1133683-.0003174-.2267812-.0003174-.3401737.0002632,0,.0005245.000001.0007877.000001Z"/>
        <path class="cls-2" d="m18.6770439,14.6437267c-.0005586-3.3246353-.0010242-6.6492706-.0018621-9.9739369-.0000155-.0580057.0010862-.1168493-.0075727-.1738929-.0902207-.5943333-.5737877-1.012477-1.1730091-1.0139047-.4835359-.0011173-.9670718.0001241-1.4506078.0011483-.0447069.0000931-.090019.0028863-.1339655.0106142-.0888241.015642-.1328793.0681544-.1348656.1583751-.0018001.0818101-.0009466.1637132-.0004811.2455543.0007138.1251359.0595109.1837623.183995.1837933.5310981.0000931,1.0621962-.0001862,1.5932943.0004345.0366066.0000621.0743925.0015518.109618.0103659.2552995.0639335.4299218.3027531.4298442.585333-.000419,1.8510301-.0019552,3.7020913-.0010862,5.5531214.0008069,1.6635436.0039726,3.3270561.0066882,4.9905686.0006362.3920427-.2335435.6312037-.6224982.631514-.5704979.0004966-1.1409958.0004345-1.7115092.0004345-4.23291-.0001241-8.4658356-.0003104-12.6987611-.0004966-.4491794,0-.8983588.0005586-1.3475383-.0006207-.2282054-.0005897-.4112073-.0884517-.5263652-.2916113-.0711183-.1254462-.0814066-.2653551-.0813756-.4065364.0005586-2.6829105.0010242-5.365821.0011173-8.0487005.000031-.805407.0007759-1.6108139-.0026225-2.4161899-.0015673-.3674314.2816023-.6218619.6121943-.6111546.4460758.0144006.8929741.0038484,1.3395155.0033829.1302412-.0001241.1959127-.0631266.2002267-.1915522.0023122-.0685889.0024053-.1372708.0021104-.2059217-.0006362-.1410572-.05484-.2005836-.1940661-.2010181-.4438878-.0014587-.8878067-.0027311-1.331679.0009931-.7653089.0064244-1.2322407.6100994-1.211664,1.2454309.0192111.5935264.0050588,1.18817.0049967,1.7822861-.0002638,2.9126056-.0009156,5.8251802-.0001552,8.7377547.000031.0839826.0064089.1695169.0231061.2516373.1020919.501847.5076662.9030142,1.0835022.9369052.0140592.0008069.0281494.000838.0422085.0015207v.0007449h.0203284c.2506442.0114832.5024056.0053071.7537946,0h14.2876018c.0862016.0129108.1833123.0006828.2730985-.000031.2268708-.0018001.4562866.0107073.6800228-.0183421.531036-.0689302.9527489-.5307722.9827759-1.0652687.0133143-.2368643.0016759-.4751252.0016449-.7127344Z"/>
      </g>
    </g>
  </g>
</svg>